<?xml version="1.0" standalone="no"?>
<!DOCTYPE svg PUBLIC "-//W3C//DTD SVG 1.1//EN" "http://www.w3.org/Graphics/SVG/1.1/DTD/svg11.dtd" >
<!--
2013-9-30: Created.
-->
<svg>
<metadata>
Created by iconfont
</metadata>
<defs>

<font id="amosicon" horiz-adv-x="1024" >
  <font-face
    font-family="amosicon"
    font-weight="500"
    font-stretch="normal"
    units-per-em="1024"
    ascent="896"
    descent="-128"
  />
    <missing-glyph />
    
    <glyph glyph-name="x" unicode="x" horiz-adv-x="1001"
d="M281 543q-27 -1 -53 -1h-83q-18 0 -36.5 -6t-32.5 -18.5t-23 -32t-9 -45.5v-76h912v41q0 16 -0.5 30t-0.5 18q0 13 -5 29t-17 29.5t-31.5 22.5t-49.5 9h-133v-97h-438v97zM955 310v-52q0 -23 0.5 -52t0.5 -58t-10.5 -47.5t-26 -30t-33 -16t-31.5 -4.5q-14 -1 -29.5 -0.5
t-29.5 0.5h-32l-45 128h-439l-44 -128h-29h-34q-20 0 -45 1q-25 0 -41 9.5t-25.5 23t-13.5 29.5t-4 30v167h911zM163 247q-12 0 -21 -8.5t-9 -21.5t9 -21.5t21 -8.5q13 0 22 8.5t9 21.5t-9 21.5t-22 8.5zM316 123q-8 -26 -14 -48q-5 -19 -10.5 -37t-7.5 -25t-3 -15t1 -14.5
t9.5 -10.5t21.5 -4h37h67h81h80h64h36q23 0 34 12t2 38q-5 13 -9.5 30.5t-9.5 34.5q-5 19 -11 39h-368zM336 498v228q0 11 2.5 23t10 21.5t20.5 15.5t34 6h188q31 0 51.5 -14.5t20.5 -52.5v-227h-327z" />
    

    
    <glyph glyph-name="compile" unicode="&#58881;" d="M357.1875 847.8125H181.4375v-601.1875H55.6875l212.875-250.8125 216.8125 250.8125h-128.125V847.8125zM881.9375 331.6875V522h-70.1875c-11.8125-11-24.0625-21.3125-36.625-31v-54.75l33.4375 19.0625v-123.625H881.9375zM583.125 652.8125h73.375V843.1875H586.3125C574.4375 832.1875 562.25 821.75 549.6875 812.1875v-54.75L583.125 776.4375V652.8125zM796.125 647.875c31.25 0 53.5625 8.125 67.125 24.4375 13.5625 16.3125 20.375 43.875 20.375 82.75 0 33.625-6.4375 57.5625-19.1875 71.75-12.5625 14.25-35.375 21.3125-68.4375 21.3125-31.875 0-54.4375-6.875-67.625-20.625-13.1875-13.6875-19.6875-37.8125-19.6875-72.4375 0-36.375 6.25-63.3125 18.5625-80.875C739.625 656.5625 762.5625 647.875 796.125 647.875zM778.9375 775.3125c2.6875 5.0625 8.5 7.5625 17.0625 7.5625 8.4375 0 14.1875-2.5625 16.9375-7.5625 3.0625-5.0625 4.5-14.75 4.5-29 0-15.9375-1.3125-27.0625-4-33.3125s-8.3125-9.375-17.1875-9.375c-7.8125 0-13.3125 2.625-16.625 7.9375-3.1875 5.375-4.75 16.125-4.75 32.3125C774.875 759.75 776.25 770.25 778.9375 775.3125zM796.125 205.6875c-31.875 0-54.4375-6.9375-67.625-20.625s-19.75-37.8125-19.75-72.375c0-36.375 6.3125-63.375 18.5625-80.9375 12.3125-17.5625 35.25-26.25 68.9375-26.25 31.25 0 53.5 8.0625 67.125 24.4375 13.5625 16.25 20.3125 43.8125 20.3125 82.75 0 33.5625-6.375 57.5-19.1875 71.625C851.9375 198.625 829.125 205.6875 796.125 205.6875zM813.5 70.5625c-2.6875-6.4375-8.3125-9.375-17.1875-9.375-7.8125 0-13.3125 2.5625-16.625 7.9375-3.1875 5.375-4.75 16.125-4.75 32.25 0 16 1.3125 26.5 4 31.5 2.6875 5.125 8.4375 7.6875 17 7.6875 8.4375 0 14.25-2.5625 16.9375-7.6875 3.0625-5 4.5-14.5625 4.5-28.9375C817.5 87.875 816.1875 76.8125 813.5 70.5625zM637.625 526.9375c-31.875 0-54.4375-6.875-67.625-20.625-13.1875-13.75-19.75-37.875-19.75-72.4375 0-36.375 6.25-63.3125 18.5625-80.9375 12.4375-17.4375 35.25-26.25 68.9375-26.25 31.25 0 53.5 8.1875 66.9375 24.4375 13.6875 16.3125 20.375 43.9375 20.375 82.75 0 33.625-6.375 57.5625-19.0625 71.75C693.4375 519.75 670.5625 526.9375 637.625 526.9375zM654.9375 391.8125c-2.6875-6.3125-8.4375-9.375-17.125-9.375-7.8125 0-13.375 2.625-16.6875 7.9375C618 395.75 616.375 406.4375 616.375 422.625c0 15.9375 1.3125 26.4375 3.9375 31.5s8.5 7.5625 17 7.5625c8.5 0 14.25-2.5625 16.9375-7.5625 3.0625-5.0625 4.5-14.75 4.5-29C659 409.125 657.625 398.0625 654.9375 391.8125zM549.6875 169.6875v-54.6875l33.4375 19.0625v-123.6875h73.375v190.3125H586.3125C574.4375 189.6875 562.25 179.4375 549.6875 169.6875z"  horiz-adv-x="1000" />

    
    <glyph glyph-name="next-page" unicode="&#58891;" d="M262.3386 833.6323L762.3127 383.6508 262.3386-66.32550000000003Z"  horiz-adv-x="1024" />

    
    <glyph glyph-name="arrow-left-top-thin" unicode="&#58987;" d="M75.09333333 311.18222221999997c0-40.21816889 32.60188445-72.81777778 72.81777778-72.81777777s72.81777778 32.59960889 72.81777778 72.81777777L220.72888889 572.29312l603.87100444-603.87328c28.43534222-28.43534222 74.54264889-28.43534222 102.97799112 0C941.79783111-17.360213329999965 948.90666667 1.2765866700000288 948.90666667 19.91111110999998s-7.10883555 37.27132445-21.32878222 51.48899556L323.70688 675.27111111 584.81777778 675.27111111c40.21589333 0 72.81777778 32.60188445 72.81777777 72.81777778s-32.60188445 72.81777778-72.81777777 72.81777778L75.09333333 820.90666667 75.09333333 311.18222221999997z"  horiz-adv-x="1024" />

    
    <glyph glyph-name="favorite1" unicode="&#58896;" d="M356.578 459.997c0 0-186.175-20.621-310.37-34.406-11.194-1.354-21.092-8.837-24.804-20.209-3.711-11.372 0-23.213 8.247-30.695 92.261-84.192 230.892-210.272 230.892-210.272-0.117 0-38.061-183.405-63.277-305.774-2.119-11.075 1.885-22.8 11.549-29.811 9.605-7.010 21.977-7.13 31.696-1.651 108.641 61.745 271.367 154.594 271.367 154.594 0 0 162.784-92.853 271.248-154.654 9.899-5.421 22.27-5.302 31.874 1.708 9.662 7.010 13.669 18.736 11.489 29.751-25.215 122.427-63.098 305.834-63.098 305.834 0 0 138.629 126.081 230.892 210.093 8.247 7.717 11.902 19.558 8.247 30.871-3.652 11.312-13.55 18.794-24.745 20.091-124.194 13.904-310.428 34.526-310.428 34.526 0 0-77.18 170.738-128.612 284.565-4.831 10.192-14.964 17.321-26.866 17.321-11.902 0-22.095-7.187-26.689-17.321-51.493-113.825-128.612-284.565-128.612-284.565z"  horiz-adv-x="1024" />

    
    <glyph glyph-name="left" unicode="&#58926;" d="M726.309-105.47l-393.143 393.144 393.699 393.699c12.497 12.497 12.497 32.759 0 45.255-12.497 12.497-32.759 12.497-45.255 0l-416.327-416.327c-12.496-12.497-12.496-32.759 0-45.256l415.772-415.771c12.498-12.497 32.758-12.497 45.255 0 12.496 12.497 12.497 32.757-0.001 45.255z"  horiz-adv-x="1024" />

    
    <glyph glyph-name="user1" unicode="&#58893;" d="M341.295811 408.115234c-62.588995 28.118408-104.401976 90.170672-104.401976 163.230642 0 99.280144 80.485307 179.762153 179.769519 179.762153s179.769519-80.482009 179.769519-179.762153c0-72.850192-41.693249-134.802172-103.994683-163.03826 154.101901-33.542954 270.800428-167.270654 278.439722-329.531202l-708.162021-0.464581C72.503191 238.45311300000003 188.578499 373.946017 341.295811 408.115234zM566.119254 730.305237c41.408759-40.134069 67.144941-96.343255 67.144941-158.564365 0-57.473993-21.960027-109.818151-57.946064-149.102876l0.005117-0.001023c112.046386-48.193629 196.745841-147.829883 224.35782-269.174556l0 0.004093 160.123281 0.105401c-6.789915 144.208403-110.505224 263.059278-247.463997 292.871257 55.36825 25.094538 92.424709 80.155575 92.424709 144.900158 0 88.234577-71.531011 159.76368-159.772273 159.76368-29.398745 0-56.94523-7.940856-80.608109-21.794375M559.655787 711.945077"  horiz-adv-x="1024" />

    
    <glyph glyph-name="youxiang" unicode="&#58911;" d="M512.012041 181.464534l415.548448 346.226152c-2.25174 0.409407-4.274694 1.348636-6.610724 1.348636L103.074318 529.039323c-2.287865 0-4.32286-0.927187-6.5746-1.348636L512.012041 181.464534zM958.133584 491.855503c0 3.901411-1.071684 7.513829-2.25174 11.06604L661.313264 257.397554l295.014111-295.074318c0.758608 2.974224 1.806209 5.840075 1.806209 9.055127L958.133584 491.855503zM68.15428 502.957667c-1.143932-3.576294-2.287865-7.140546-2.287865-11.102164l0-520.465099c0-3.251176 1.119849-6.104986 1.854374-9.07921l295.110442 295.098401L68.15428 502.957667zM632.582502 233.507432l-108.697648-90.539229c-3.407714-2.901976-7.622201-4.298777-11.872813-4.298777-4.214487 0-8.453057 1.396802-11.896896 4.298777l-108.601317 90.491063L94.079398-63.963123c2.926058-0.770649 5.828034-1.842333 8.99492-1.842333l817.887488 0c3.227093 0 6.129069 1.059643 9.115334 1.842333L632.582502 233.507432z"  horiz-adv-x="1024" />

    
    <glyph glyph-name="pre-page" unicode="&#59047;" d="M872.672396-48.488084999999955c0-5.51562-2.910402-10.899234-8.097754-13.745049-5.164838-2.88777-11.249666-2.494821-15.932507 0.437975l-689.951541 432.481945c-4.432121 2.7793-7.365036 7.703449-7.365036 13.30605s2.944173 10.526751 7.365036 13.30605l689.951541 432.503435c4.682841 2.932796 10.767669 3.304256 15.932507 0.437975 5.165861-2.866281 8.097754-8.206916 8.097754-13.744026L872.672396-48.488084999999955 872.672396-48.488084999999955z"  horiz-adv-x="1024" />

    
    <glyph glyph-name="xiala" unicode="&#58894;" d="M512-50.823134l512 639.97365L0 589.150516 512-50.823134"  horiz-adv-x="1024" />

    
    <glyph glyph-name="add2" unicode="&#58895;" d="M511.12033849 895.94169913c-281.59047453 0-509.86452992-228.26470173-509.86452992-509.84363918 0-281.57893746 228.27405539-509.84363918 509.86452992-509.84363918 281.59163847 0 509.86452992 228.26586681 509.86452992 509.84363918C1020.98486841 667.67699627 792.7119781 895.94169913 511.12033849 895.94169913zM510.55330418-51.17739690999997c-241.13072811 0-436.60641166 195.46767474-436.60641167 436.58852352 0 241.12084765 195.47568355 436.58852352 436.60641167 436.58852352 241.13189205 0 436.60641166-195.46767474 436.60641166-436.58852352C947.15971584 144.29027783000004 751.68403229-51.17739690999997 510.55330418-51.17739690999997zM557.60520735 717.34832207L462.00708294 717.34832207 462.00708294 433.99011563 180.0480858 433.99011563 180.0480858 339.78858319000005 462.00708294 339.78858319000005 462.00708294 56.430376730000035 557.60520735 56.430376730000035 557.60520735 339.78858319000005 841.08957775 339.78858319000005 841.08957775 433.99011563 557.60520735 433.99011563Z"  horiz-adv-x="1024" />

    
    <glyph glyph-name="list-dot" unicode="&#58966;" d="M153.84541531 627.85104937c67.29465844 0 121.84639031 52.8721125 121.84639031 118.08155438 0 65.20755469-54.55173094 118.06739531-121.84639031 118.06739531S31.99902594 811.14015844 31.99902594 745.9326046900001C31.99902594 680.72316188 86.55075687 627.85104937 153.84541531 627.85104937zM153.84541531 509.78365406c-67.29465844 0-121.84639031-52.87494469-121.84639031-118.08249844 0-65.19245156 54.55173094-118.06739531 121.84639031-118.06739531s121.84639031 52.87494469 121.84639031 118.06739531C275.69180563 456.90871031 221.14007469 509.78365406 153.84541531 509.78365406zM153.84541531 155.55220499999996c-67.29465844 0-121.84639031-52.85700937-121.84639031-118.06739531 0-65.20755469 54.55173094-118.06739531 121.84639031-118.06739531s121.84639031 52.85984156 121.84639031 118.06739531C275.69180563 102.69519562000005 221.14007469 155.55220499999996 153.84541531 155.55220499999996zM963.46540615 627.7802540600001L360.49338021 627.7802540600001c-1.07644219 0-1.94831062 0.84482906-1.94831062 1.887885L358.54506865 862.112115c0 1.04305687 0.87186937 1.887885 1.94831063 1.887885l602.97105281 0c1.07644219 0 1.94831062-0.84482906 1.94831063-1.887885l0-232.44397594C965.41371772 628.62508313 964.54087428 627.7802540600001 963.46540615 627.7802540600001zM963.46540615 272.89276500000005L360.49338021 272.89276500000005c-1.07644219 0-1.94831062 0.84482906-1.94831062 1.887885L358.54506865 507.22840125c0 1.04305687 0.87186937 1.887885 1.94831063 1.887885l602.97105281 0c1.07644219 0 1.94831062-0.84482906 1.94831063-1.887885l0-232.44775125C965.41371772 273.73759406 964.54087428 272.89276500000005 963.46540615 272.89276500000005zM963.65439303-80.58258562000003L360.68236615-80.58258562000003c-1.07644219 0-1.94831062 0.84482906-1.94831062 1.88788499L358.73405553 153.75305062999996c0 1.04305687 0.87186937 1.887885 1.94831062 1.887885l602.97202688 0c1.07644219 0 1.94831062-0.84482906 1.94831062-1.887885l0-232.44775125C965.60270365-79.73681343999999 964.72986022-80.58258562000003 963.65439303-80.58258562000003z"  horiz-adv-x="1024" />

    
    <glyph glyph-name="delete" unicode="&#58931;" d="M575.488 658.4 575.488 709.6 447.488 709.6 447.488 658.4 179.2 658.4 230.4 581.6 793.6 581.6 844.8 658.4ZM242.688-109.6l537.6 0L780.288 530.4 242.688 530.4 242.688-109.6zM626.688 440.288l51.2 0 0-460.8-51.2 0L626.688 440.288zM486.4 440.288l51.2 0 0-460.8-51.2 0L486.4 440.288zM345.088 440.288l51.2 0 0-460.8-51.2 0L345.088 440.288z"  horiz-adv-x="1024" />

    
    <glyph glyph-name="tuichu" unicode="&#59043;" d="M940.92856889 406.74417778l-145.63555556 182.04444444c-7.04512 8.80526222-17.58776889 13.66698667-28.43761778 13.66698667-4.02773333 0-8.09528889-0.66901333-12.04451555-2.05482667C740.22001778 595.28305778 730.45333333 581.50684445 730.45333333 566.04444445l0-109.22666667L439.18222222 456.81777778c-40.21589333 0-72.81777778-32.60188445-72.81777777-72.81777778 0-40.21703111 32.60188445-72.81777778 72.81777777-72.81777778l291.27111111 0 0-109.22666667c0-15.4624 9.76668445-29.23747555 24.35754667-34.35633777 3.94808889-1.38467555 8.01792-2.05482667 12.04451555-2.05482667 10.85098667 0 21.39249778 4.85944889 28.43761778 13.66698667l145.63555556 182.04444444C951.56679111 374.55189333 951.56679111 393.44696889 940.92856889 406.74417778zM584.81777778 92.72888889000001L366.36444445 92.72888889000001l-72.81777778 0 0 0.01137778c-0.19114667-0.00113778-0.37888-0.01137778-0.56888889-0.01137778-39.90300445 0-72.24888889 32.60188445-72.24888889 72.81777778l0 72.81777778L220.72888889 529.6355555499999l0 72.81777778 0.01137778 0c-0.00113778 0.19000889-0.01137778 0.37888-0.01137778 0.56888889 0 39.90186667 32.60074667 72.24888889 72.81777778 72.24888889l72.81777778 0 218.45333333 0c40.21589333 0 72.81777778 32.60074667 72.81777777 72.81777778 0 40.21589333-32.60188445 72.81777778-72.81777777 72.81777778L220.72888889 820.90666667c-80.43178667 0-145.63555555-65.20376889-145.63555556-145.63555556l0-582.54222222c0-80.43064889 65.20376889-145.63555555 145.63555556-145.63555556l364.08888889 0c40.21589333 0 72.81777778 32.60188445 72.81777777 72.81777778C657.63555555 60.12814221999997 625.03367111 92.72888889000001 584.81777778 92.72888889000001z"  horiz-adv-x="1024" />

    
    <glyph glyph-name="file-upload-2" unicode="&#58938;" d="M380.050294 385.38044l63.11548 0 0-103.353926c0-18.975167 15.476483-34.450626 34.45165-34.450626l68.90023 0c18.975167 0 34.45165 15.47546 34.45165 34.450626l0 103.353926 62.510706 0c22.202675 0 26.643823 3.631714 7.603165 23.011086l-104.496959 104.428398c-35.121915 34.855856-34.651194 35.022655-69.642127 0l-104.361883-104.428398C353.203856 389.01113 359.730503 385.38044 380.050294 385.38044zM856.5078 676.8313479999999L443.099259 676.8313479999999c0 57.05853-46.293349 103.351879-103.351879 103.351879L167.4922 780.183228c-57.059554 0-103.351879-46.293349-103.351879-103.351879l0-103.353926 0-34.449603 0-447.860191c0-57.05853 46.292326-103.350856 103.351879-103.350856l689.014576 0c57.059554 0 103.351879 46.292326 103.351879 103.350856l0 482.309794C959.859679 630.537999 913.56633 676.8313479999999 856.5078 676.8313479999999zM890.959449 91.16762800000004c0-19.006889-15.442714-34.450626-34.45165-34.450626L167.4922 56.71700199999998c-19.007913 0-34.44858 15.443737-34.44858 34.450626l0 482.309794c0 19.009959 15.440667 34.45165 34.44858 34.45165l689.014576 0c19.008936 0 34.45165-15.441691 34.45165-34.45165L890.958426 91.16762800000004zM649.804041 228.97115799999995c0-19.007913-15.442714-34.449603-34.450626-34.449603l-206.703759 0c-19.008936 0-34.450626 15.441691-34.450626 34.449603l0 34.45165-68.9033 0 0-34.45165c0-57.05853 46.293349-103.351879 103.353926-103.351879l206.703759 0c57.059554 0 103.351879 46.293349 103.351879 103.351879l0 34.45165-68.901253 0L649.804041 228.97115799999995z"  horiz-adv-x="1024" />

    
    <glyph glyph-name="zhuxiao4" unicode="&#58940;" d="M1024 301.7408 1024 301.7408zM513.7408-208.5184 513.7408-208.5184c-255.419733 0-462.4384 206.984533-462.4384 462.4384 0 193.3312 118.6816 358.877867 287.0272 427.9296l0-0.1024c4.983467 1.774933 10.3424 2.730667 15.9744 2.730667 26.350933 0 47.854933-21.4016 47.854933-47.8208 0-20.7872-13.312-38.570667-31.9488-45.124267l0-0.034133c-131.1744-55.808-223.232-185.9584-223.232-337.544533 0-202.581333 164.181333-366.762667 366.762667-366.762667 202.581333 0 366.762667 164.215467 366.762667 366.762667 0 151.586133-91.989333 281.7024-223.266133 337.544533L657.237333 591.498667c-18.602667 6.519467-31.880533 24.302933-31.880533 45.124267 0 26.4192 21.4016 47.8208 47.8208 47.8208 5.563733 0 10.888533-0.955733 15.940267-2.730667L689.117867 681.815467c168.482133-69.051733 287.0272-234.5984 287.0272-427.9296C976.1792-1.533867 769.1264-208.5184 513.7408-208.5184M513.7408 285.800533c-26.385067 0-47.8208 21.4016-47.8208 47.854933L465.92 616.689067 465.92 713.3888 465.92 764.1792C465.885867 790.530133 487.355733 812 513.7408 812c26.4192 0 47.8208-21.435733 47.8208-47.8208l0-143.530667 0-95.675733 0-191.2832C561.5616 307.236267 540.16 285.800533 513.7408 285.800533"  horiz-adv-x="1024" />

    
    <glyph glyph-name="youxiang1" unicode="&#58919;" d="M885.514437 604.141952 138.483516 604.141952c-41.377386 0-75.052347-33.67496-75.052347-75.135234l0-458.07381c0-41.484833 33.67496-75.074859 75.052347-75.074859l747.030921 0c41.550325 0 75.05337 33.590026 75.05337 75.074859L960.567807 529.006717C960.566784 570.466991 927.063739 604.141952 885.514437 604.141952L885.514437 604.141952zM867.55439 550.342652 569.65256 286.198669c-26.000164-23.192212-45.255717-34.714639-57.653071-34.714639-12.395308 0-31.652907 11.522428-57.653071 34.714639L156.443563 550.342652 867.55439 550.342652 867.55439 550.342652zM119.257639 87.662941 119.257639 501.540156l232.657874-204.067722L119.257639 87.662941 119.257639 87.662941zM158.382729 49.656325l233.531777 207.390397 38.257326-33.590026c22.233374-19.422352 49.616024-29.40061 81.826634-29.40061 32.380478 0 59.591213 9.978259 81.910545 29.40061l38.254256 33.590026 233.539964-207.390397L158.382729 49.656325 158.382729 49.656325zM904.771013 87.662941 672.111093 297.472434l232.659921 204.067722L904.771013 87.662941 904.771013 87.662941zM904.771013 87.662941"  horiz-adv-x="1024" />

    
    <glyph glyph-name="danwei" unicode="&#58975;" d="M1020.586667 286.346667c0-27.306667-20.48-47.786667-47.786667-47.786667-13.653333 0-23.893333 3.413333-34.133333 13.653333l0 0L512 678.88l0 0 0 0L81.92 252.213333l0 0c-10.24-6.826667-20.48-13.653333-34.133333-13.653333-27.306667 0-47.786667 20.48-47.786667 47.786667 0 13.653333 6.826667 27.306667 13.653333 34.133333L477.866667 781.28c10.24 10.24 20.48 13.653333 34.133333 13.653333l0 0c0 0 0 0 3.413333 0 0 0 0 0 0 0 0 0 0 0 3.413333 0 0 0 0 0 0 0 10.24 0 20.48-6.826667 30.72-13.653333l0 0 187.733333-187.733333L737.28 634.506667c0 27.306667 20.48 47.786667 47.786667 47.786667 27.306667 0 47.786667-20.48 47.786667-47.786667l0-139.946667 177.493333-177.493333 0 0C1017.173333 310.24 1020.586667 296.586667 1020.586667 286.346667M925.013333 204.426667 925.013333 61.066667l0-64.853333 0-126.293333c0-27.306667-20.48-47.786667-47.786667-47.786667l-95.573333 0L781.653333 204.426667l-191.146667 0L590.506667-177.866667 146.773333-177.866667c-27.306667 0-47.786667 20.48-47.786667 47.786667l0 126.293333L98.986667 61.066667l0 143.36L512 620.853333 925.013333 204.426667zM433.493333 204.426667 242.346667 204.426667l0-191.146667 191.146667 0L433.493333 204.426667z"  horiz-adv-x="1024" />

    
    <glyph glyph-name="refresh" unicode="&#59039;" d="M313.344 507.52L176.32 370.496c-1.792 12.736-3.2 25.6-3.2 38.848 0 180.672 147.008 327.744 327.744 327.744 113.088 0 212.928-57.6 271.936-144.96l49.92 7.488c-65.28 110.016-184.96 184.128-321.856 184.128-206.464 0-374.4-168-374.4-374.4 0-0.96 0.256-1.856 0.256-2.88L36.032 506.624 1.408 475.328l164.224-181.504 180.672 180.672L313.344 507.52zM1023.168 287.744l-180.672 181.056-164.288-181.888 34.688-31.36L825.6 380.41600000000005c-14.848-167.04-153.984-298.816-324.8-298.816-93.888 0-178.048 40.128-237.824 103.616l-37.632-28.544c68.48-74.56 166.464-121.728 275.52-121.728 193.792 0 353.664 148.032 372.544 336.96l116.8-117.12L1023.168 287.744z"  horiz-adv-x="1024" />

    
    <glyph glyph-name="gengduo" unicode="&#58985;" d="M193.148022 332.850176m-127.182634 0a124.286 124.286 0 1 0 254.365268 0 124.286 124.286 0 1 0-254.365268 0ZM510.959298 332.850176m-127.182634 0a124.286 124.286 0 1 0 254.365268 0 124.286 124.286 0 1 0-254.365268 0ZM829.065286 332.18912m-127.182634 0a124.286 124.286 0 1 0 254.365268 0 124.286 124.286 0 1 0-254.365268 0Z"  horiz-adv-x="1024" />

    
    <glyph glyph-name="down" unicode="&#58897;" d="M511.988232 262.56323c82.338287 79.43005 162.652474 156.895353 242.949264 234.379075 27.276227 26.320459 54.524824 52.670593 81.756025 79.039147 15.350616 14.864546 32.260751 22.187325 49.568952 4.565992 17.49035-17.805528 9.126868-34.245965-5.987365-49.245587C766.979764 418.863019 653.884986 306.21849599999996 540.384979 193.98431900000003c-22.36845-22.119787-35.526121-21.773909-58.525951 0.991584C369.11729 306.56539699999996 256.754177 418.536584 144.079978 530.1946399999999c-15.20326 15.066137-23.405059 32.030507-7.578606 49.606815 17.72571 19.686365 35.57217 10.295484 51.621704-5.218862 99.69663-96.367815 199.47717-192.650695 299.253618-288.935622C494.528582 278.744771 501.86978 272.04211499999997 511.988232 262.56323z"  horiz-adv-x="1024" />

    
    <glyph glyph-name="pie-chart" unicode="&#58885;" d="M593.03 469.776c0 0 0 422.155 0 426.224 260.301 0 425.031-169.619 425.031-426.224 0-1.417-425.031 0-425.031 0zM958.259 334.429c0-266.871-197.347-459.242-468.066-459.242s-490.193 216.349-490.193 483.221c0 266.881 187.41 477.638 458.129 477.638 12.724 0 29.518 0.944 41.993 0v-459.473h458.129c1.87-17.095 0.009-24.54 0.009-42.144zM916.257 334.429h-458.129v459.473c-249.892 0-420.428-189.127-420.428-435.485 0-246.339 202.592-446.028 452.483-446.028 249.901-0.009 426.073 175.709 426.073 422.039 0 47.986 0 0 0 0z"  horiz-adv-x="1024" />

    
    <glyph glyph-name="user" unicode="&#59040;" d="M914.285714 9.147429q0-68.571429-41.728-108.288t-110.848-39.716571l-499.419429 0q-69.156571 0-110.848 39.716571t-41.728 108.288q0 30.281143 2.011429 59.136t8.009143 62.281143 15.140571 61.988571 24.576 55.698286 35.437714 46.299429 48.859429 30.573714 63.707429 11.446857q5.156571 0 23.990857-12.288t42.569143-27.428571 61.696-27.428571 76.288-12.288 76.288 12.288 61.696 27.428571 42.569143 27.428571 23.990857 12.288q34.852571 0 63.707429-11.446857t48.859429-30.573714 35.437714-46.299429 24.576-55.698286 15.140571-61.988571 8.009143-62.281143 2.011429-59.136zM731.428571 519.428571q0-90.843429-64.292571-155.136t-155.136-64.292571-155.136 64.292571-64.292571 155.136 64.292571 155.136 155.136 64.292571 155.136-64.292571 64.292571-155.136z"  horiz-adv-x="1024" />

    
    <glyph glyph-name="picture" unicode="&#59098;" d="M963.117886-50.451674 60.53726-50.451674 60.53726 656.592534l902.579603 0L963.116863-50.451674 963.117886-50.451674zM118.898459 7.920782 118.898459 7.920782l785.849018 0L904.747477 598.222125 118.898459 598.222125 118.898459 7.920782zM554.930253 114.099033 683.179173 336.20662 811.423999 114.099033ZM212.25059 114.099033 430.466544 492.063317 648.69887 114.099033ZM669.728836 468.709423c0-37.592177-30.495548-68.084655-68.093864-68.084655-37.606503 0-68.084655 30.492478-68.084655 68.084655 0 37.615713 30.478152 68.108191 68.084655 68.108191C639.233288 536.81659 669.728836 506.324112 669.728836 468.709423z"  horiz-adv-x="1024" />

    
    <glyph glyph-name="video1" unicode="&#58913;" d="M705.623347 496.898439 312.998155 496.898439l0-87.524402 0-58.113559 0-101.927437 0-58.113559 0-88.817861 392.625192 0L705.623347 496.898439zM619.956246 293.001609l-184.123484-96.424096c-1.718131-0.901533-3.681856-1.350764-5.66707-1.350764-1.657756 0-3.314489 0.321318-4.827959 0.949628-3.314489 1.396813-5.40101 4.113691-5.40101 7.087419L419.936723 396.111988c0 2.972705 2.087545 5.689582 5.380544 7.087419 3.334955 1.397836 7.385201 1.238201 10.515494-0.401136l184.123484-96.426143c2.843768-1.493004 4.562922-4.001127 4.562922-6.684236S622.800014 294.495636 619.956246 293.001609zM760.527818 191.219481l69.104891 0 0-88.817861-69.104891 0 0 88.817861ZM760.527818 351.261501l69.104891 0 0-101.927437-69.104891 0 0 101.927437ZM895.556141 747.996291 128.039653 747.996291c-64.067154 0-64.067154 0-64.067154-63.946404l0-767.969812c0-63.542198 0-63.542198 64.017012-63.542198l767.211543 0c64.243163 0 64.243163 0 64.243163 63.585177L959.444217 683.620098C959.444217 747.996291 959.444217 747.996291 895.556141 747.996291zM887.67873 44.289084 133.431453 44.289084 133.431453 555.011998l754.247276 0L887.67873 44.289084zM760.527818 496.898439l69.104891 0 0-87.524402-69.104891 0 0 87.524402ZM191.476451 351.261501l66.617234 0 0-101.927437-66.617234 0 0 101.927437ZM191.476451 496.898439l66.617234 0 0-87.524402-66.617234 0 0 87.524402ZM191.476451 191.219481l66.617234 0 0-88.817861-66.617234 0 0 88.817861Z"  horiz-adv-x="1024" />

    
    <glyph glyph-name="folder" unicode="&#59041;" d="M1023.776727 549.73114C1023.776727 618.967556 967.894929 674.970622 898.770263 674.970622L524.389269 674.970622 541.827964 667.839631 415.475552 791.681684 408.200011 798.812676 398.036858 798.812676 49.727948 798.812676 24.752338 798.812676 24.752338 773.714637 24.752338 96.194929C24.752338 26.851622 80.62984-29.422618 149.496902-29.422618L887.174801-29.422618C900.96845-29.422618 912.150411-18.185843 912.150411-4.324578 912.150411 9.536685 900.96845 20.773461 887.174801 20.773461L149.496902 20.773461C108.2416 20.773461 74.703558 54.549628 74.703558 96.194929L74.703558 773.714637 49.727948 748.616598 398.036858 748.616598 380.598165 755.74759 506.950577 631.905536 514.226118 624.774544 524.389269 624.774544 898.770263 624.774544C940.338027 624.774544 973.825508 591.214391 973.825508 549.73114L973.825508 107.338093C973.825508 93.476828 985.007471 82.240053 998.801118 82.240053 1012.594767 82.240053 1023.776727 93.476828 1023.776727 107.338093L1023.776727 549.73114ZM1016.007812 409.7423 1016.007812 459.938379 27.784179 459.938379 27.784179 409.7423 1016.007812 409.7423Z"  horiz-adv-x="1024" />

    
    <glyph glyph-name="selected" unicode="&#59053;" d="M464.247574 218.512156C474.214622 209.350991 489.665824 209.798411 499.086059 219.520971L798.905035 528.962102C808.503379 538.868489 808.253662 554.680199 798.347275 564.278544 788.44089 573.87689 772.62918 573.627172 763.030833 563.720785L463.211858 254.279654 498.050342 255.288469 316.608839 422.059538C306.453341 431.393915 290.653676 430.728264 281.319299 420.572766 271.984922 410.417267 272.650573 394.617602 282.806071 385.283225L464.247574 218.512156Z"  horiz-adv-x="1024" />

    
    <glyph glyph-name="viewgallery" unicode="&#59060;" d="M147.04975 846.048781 348.539994 846.048781C390.229001 846.048781 423.931625 812.54407 423.931625 770.941234L423.931625 546.52218C423.931625 505.022859 390.167209 471.414635 348.539994 471.414635L147.04975 471.414635C105.360742 471.414635 71.65812 504.919345 71.65812 546.52218L71.65812 770.941234C71.65812 812.440555 105.422534 846.048781 147.04975 846.048781ZM21.333333 546.52218C21.333333 477.349489 77.549527 421.463415 147.04975 421.463415L348.539994 421.463415C417.992574 421.463415 474.25641 477.466982 474.25641 546.52218L474.25641 770.941234C474.25641 840.113925 418.040215 896 348.539994 896L147.04975 896C77.597169 896 21.333333 839.996433 21.333333 770.941234L21.333333 546.52218ZM675.460006 846.048781 876.950251 846.048781C918.639258 846.048781 952.341879 812.54407 952.341879 770.941234L952.341879 546.52218C952.341879 505.022859 918.577466 471.414635 876.950251 471.414635L675.460006 471.414635C633.770999 471.414635 600.068375 504.919345 600.068375 546.52218L600.068375 770.941234C600.068375 812.440555 633.832791 846.048781 675.460006 846.048781ZM549.74359 546.52218C549.74359 477.349489 605.959785 421.463415 675.460006 421.463415L876.950251 421.463415C946.402831 421.463415 1002.666667 477.466982 1002.666667 546.52218L1002.666667 770.941234C1002.666667 840.113925 946.450473 896 876.950251 896L675.460006 896C606.007426 896 549.74359 839.996433 549.74359 770.941234L549.74359 546.52218ZM147.04975 296.585365 348.539994 296.585365C390.229001 296.585365 423.931625 263.080655 423.931625 221.47782L423.931625-2.941233C423.931625-44.440555 390.167209-78.048781 348.539994-78.048781L147.04975-78.048781C105.360742-78.048781 71.65812-44.54407 71.65812-2.941233L71.65812 221.47782C71.65812 262.977141 105.422534 296.585365 147.04975 296.585365ZM21.333333-2.941233C21.333333-72.113924 77.549527-128 147.04975-128L348.539994-128C417.992574-128 474.25641-71.996433 474.25641-2.941233L474.25641 221.47782C474.25641 290.650511 418.040215 346.536585 348.539994 346.536585L147.04975 346.536585C77.597169 346.536585 21.333333 290.533018 21.333333 221.47782L21.333333-2.941233ZM874.686701-78.048781 868.289711-78.048781 845.457374-78.048781 776.173041-78.048781 675.395834-78.048781C633.745909-78.048781 600.068375-44.547631 600.068375-2.941233L600.068375 221.47782C600.068375 262.977141 633.832791 296.585365 675.460006 296.585365L876.950251 296.585365C918.642281 296.585365 952.341879 263.11607 952.341879 221.579471L952.341879 26.978142 952.341879-3.065886C952.341879-16.859535 963.607467-28.041495 977.504273-28.041495 991.401079-28.041495 1002.666667-16.859535 1002.666667-3.065886L1002.666667 26.978142 1002.666667 221.579471C1002.666667 290.696734 946.442579 346.536585 876.950251 346.536585L675.460006 346.536585C606.007426 346.536585 549.74359 290.533018 549.74359 221.47782L549.74359-2.941233C549.74359-72.110364 605.927488-128 675.395834-128L776.173041-128 845.457374-128 868.289711-128 874.686701-128 876.37206-128C890.847055-128 902.112642-116.818039 902.112642-103.02439 902.112642-89.230741 890.847055-78.048781 876.950251-78.048781L874.686701-78.048781Z"  horiz-adv-x="1024" />

    
    <glyph glyph-name="selectall" unicode="&#59168;" d="M871.077 513.237c-8.775 8.774-22.865 8.878-31.507 0.234L437.886 81.373l-253.41 222.995c-8.656 8.656-22.79 8.539-31.535-0.206-8.773-8.775-8.878-22.865-0.234-31.507l268.547-238.136c4.559-4.558 10.632-6.663 16.639-6.377 5.998-0.287 12.058 1.812 16.607 6.363L871.285 481.7C879.94 490.357 879.822 504.49 871.077 513.237zM511.999 811.976C229.216 811.976 0.003 582.76 0.003 300c0-282.749 229.213-511.975 511.996-511.975 282.761 0 511.996 229.227 511.996 511.975C1023.995 582.76 794.758 811.976 511.999 811.976zM511.999-164.347C255.548-164.347 47.645 43.548 47.645 300c0 256.451 207.903 464.347 464.354 464.347S976.354 556.451 976.354 300 768.449-164.347 511.999-164.347z"  horiz-adv-x="1024" />

    
    <glyph glyph-name="list1" unicode="&#59030;" d="M150.997844 812c23.688093 0 43.776425-8.035953 60.275841-24.110956 16.494769-16.070356 24.741379-35.952679 24.741379-59.634576l0-64.716681c0-23.681897-8.24661-43.776425-24.741379-60.269645-16.499416-16.494769-36.587748-24.747574-60.275841-24.747574l-67.252312 0c-22.840817 0-42.504737 8.252806-59.004153 24.747574C8.24661 619.761362 0 639.855891 0 663.537787l0 64.716681c0 23.681897 8.24661 43.564219 24.741379 59.634576 16.499416 16.076552 36.163336 24.110956 59.004153 24.110956L150.997844 812 150.997844 812zM1021.465933 812c22.840817 0 42.504737-8.035953 58.999506-24.110956 16.499416-16.070356 24.747574-35.952679 24.747574-59.634576l0-64.716681c0-23.681897-8.24661-43.776425-24.747574-60.269645-16.49322-16.494769-36.158689-24.747574-58.999506-24.747574L479.641667 578.520568c-23.681897 0-43.774877 8.252806-60.269645 24.747574-16.49322 16.49322-24.746026 36.587748-24.746026 60.269645l0 64.716681c0 23.681897 8.252806 43.564219 24.746026 59.634576 16.494769 16.076552 36.587748 24.110956 60.269645 24.110956L1021.465933 812 1021.465933 812zM150.997844 417.375552c23.688093 0 43.776425-8.252806 60.275841-24.747574 16.494769-16.49322 24.741379-36.587748 24.741379-60.269645l0-64.716681c0-22.840817-8.24661-42.503189-24.741379-59.005702-16.499416-16.49322-36.587748-24.73983-60.275841-24.73983l-67.252312 0c-22.840817 0-42.504737 8.245061-59.004153 24.73983C8.24661 225.136914 0 244.799286 0 267.641652L0 332.358333c0 23.681897 8.24661 43.776425 24.741379 60.269645 16.499416 16.494769 36.163336 24.747574 59.004153 24.747574L150.997844 417.375552 150.997844 417.375552zM1021.465933 417.375552c22.840817 0 42.504737-8.252806 58.999506-24.747574 16.499416-16.49322 24.747574-36.587748 24.747574-60.269645l0-64.716681c0-22.840817-8.24661-42.503189-24.747574-59.005702-16.49322-16.49322-36.158689-24.73983-58.999506-24.73983L479.641667 183.89612c-23.681897 0-43.774877 8.245061-60.269645 24.73983C402.878802 225.136914 394.625997 244.799286 394.625997 267.641652L394.625997 332.358333c0 23.681897 8.252806 43.776425 24.746026 60.269645 16.494769 16.494769 36.587748 24.747574 60.269645 24.747574L1021.465933 417.375552 1021.465933 417.375552zM150.997844 21.473221c23.688093 0 43.776425-8.24661 60.275841-24.741379 16.494769-16.49322 24.741379-36.164885 24.741379-59.005702l0-64.710485c0-23.688093-8.24661-43.774877-24.741379-60.275841-16.499416-16.49322-36.587748-24.73983-60.275841-24.73983l-67.252312 0c-22.840817 0-42.504737 8.245061-59.004153 24.73983C8.24661-170.759221 0-150.672437 0-126.984345L0-62.27386c0 22.840817 8.24661 42.510933 24.741379 59.005702 16.499416 16.49322 36.163336 24.741379 59.004153 24.741379L150.997844 21.473221 150.997844 21.473221zM1021.465933 21.473221c22.840817 0 42.504737-8.24661 58.999506-24.741379 16.499416-16.49322 24.747574-36.164885 24.747574-59.005702l0-64.710485c0-23.688093-8.24661-43.774877-24.747574-60.275841-16.49322-16.49322-36.158689-24.73983-58.999506-24.73983L479.641667-212.000015c-23.681897 0-43.774877 8.245061-60.269645 24.73983-16.49322 16.500965-24.746026 36.587748-24.746026 60.275841L394.625997-62.27386c0 22.840817 8.252806 42.510933 24.746026 59.005702 16.494769 16.49322 36.587748 24.741379 60.269645 24.741379L1021.465933 21.473221 1021.465933 21.473221zM1021.465933 21.473221"  horiz-adv-x="1106" />

    
    <glyph glyph-name="eye" unicode="&#59253;" d="M512 704c-223.31392 0-416.89088-130.048-512-320 95.10912-189.952 288.68608-320 512-320s416.8704 130.048 512 320c-95.10912 189.952-288.68608 320-512 320zM764.45696 534.30272c60.17024-38.37952 111.14496-89.76384 149.44256-150.30272-38.2976-60.5184-89.27232-111.9232-149.44256-150.30272-75.59168-48.20992-162.89792-73.70752-252.45696-73.70752s-176.86528 25.47712-252.45696 73.70752c-60.14976 38.37952-111.14496 89.76384-149.42208 150.30272 38.2976 60.5184 89.27232 111.9232 149.44256 150.30272 3.91168 2.49856 7.8848 4.9152 11.85792 7.29088-9.95328-27.32032-15.40096-56.832-15.40096-87.59296 0-141.37344 114.60608-256 256-256s256 114.62656 256 256c0 30.78144-5.44768 60.27264-15.40096 87.59296 3.97312-2.37568 7.94624-4.79232 11.85792-7.31136l0 0zM512 479.98976c0-53.02272-42.98752-96.01024-96.01024-96.01024s-96.01024 42.98752-96.01024 96.01024 42.98752 96.01024 96.01024 96.01024 96.01024-42.98752 96.01024-96.01024z"  horiz-adv-x="1024" />

    
    <glyph glyph-name="right" unicode="&#58900;" d="M762.734578 328.804023 314.815035 737.021332c-14.699794 14.633279-38.534642 14.633279-53.234435 0-14.699794-14.627139-14.699794-38.33612 0-52.963259l420.923702-383.618051L261.5806-83.171889c-14.699794-14.628162-14.699794-38.34226 0-52.963259 14.699794-14.633279 38.534642-14.633279 53.234435 0l447.918519 408.211169c7.840572 7.798617 11.180644 18.149359 10.656711 28.365025C773.915221 310.652618 770.574127 320.999266 762.734578 328.804023z"  horiz-adv-x="1024" />

    
    <glyph glyph-name="up" unicode="&#58912;" d="M947.546747 103.359434l-408.002414 446.683389c-7.797593 7.821129-18.142196 11.153014-28.350698 10.630105-10.209526 0.522909-20.554128-2.808976-28.351722-10.630105L74.833359 103.359434c-14.617929-14.660908-14.617929-38.428218 0-53.089126 14.617929-14.660908 38.320771-14.660908 52.939723 0l383.41953 419.767366 383.414413-419.767366c14.617929-14.660908 38.320771-14.660908 52.939723 0S962.164676 88.698526 947.546747 103.359434z"  horiz-adv-x="1024" />

    
    <glyph glyph-name="shipinbofang" unicode="&#58927;" d="M512-212C229.216-212 0 17.248 0 300S229.216 812 512 812c282.752 0 512-229.216 512-512S794.752-212 512-212zM512 716C282.24 716 96 529.76 96 300c0-229.76 186.208-416 416-416 229.76 0 416.032 186.24 416.032 416C928.032 529.76 741.76 716 512 716zM400.672 470.176c0 20.224 16.384 36.608 36.64 36.608 6.976 0 13.12-2.464 18.656-5.856l240.768-184.448c8.192-6.72 13.696-16.512 13.696-27.904 0-12.736-6.88-23.424-16.672-29.984l-239.712-183.04c-5.088-2.624-10.592-4.544-16.704-4.544-19.84 0-35.776 15.808-36.384 35.456L400.672 470.176z"  horiz-adv-x="1024" />

    
    <glyph glyph-name="xiaoxi" unicode="&#58914;" d="M885.692492 594.022477 205.239919 594.022477l0-465.657532c0-50.080605 40.739866-90.806145 90.806145-90.806145l64.932872 0 0-173.256996L511.472486 37.558799l374.218984 0c50.066279 0 90.791819 40.72554 90.791819 90.806145L976.483288 503.223494C976.483288 553.290797 935.757748 594.022477 885.692492 594.022477zM948.056865 128.364945c0-34.395368-27.983331-62.378699-62.364373-62.378699L498.507196 65.986245 389.407406-59.632777 389.407406 65.986245 296.046065 65.986245c-34.395368 0-62.378699 27.983331-62.378699 62.378699L233.667366 565.596054l652.024104 0c34.382065 0 62.364373-27.984355 62.364373-62.372559L948.055842 128.364945zM392.418996 361.419861c-24.555256 0-44.487214-19.932981-44.487214-44.50154 0-24.581861 19.931958-44.500517 44.487214-44.500517 24.582885 0 44.514843 19.918655 44.514843 44.500517C436.933839 341.48688 417.001881 361.419861 392.418996 361.419861zM590.854441 361.419861c-24.581861 0-44.514843-19.932981-44.514843-44.50154 0-24.581861 19.932981-44.500517 44.514843-44.500517 24.569582 0 44.514843 19.918655 44.514843 44.500517C635.369284 341.48688 615.424023 361.419861 590.854441 361.419861zM789.276582 361.419861c-24.554232 0-44.49847-19.932981-44.49847-44.50154 0-24.581861 19.944238-44.500517 44.49847-44.500517 24.569582 0 44.50154 19.918655 44.50154 44.500517C833.778122 341.48688 813.846164 361.419861 789.276582 361.419861zM81.508897 219.491385 81.508897 692.761292l621.487623 0c33.785477 0 59.519582-29.420053 59.519582-44.13929l28.427446 0c0 32.668027-40.572044 72.566736-87.947028 72.566736L53.081451 721.188738l0-501.697353c0-48.484248 39.46278-87.934748 87.947028-87.934748l0 28.427446C108.200816 159.985106 81.508897 186.679072 81.508897 219.491385z"  horiz-adv-x="1024" />

    
    <glyph glyph-name="xuanzhong" unicode="&#58939;" d="M511.865947 748.055642c-247.171426 0-447.580828-200.370517-447.580828-447.541943 0-247.211335 200.409402-447.582875 447.580828-447.582875s447.542966 200.370517 447.542966 447.582875C959.409936 547.684102 759.038396 748.055642 511.865947 748.055642zM758.044766 423.511012l-266.202874-266.202874c-0.028653-0.028653-0.021489-0.084934-0.051165-0.113587l-1.320065-1.257643-17.066701-17.066701c-1.826602-1.826602-3.749394-3.354398-5.664-4.590552l-2.1295-2.029216c-1.301645-1.240247-3.361561-1.36509-5.641487-1.01205-2.396583-0.36225-4.550643-0.207731-5.868661 1.110287l-2.359744 2.359744c-1.798972 1.255597-3.602038 2.77623-5.307889 4.565992l-14.95255 15.694447-2.950192 2.950192c-0.065492 0.065492-0.049119 0.192382-0.110517 0.261966L265.247106 329.449729c-6.950296 7.29515-9.668197 16.009625-6.05081 19.456121l26.181289 24.943089c3.617387 3.446495 12.189623 0.312108 19.140942-6.984065L460.72929 202.904615l258.960936 258.960936c7.164167 7.164167 15.810081 10.089799 19.343557 6.557346l25.570375-25.570375C768.136611 439.320069 765.208932 430.675178 758.044766 423.511012z"  horiz-adv-x="1024" />

    
    <glyph glyph-name="message" unicode="&#58917;" d="M569.99946 561.367617c-2.366907 0.072655-3.445472 3.318582-5.789866 2.550079 0.005117-0.849344 0.00921-1.700735 0.013303-2.550079C566.148759 561.367617 568.073598 561.367617 569.99946 561.367617zM637.403616 561.5640920000001c-32.265868 5.637394-61.615313-1.596358-88.461751-20.022009-23.801079-16.335037-43.575448-37.230949-64.410985-56.897871-25.38311-23.962761-51.66366-46.703695-82.628906-63.295582-28.29544-15.161305-57.982576-25.670659-90.639347-25.14468-3.790326 0.061398-4.581342-1.402953-4.050246-4.583388 0.431835-2.581802 0.678452-5.219885 1.373277-7.733125 4.646833-16.817014 15.297404-29.111015 29.129434-39.220257 5.15337-3.76986 10.354835-5.232165 16.437367-3.823072 7.447623 1.728364 15.055904 3.00238 22.281469 5.41329 35.588543 11.873422 63.59541 34.342156 86.968747 63.120596 24.723078 30.439266 49.934273 60.474326 78.717829 87.201038 29.515221 27.40721 60.314691 52.961212 101.617375 60.801784 0.769526 0.854461 0.777713 1.703805-0.013303 2.550079C641.620661 560.484504 639.542326 561.191608 637.403616 561.5640920000001zM728.270137 627.808842c-14.411221-0.159636-26.381857-12.30628-26.176173-26.561959 0.206708-14.368242 12.399401-26.356274 26.624381-26.181289 14.381545 0.177032 26.290783 12.317537 26.126031 26.630521C754.673483 616.1871530000001 742.685451 627.967454 728.270137 627.808842zM510.394944 832.429149c-247.111051 0-447.435519-200.323445-447.435519-447.435519 0-247.111051 200.324468-447.435519 447.435519-447.435519s447.435519 200.324468 447.435519 447.435519C957.830463 632.104681 757.505995 832.429149 510.394944 832.429149zM459.182562 106.75462800000003c-6.736425-20.268626-20.666692-32.386618-41.378409-36.960797-6.593162 0.044002-13.186324 0.090051-19.777439 0.134053-19.726274 5.442966-33.870412 17.059538-39.676651 37.153178-6.115278 21.166065-0.257873 39.170115 15.513322 54.268998 2.842745 2.719948 4.885264 2.90005 8.145517 0.286526 23.11137-18.511609 47.53462-35.0554 74.399477-47.705512C460.148563 112.16996500000005 460.310246 110.14791200000002 459.182562 106.75462800000003zM781.694907 597.721593c-1.570775-1.063215 0.190335-3.701299-1.182942-4.857635-5.652743-27.114544-20.8734-39.530318-55.016011-44.903699 2.13871-6.628978 4.638647-13.171997 6.364965-19.911492 11.7056-45.733601 5.082762-89.865727-12.489452-132.802632-14.94641-36.522822-37.289278-68.252477-64.86431-96.27981-17.933441-18.228153-29.693276-39.791262-37.165458-64.015989-7.357572-23.849174-11.710716-48.443315-18.320251-72.470545-2.731204-9.927093-5.792936-19.848047-12.035104-28.191062-12.745279-17.031908-31.381731-19.61064-50.635237-18.941398-33.034371 1.150196-62.571081 13.759375-90.606601 30.051433-50.164516 29.15297-92.009554 68.127633-129.709177 111.781876-25.295106 29.29214-47.026036 60.915371-62.10343 96.814999-6.382361 15.198144-10.1952 31.06553-13.360286 47.145763-0.282433 0.420579-0.554632 0.61296-0.813528 0.585331-0.313132 2.396583 0.63138 4.923126-0.699941 7.217379 0 0.438998 0 0.877997 0 1.313925 1.054005 3.066849 1.054005 6.132674 0 9.198499 0 0.435928 0 0.874927 0 1.313925 1.230014 1.839905 0.449231 3.939729 0.683569 5.907547 0.25685-0.029676 0.524956 0.164752 0.803295 0.590448 0.345877 1.017166 0.854461 2.00875 1.016143 3.056616 2.921539 18.958794 12.871145 31.969109 31.341822 38.433334 17.022699 5.956665 34.719756 8.809643 52.262294 12.435217 23.338544 4.823865 46.706765 9.392928 68.696592 19.207457 18.888186 8.43102 32.559557 23.339568 47.634904 36.628222 36.443004 32.127721 77.093842 56.774051 124.831077 68.25043 21.173229 5.089925 42.59819 7.261381 64.441685 4.998851 15.294334-1.584078 29.91431-5.483898 44.636616-11.159154 1.599428 28.66076 15.502066 47.061852 43.200918 54.282301 1.524726 1.75497 4.738931-0.848321 6.114255 1.286296 3.955078 0.046049 7.909134 0.083911 11.864212-0.047072 21.219277 0.968048 46.267766-23.636327 45.109384-45.557592C781.694907 605.295082 781.694907 601.508849 781.694907 597.721593z"  horiz-adv-x="1024" />

    
    <glyph glyph-name="area-chart" unicode="&#58922;" d="M129.723 223.163v-191.274c0-35.114 63.758-63.757 63.758-63.757h701.338c0 0 64.691 10.398 64.691-18.556 0-28.89-30.76-44.394-30.76-44.394l-771.32 1.057c-92.4 0-91.528 102.236-91.528 102.236l-0 624.009c0 31.008 45.328 36.178 45.328 36.178 28.891 0 18.492-62.95 18.492-62.95v-318.789l-0.001-63.761zM841.689 529.717l118.276-494.833h-768.795v318.107l206.983 318.106 266.121-318.106z"  horiz-adv-x="1024" />

    
    <glyph glyph-name="tianjia2" unicode="&#58921;" d="M512-212c-282.752 0-512 229.248-512 512s229.248 512 512 512c282.752 0 512-229.248 512-512S794.752-212 512-212zM768 364 576 364 576 556 448 556l0-192L256 364l0-128 192 0 0-192 128 0L576 236l192 0L768 364z"  horiz-adv-x="1024" />

    
    <glyph glyph-name="shipin" unicode="&#58923;" d="M929.384086 561.582647c0 0-246.892063-196.108446-267.714298-222.005256L661.669788 530.995001c0 21.246907-16.745383 38.464033-37.395702 38.464033L100.294241 569.459035c-20.652366 0-37.391608-17.217127-37.391608-38.464033l0-461.984886c0-21.243837 16.741289-38.468127 37.391608-38.468127l523.979846 0c20.652366 0 37.395702 17.22429 37.395702 38.468127L661.669788 258.026026c20.822235-22.441105 267.713274-223.499283 267.713274-223.499283 37.915541 0 31.264051 7.360641 31.264051 46.336328L960.647113 510.819496C960.648137 549.826905 967.30065 561.582647 929.384086 561.582647z"  horiz-adv-x="1024" />

    
    <glyph glyph-name="python" unicode="&#58906;" d="M505.721589 811.991505c-41.765604-0.195577-81.644293-3.754873-116.737339-9.965431C285.611984 783.759609 266.836621 745.535339 266.836621 675.038919l0-93.104489 244.29426 0 0-31.03483L266.837619 550.8996l-91.680571 0c-70.993345 0-133.160793-42.672641-152.611694-123.853936-22.430453-93.050605-23.427295-151.116929 0-248.283626C39.913762 106.442563 81.385004 54.908102 152.379347 54.908102l83.993209 0L236.372556 166.519536c0 80.634478 69.766002 151.761534 152.612692 151.761534l244.006882 0c67.923988 0 122.147629 55.920967 122.147629 124.138321L755.139759 675.037921c0 66.198722-55.851118 115.936073-122.147629 126.987155C591.030949 809.009958 547.487193 812.187081 505.721589 811.991505zM373.610524 737.108578c25.233386 0 45.839786-20.945666 45.839786-46.693938 0-25.660462-20.607398-46.410551-45.839786-46.410551-25.322194 0-45.840784 20.748094-45.840784 46.410551C327.76974 716.16391 348.287332 737.108578 373.610524 737.108578zM785.604822 550.8996l0-108.479212c0-84.108958-71.304671-154.888766-152.612692-154.888766L388.985248 287.531622c-66.838338 0-122.147629-57.202194-122.147629-124.14331l0-232.619529c0-66.196727 57.568402-105.151415 122.147629-124.139318 77.329631-22.741779 151.482139-26.851883 244.006882 0 61.50089 17.813445 122.147629 53.653874 122.147629 124.139318l0 93.105487L511.130881 23.874271 511.130881 54.908102l244.008878 0 122.145633 0c71.003324 0 97.454075 49.523813 122.146631 123.854934 25.50879 76.523376 24.425135 150.115098 0 248.282628-17.545026 70.673038-51.0545 123.852938-122.146631 123.852938l-91.680571 0L785.604822 550.8996zM648.366854-38.195389c25.324189 0 45.841782-20.750089 45.841782-46.409553 0-25.749269-20.51859-46.695933-45.841782-46.695933-25.232388 0-45.838789 20.946664-45.838789 46.695933C602.528065-58.945478 623.134466-38.195389 648.366854-38.195389z"  horiz-adv-x="1024" />

    
    <glyph glyph-name="shengyin" unicode="&#58928;" d="M294.755 528v-480h-160.084c-44.137 0-79.916 36.078-79.916 79.262v321.475c0 43.776 35.413 79.262 79.916 79.262h160.084zM550.767 720.009c35.339 26.505 63.988 11.53 63.988-32.207v-799.604c0-44.292-28.398-58.899-63.988-32.207l-256.012 192.009v480l256.012 192.009zM1001.445-93.838c210.883 210.883 210.883 552.793 0 763.675-23.433 23.431-61.421 23.431-84.853 0-23.433-23.433-23.433-61.421 0-84.853 164.020-164.020 164.020-429.95 0-593.97-23.433-23.433-23.433-61.421 0-84.853 23.431-23.433 61.421-23.433 84.853 0v0zM831.74 75.868c117.157 117.158 117.157 307.107 0 424.265-23.433 23.433-61.421 23.433-84.853 0-23.431-23.431-23.431-61.421 0-84.853 70.295-70.295 70.295-184.265 0-254.558-23.431-23.433-23.431-61.421 0-84.853 23.433-23.433 61.421-23.433 84.853 0v0z"  horiz-adv-x="1195" />

    
    <glyph glyph-name="xiaoxi2" unicode="&#59121;" d="M840.7814592 246.58497706000003c0 79.67489387 0 318.69302507 0 318.69302507 0 175.9944768-147.21201067 318.6897504-328.78091413 318.6897504-181.5689024 0-328.78309653-142.6952736-328.78309654-318.6897504 0 0 0-239.0181312 0-318.69302507 0-79.67052693-82.1952288-159.34105493-82.1952288-159.34105493l821.95665067 0C922.9777792 87.24392320000004 840.7814592 166.91445012999998 840.7814592 246.58497706000003zM512.00054613-72.10149760000002c68.10689493 0 123.2933888 35.67327253 123.2933888 79.67052693L388.70606613 7.569029330000035C388.70606613-36.42931734000001 443.89146773-72.10149760000002 512.00054613-72.10149760000002z"  horiz-adv-x="1024" />

    
    <glyph glyph-name="question" unicode="&#58898;" d="M512.095 782.893c-273.465 0-494.987-221.524-494.987-494.799 0-273.465 221.524-494.987 494.987-494.987 273.275 0 494.799 221.524 494.799 494.987 0 273.275-221.524 494.799-494.799 494.799zM572.801-22.132h-117.737v117.643h117.643v-117.643h0.095zM710.524 348.235c-14.706-23.19-46.095-54.863-94.077-94.737-24.885-20.644-40.251-37.329-46.378-49.867-5.939-12.444-8.673-35.067-8.199-67.305h-106.802c-0.285 15.27-0.471 24.605-0.471 27.997 0 34.502 5.844 63.063 17.251 85.404 11.501 22.341 34.406 47.51 68.625 75.506 34.406 27.713 54.863 46.095 61.648 54.863 10.37 13.669 15.459 28.657 15.459 45.153 0 22.907-9.050 42.703-27.431 59.105-18.192 16.118-42.891 24.32-73.811 24.32-29.977 0-54.863-8.484-75.13-25.452-20.078-16.967-33.935-42.986-41.475-78.052l-108.029 13.573c3.11 50.057 24.32 92.475 63.913 127.353 39.498 34.69 91.439 52.223 155.632 52.223 67.588 0 121.413-17.534 161.287-52.883 40.062-35.349 59.954-76.639 59.954-123.393 0-26.017-7.354-50.621-21.963-73.811z"  horiz-adv-x="1024" />

    
    <glyph glyph-name="auto" unicode="&#59107;" d="M243.809523-24.380951C311.135665-24.380951 365.714285 30.197668 365.714285 97.52381 365.714285 164.84995 311.135665 219.428572 243.809523 219.428572 176.483383 219.428572 121.904762 164.84995 121.904762 97.52381 121.904762 30.197668 176.483383-24.380951 243.809523-24.380951L243.809523-24.380951ZM243.809523 24.380951C203.413839 24.380951 170.666667 57.128126 170.666667 97.52381 170.666667 137.919494 203.413839 170.666667 243.809523 170.666667 284.205207 170.666667 316.952382 137.919494 316.952382 97.52381 316.952382 57.128126 284.205207 24.380951 243.809523 24.380951L243.809523 24.380951ZM804.571428-24.380951C871.89757-24.380951 926.47619 30.197668 926.47619 97.52381 926.47619 164.84995 871.89757 219.428572 804.571428 219.428572 737.245289 219.428572 682.666667 164.84995 682.666667 97.52381 682.666667 30.197668 737.245289-24.380951 804.571428-24.380951L804.571428-24.380951ZM804.571428 24.380951C764.175744 24.380951 731.428572 57.128126 731.428572 97.52381 731.428572 137.919494 764.175744 170.666667 804.571428 170.666667 844.967113 170.666667 877.714285 137.919494 877.714285 97.52381 877.714285 57.128126 844.967113 24.380951 804.571428 24.380951L804.571428 24.380951ZM1011.809523 85.333333 1011.809523 317.105715C1011.809523 384.476928 957.296806 439.177724 890.130281 439.177724L36.489124 439.177724C23.023896 439.177724 12.108172 428.261999 12.108172 414.79677L12.108172 194.677888C12.108172 127.43613 66.730801 72.800412 133.826317 72.800412 147.291545 72.800412 158.207269 83.716137 158.207269 97.181365 158.207269 110.646592 147.291545 121.562317 133.826317 121.562317 93.663873 121.562317 60.870076 154.36397 60.870076 194.677888L60.870076 414.79677 36.489124 390.415819 890.130281 390.415819C930.328683 390.415819 963.047618 357.583996 963.047618 317.105715L963.047618 85.333333C963.047618 71.868105 973.963343 60.952382 987.428572 60.952382 1000.893801 60.952382 1011.809523 71.868105 1011.809523 85.333333L1011.809523 85.333333ZM359.909427 72.800412 694.774837 72.800412C708.240066 72.800412 719.155791 83.716137 719.155791 97.181365 719.155791 110.646592 708.240066 121.562317 694.774837 121.562317L359.909427 121.562317C346.444198 121.562317 335.528474 110.646592 335.528474 97.181365 335.528474 83.716137 346.444198 72.800412 359.909427 72.800412L359.909427 72.800412ZM288.80963 654.417754 268.190477 643.047619 621.924403 643.047619 604.684467 650.188635 836.513681 418.359422 895.999964 422.588535 639.164341 684.668508 632.023326 691.809524 621.924403 691.809524 268.190477 691.809524 254.74595 691.809524 247.571324 680.439389 85.333333 422.588535 142.523915 422.588535 288.80963 654.417754ZM463.238095 667.428572 463.238095 423.314477 512 423.314477 512 667.428572 463.238095 667.428572 463.238095 667.428572Z"  horiz-adv-x="1024" />

    
    <glyph glyph-name="task" unicode="&#58965;" d="M970.47827919 130.28675735000002c0-114.123269-92.51643696-206.63970717-206.63846442-206.63970716-114.12451177 0-206.63846442 92.51643696-206.63846442 206.63970716 0 114.12451177 92.51395387 206.63722288 206.63846442 206.63722288C877.96184223 336.92398023 970.47827919 244.41002757 970.47827919 130.28675735000002zM775.85906498 200.13576768999997c0 8.30095845-6.72993553 15.02840969-15.02965244 15.02840969l-13.8125761 0c-8.2997157 0-15.02840969-6.72745245-15.02840969-15.02840969l0-76.39390012c0-8.29847415 6.72869398-15.02840969 15.02840969-15.02840968l13.8125761 0c8.2997157 0 15.02965245 6.72993553 15.02965244 15.02840968L775.85906498 200.13576768999997zM751.54858409 140.66047143000003c-10.10049206 0-18.29092042-6.72869398-18.29092041-15.02840968l0-13.81133336c0-8.30095845 8.19042714-15.02965245 18.29092041-15.02965243l92.97346196 0c10.10049206 0 18.29092042 6.72869398 18.2909204 15.02965243l0 13.81133336c0 8.2997157-8.19042714 15.02840969-18.2909204 15.02840968L751.54858409 140.66047143000003zM763.83981356 285.06162123c-85.48099079 0-154.77610663-69.29635738-154.77610663-154.77486388 0-85.47974804 69.29511583-154.77734817 154.77610663-154.77734817 85.47974804 0 154.77610663 69.29760014 154.77610662 154.77734817C918.61592018 215.76526385 849.31956281 285.06162123 763.83981356 285.06162123zM786.31101933 718.8972078300001l0-363.15946098c23.17288638-2.38944378 45.31995231-8.23016865 65.92207501-17.00181273L852.23309434 751.85141502c0 18.20895308-14.75767318 32.96165888-32.96041734 32.96165888L641.42303778 784.8130739000001c6.50266518-9.3503755 10.32776241-20.70271803 10.32776241-32.96165888 0-12.25024641-3.82509724-23.60383169-10.32776241-32.95420719L786.31101933 718.8972078300001zM383.11595334 651.56059167l137.1520939 0c35.22939502 0 63.79094987 28.56279639 63.79094987 63.79094987l0 5.67182404c0 35.22691072-28.56155485 63.78970832-63.79094987 63.78970832l-2.69371285 0c2.18825433 5.48305366 3.39912052 11.46163109 3.39912051 17.720881 0 26.42546111-21.41681891 47.84600709-47.83979694 47.84600709l-40.40445376 0c-26.42421957 0-47.84352278-21.42054476-47.84352278-47.84600709 0-6.25924991 1.21707634-12.23782734 3.40533065-17.720881l-5.17505873 0c-35.2343624 0-63.79591726-28.56279639-63.79591725-63.78970832l0-5.67182404C319.32003609 680.12338805 347.88159093 651.56059167 383.11595334 651.56059167zM271.6789455 300.48371901999997l101.66562301-101.66562301c7.9395614-7.9395614 18.34928993-11.91120441 28.75529383-11.9112044s20.81076505 3.97164302 28.74908369 11.9112044l203.32876169 203.32006848c15.88408897 15.88408897 15.88408897 41.63022333 0 57.51058644-15.87912158 15.88408897-41.62028854 15.88408897-57.50561905 0L402.09986113 285.07652459999997l-72.91157194 72.91405502c-15.87788003 15.87042835-41.62401439 15.87042835-57.5093449 0C255.80354855 342.10773219 255.80354855 316.35787321 271.6789455 300.48371901999997zM581.6447152-12.937057620000019l-462.20340246 0L119.44131274 718.8972078300001l143.93667431 0c-6.50390794 9.3503755-10.32776241 20.70396078-10.32776241 32.95420719 0 12.25893964 3.82509724 23.61128217 10.32776241 32.96165888L86.48089539 784.8130739000001c-18.20274415 0-32.96041733-14.75270459-32.96041733-32.96165888l0-797.74888997c0-18.2039857 14.75767318-32.96290043 32.96041733-32.96290043l576.82219646 0C631.22816053-63.42710127999999 603.30494939-40.74104422000005 581.6447152-12.937057620000019z"  horiz-adv-x="1024" />

    
    <glyph glyph-name="atmaway" unicode="&#59113;" d="M784.13 256.8l0 0c-20.69 0-37.463 44.891-37.463 100.267 0 55.376 16.773 100.267 37.463 100.267 20.69 0 37.463-44.891 37.463-100.267 0-55.376-16.773-100.267-37.463-100.267l0 0zM506.797 217.867l0 0c-20.69 0-37.463 39.28-37.463 87.733 0 48.454 16.773 87.733 37.463 87.733 20.69 0 37.463-39.28 37.463-87.733 0-48.454-16.773-87.733-37.463-87.733l0 0zM298.176 713.32c-149.272-73.128-245.851-210.105-250.381-363.22-0.112-3.774-0.168-7.555-0.168-11.34 0-13.152 10.662-23.814 23.814-23.814 13.152 0 23.814 10.662 23.814 23.814 0 3.316 0.049 6.627 0.147 9.932 3.983 134.635 89.69 256.193 223.727 321.857 11.811 5.786 16.695 20.051 10.909 31.862-5.786 11.811-20.051 16.695-31.862 10.909l0 0zM495.753-88.469c13.276-0.947 26.637-1.422 40.061-1.422 268.947 0 488.186 191.132 488.186 428.651 0 237.519-219.239 428.651-488.186 428.651 3.48 0 4.717-0.554 4.64-0.498-2.031 1.485-4.352 3.51-10.561 9.169-17.272 15.74-28.08 24.576-44.793 35.226-51.359 32.726-118.725 51.359-211.239 51.359-13.152 0-23.814-10.662-23.814-23.814 0-13.152 10.662-23.814 23.814-23.814 83.664 0 142.135-16.172 185.645-43.897 11.547-7.358 59.83-51.359 76.309-51.359 243.985 0 440.558-171.372 440.558-381.023 0-209.651-196.574-381.023-440.558-381.023-12.294 0-24.526 0.436-36.674 1.302-13.119 0.935-24.512-8.941-25.447-22.06-0.935-13.119 8.941-24.512 22.06-25.447l0 0zM238.14-137.519c131.521 0 238.14 106.619 238.14 238.14 0 131.521-106.619 238.14-238.14 238.14-131.521 0-238.14-106.619-238.14-238.14 0-131.521 106.619-238.14 238.14-238.14l0 0zM238.14-89.891c-105.217 0-190.512 85.295-190.512 190.512 0 105.217 85.295 190.512 190.512 190.512 105.217 0 190.512-85.295 190.512-190.512 0-105.217-85.295-190.512-190.512-190.512l0 0zM214.326 205.402l0-142.884c0-13.152 10.662-23.814 23.814-23.814s23.814 10.662 23.814 23.814l0 142.884c0 13.152-10.662 23.814-23.814 23.814s-23.814-10.662-23.814-23.814l0 0zM303.689 49.623l-66.679 76.205c-8.661 9.898-23.705 10.901-33.603 2.24-9.898-8.661-10.901-23.705-2.24-33.603l66.679-76.205c8.661-9.898 23.705-10.901 33.603-2.24 9.898 8.661 10.901 23.705 2.24 33.603l0 0z"  horiz-adv-x="1024" />

    
    <glyph glyph-name="cross" unicode="&#59035;" d="M555.93145078 352.93108148l350.83022792 350.83022791c12.11687822 12.11687822 12.11687822 31.81457257 0 43.93145079s-31.81457257 12.11687822-43.93145079 0l-350.83022791-350.83022791-350.83022791 350.83022791c-12.11687822 12.11687822-31.81457257 12.11687822-43.93145079 0s-12.11687822-31.81457257 0-43.93145079l350.83022792-350.83022791-350.83022792-350.83022791c-12.11687822-12.11687822-12.11687822-31.81457257 0-43.93145079 6.08950803-6.08950803 14.04315117-9.07212421 21.99679432-9.0721242s15.90728628 3.04475402 21.9967943 9.0721242l350.83022791 350.83022792 350.83022792-350.83022792c6.08950803-6.08950803 14.04315117-9.07212421 21.9967943-9.0721242s15.90728628 3.04475402 21.99679432 9.0721242c12.11687822 12.11687822 12.11687822 31.81457257 0 43.93145079l-350.83022792 350.83022791z"  horiz-adv-x="1024" />

    
    <glyph glyph-name="fire-fat" unicode="&#58970;" d="M332.97066667-93.86666666999997c-62.90773333 132.53973333-29.3888 208.4864 18.944 280.02986667 52.9408 78.37013333 66.59413333 155.92106667 66.59413333 155.92106667s41.60853333-54.784 24.9856-140.45866667c73.5232 82.87573333 87.3472 214.90346667 76.288 265.48906667 166.16106667-117.62346667 237.1584-372.25813333 141.48266667-560.98133334C1170.15893333 197.83680000000004 787.79733333 634.2656 721.23733333 683.45173333c22.18666667-49.152 26.38506667-132.4032-18.432-172.78293333C626.92693333 802.13333333 439.296 861.86666667 439.296 861.86666667c22.18666667-150.3232-80.41813333-314.6752-179.37066667-437.48693334-3.4816 59.93813333-7.168 101.30773333-38.26346666 158.65173334-6.99733333-108.88533333-89.12213333-197.632-111.37706667-306.72213334-30.13973333-147.72906667 22.56213333-255.8976 222.75413333-370.14186666L332.97066667-93.86666666999997zM332.97066667-93.86666666999997"  horiz-adv-x="1024" />

    
    <glyph glyph-name="tools-2" unicode="&#59012;" d="M418.927 315.182L286.206 182.41099999999994l-23.585 23.634 132.771 132.722-37.14 37.14L187.794 205.45000000000005l-0.049 0 0 0 0 0 0-0.051-68.868-211.916 211.917 68.818 0 0 0.05 0 0.049 0.05L330.893 62.39999999999998 501.3 232.80899999999997 418.927 315.182zM556.017 499.441l61.47 61.471 23.586-23.586-61.52-61.42 82.422-82.373 98.164 98.212-143.049 143-98.163-98.213L556.017 499.441zM759.84 777.496l-94.141-94.191 143.049-143.048 94.24 94.141L759.84 777.496zM727.566 333.75199999999995c-16.98 0-35.105-5.562-53.029-14.747L446.782 546.711c9.136 17.925 14.598 35.898 14.598 52.434 0 90.565-86.098 178.252-176.614 178.252-0.596 0-1.092 0-1.688 0-0.348 0-10.625-10.428-16.236-16.038 73.039-73.039 67.031-61.172 67.031-105.958 0-36.346-58.243-93.744-93.744-93.744-7.796 0-13.853-0.198-18.868-0.198-24.727 0-25.075 5.214-87.041 67.229-5.858-5.81-16.137-15.988-16.137-16.286 1.092-91.112 87.189-178.253 178.302-178.253 16.485 0 34.161 5.214 51.54 14.003l228.55-228.501c-8.738-17.379-13.853-34.856-13.853-50.845 0-90.566 86.098-178.302 176.613-178.302 0.498 0 1.043 0 1.639 0 0.396 0 10.676 10.477 16.188 16.088-72.939 73.038-66.932 61.122-66.932 105.958 0 36.296 58.191 93.744 93.693 93.744 7.746 0 13.854 0.198 18.918 0.198 24.727 0 25.125-5.214 87.09-67.229 5.809 5.76 15.988 15.89 16.088 16.236C904.727 246.562 818.729 333.75199999999995 727.566 333.75199999999995L727.566 333.75199999999995z"  horiz-adv-x="1024" />

    
    <glyph glyph-name="message-1" unicode="&#58929;" d="M512-32c-10.336 0-20.032 4.992-26.016 13.408l-64.896 90.848C213.344 108.832 64 265.024 64 448 64 659.744 264.96 832 512 832s448-172.256 448-384c0-183.008-149.344-339.168-357.056-375.712l-64.896-90.88C532.032-27.008000000000038 522.336-32 512-32zM512 768C300.256 768 128 624.448 128 448c0-154.976 132.928-287.328 316.064-314.656 8.576-1.28 16.288-6.016 21.312-13.056L512 55.072l46.624 65.248c5.024 7.072 12.704 11.776 21.312 13.056C763.072 160.67200000000003 896 292.99199999999996 896 448 896 624.448 723.744 768 512 768zM288.032 384c-35.296 0-64 28.704-64 64s28.704 64 64 64 64-28.704 64-64S323.328 384 288.032 384zM288.064 448C288.032 448 288 448 288 448l0.032-32L288.064 448zM736.032 384c-35.296 0-64 28.704-64 64s28.704 64 64 64 64-28.704 64-64S771.328 384 736.032 384zM736.064 448C736.032 448 736 448 736 448l0.032-32L736.064 448zM512.032 384c-35.296 0-64 28.704-64 64s28.704 64 64 64c35.296 0 64-28.704 64-64S547.328 384 512.032 384zM512.064 448c0 0-0.064 0-0.064 0l0.032-32L512.064 448z"  horiz-adv-x="1024" />

    
    <glyph glyph-name="pin" unicode="&#59122;" d="M51.196068-128c-13.021992 0-26.0184 5.091113-36.021541 15.094254-18.113104 18.164271-20.262117 46.050265-5.091113 66.337966l213.059228 288.325828-166.983379 166.983379C39.862586 425.038104 36.639068 450.51925 48.305135 470.7302c7.982046 12.612656 76.699275 112.82315 229.483822 75.010766 2.532765-0.307002 5.270197-0.537253 8.212297-0.793088 6.267953-0.537253 13.277827-1.17684 20.87612-2.404847 32.33752-5.244614 89.516599 20.722619 139.148552 63.037697 47.559691 40.49865 78.285451 87.751339 78.285451 120.344693 0 7.57271-0.179084 15.631507-0.358169 23.536802-1.279174 30.623426-3.223519 77.697031 31.979351 112.874317 41.649907 41.701074 107.552953 45.05251 153.270633 7.854129 0.921005-0.741921 1.76526-1.535009 2.583932-2.379264l-0.025583 0c24.585725-24.048472 276.608594-275.815506 279.243692-278.476188 21.694792-21.694792 33.642277-50.527374 33.693444-81.176384 0.025583-30.674593-11.896319-59.456009-33.539943-81.099634-35.023785-35.049369-82.353225-33.053857-113.565071-31.723516-7.393626 0.153501-15.478006 0.332585-23.025133 0.332585-30.828094 0-67.69389-21.592458-103.715431-60.760767-50.808793-55.260318-82.09739-126.63823-79.411124-158.617581 1.125673-10.258976 3.223519-28.37208 3.607271-30.930428 36.891379-149.612195-63.114447-217.843339-74.627013-225.109047-20.697036-12.484739-46.357267-9.389137-63.012113 7.240125l-178.393611 178.393611c-10.003141 10.003141-10.003141 26.171901 0 36.175042s26.171901 10.003141 36.175042 0l178.393611-178.393611c7.854129 5.091113 80.101878 54.646315 51.320462 171.76749-0.51167 2.35368-3.044434 23.562386-4.374775 35.970374-4.298025 51.115795 35.586622 136.027367 92.688951 198.118475 32.439854 35.254036 83.27423 77.287695 141.348731 77.287695 7.905296 0 16.399011-0.179084 24.662475-0.358169 32.41427-1.355924 58.048918-0.972172 75.77827 16.782763 11.973069 11.973069 18.548024 27.885994 18.548024 44.847842-0.025583 17.013015-6.677288 33.00269-18.701524 45.05251C952.220677 555.76969 683.849964 823.756651 675.944668 831.354945c-24.278723 19.724864-60.7096 17.882853-83.785899-5.21903-17.908437-17.908437-18.317772-43.491917-17.013015-75.087516 0.204668-8.800717 0.383752-17.243266 0.383752-25.148562 0-48.378362-35.995957-107.936705-96.270638-159.282751-49.478452-42.135993-122.979792-83.811483-180.491457-74.60143-6.293536 1.023339-12.049819 1.509425-17.192099 1.944345-3.325852 0.281418-6.421454 0.562837-9.312387 0.921005-2.456014 0.07675-4.860861 0.537253-7.188958 1.304758-117.760762 29.037251-167.597382-43.44075-172.893163-51.806549l182.742803-182.026466c8.954218-8.954218 10.028724-23.101883 2.481598-33.309692L51.170485-77.114457l238.617125 174.530506c11.435816 8.365798 27.425491 5.80745 35.740123-5.602782s5.80745-27.399908-5.602782-35.714539l-238.821793-174.12117C72.148939-124.699731 61.685295-128 51.196068-128z"  horiz-adv-x="1025" />

    
    <glyph glyph-name="wenjianjia" unicode="&#58930;" d="M891.38054-81.317659 131.466194-81.317659c-37.255509 0-67.546396 31.492248-67.546396 70.222341L63.919798 603.59346c0 38.730093 30.290887 70.249971 67.546396 70.249971L454.392978 673.84343c15.622816 0 29.9358-8.658194 37.173644-22.506597L598.198198 450.092413l276.821723 0c37.255509 0 83.907015-45.175899 83.907015-83.907015l0-377.279692C958.926936-49.82541 928.636049-81.317659 891.38054-81.317659zM182.765557 2.589356l657.31562 0c19.295462 0 34.938744 15.642259 34.938744 34.938744L875.01992 324.789593c0 22.862707-18.534122 41.395806-41.395806 41.395806L572.796668 366.185398c-15.622816 0-29.9358 8.658194-37.173644 22.506597L438.836677 571.356244c-6.056949 11.431354-17.935488 18.580171-30.872125 18.580171L182.765557 589.936415c-19.295462 0-34.938744-15.642259-34.938744-34.938744L147.826813 37.5281C147.827837 18.231615 163.470095 2.589356 182.765557 2.589356zM833.863569 380.177064c-23.508413-0.438998-42.750663 19.263739-42.750663 42.776246l0 53.108568c0 16.550954-13.417591 29.967522-29.967522 29.967522L504.982166 506.0294c-23.512507 0-43.214221 19.24225-42.776246 42.750663 0.425695 22.794146 19.050891 41.156352 41.946344 41.156352l300.945143 0c38.566364 0 69.922513-45.340651 69.922513-83.907015l0-83.907015C875.01992 399.227955 856.657714 380.602759 833.863569 380.177064z"  horiz-adv-x="1024" />

    
    <glyph glyph-name="full-screen" unicode="&#59025;" d="M560.223 502.491l178.457 178.185-139.36 139.361 357.481 0 0-357.483-139.361 139.363-178.185-178.459-79.032 79.033zM560.223 243.886l178.458-178.185-139.361-139.362 357.481 0 0 357.482-139.361-139.362-178.185 178.458-79.032-79.031zM459.679 243.886l-178.457-178.185 139.362-139.362-357.483 0 0 357.482 139.362-139.362 178.185 178.458 79.031-79.031zM459.679 502.491l-178.457 178.185 139.362 139.361-357.483 0 0-357.483 139.362 139.362 178.185-178.458 79.031 79.033zM459.679 502.491z"  horiz-adv-x="1024" />

    
    <glyph glyph-name="tubiao15" unicode="&#58962;" d="M840.655667 703.881419c30.637211 0 55.523164-24.938145 55.523164-55.562052L896.178831 257.06915c0-30.561482-24.88493-55.373755-55.523164-55.373755l-136.680355 0c-35.389673 0-64.0252-28.626317-64.0252-63.938215 0 0 0-5.937507 0-15.249017-39.891412 32.374868-79.782825 64.811137-79.782825 64.811137-11.379711 9.313556-25.63505 14.376095-40.391833 14.376095l-336.448517 0c-30.574786 0-55.459716 24.812272-55.459716 55.373755L127.86722 648.319367c0 30.62493 24.88493 55.562052 55.459716 55.562052L840.655667 703.881419M840.655667 767.882058l-657.327708 0c-65.964458 0-119.48594-53.562416-119.48594-119.561668L63.84202 257.06915c0-65.874403 53.521481-119.374394 119.48594-119.374394l336.448517 0c0 0 139.181436-113.249613 158.064387-128.000256 8.87863-6.874901 15.256181-9.81193 19.508222-9.81193 4.752462 0 6.877971 3.750597 6.753122 9.81193-0.188297 11.375617-0.124849 128.000256-0.124849 128.000256l136.680355 0c66.089308 0 119.548365 53.499991 119.548365 119.374394L960.206078 648.319367C960.204031 714.319643 906.744975 767.882058 840.655667 767.882058L840.655667 767.882058zM752.120084 447.88193c0-26.56221-21.571306-47.999456-48.019923-47.999456-26.510019 0-48.019923 21.437247-48.019923 47.999456 0 26.563233 21.509905 47.999456 48.019923 47.999456C730.548778 495.881387 752.120084 474.44414 752.120084 447.88193zM560.042437 447.88193c0-26.56221-21.571306-47.999456-48.0189-47.999456-26.542766 0-48.019923 21.437247-48.019923 47.999456 0 26.563233 21.477157 47.999456 48.019923 47.999456C538.470108 495.881387 560.042437 474.44414 560.042437 447.88193zM367.96479 447.88193c0-26.56221-21.571306-47.999456-48.019923-47.999456-26.541743 0-48.0189 21.437247-48.0189 47.999456 0 26.563233 21.477157 47.999456 48.0189 47.999456C346.393484 495.881387 367.96479 474.44414 367.96479 447.88193z"  horiz-adv-x="1025" />

    
    <glyph glyph-name="shangchuanshipin" unicode="&#58932;" d="M961.014853 54.124294c9.256497 16.777401 17.355932 34.133333 24.876836 52.067797 26.033898 63.638418 38.761582 130.748023 38.183051 200.171751-3.471186 280.00904-232.569492 505.636158-512 505.636158-1.157062 0-2.892655 0-4.049718 0-137.690395-1.157062-266.702825-56.117514-362.738983-155.046328-96.036158-98.928814-147.525424-229.098305-145.211299-366.788701 2.314124-131.905085 55.538983-256.289266 149.261017-350.589831 93.722034-94.300565 218.106215-148.103955 349.432768-151.575141 4.049718 0 8.677966 0 12.727684 0 27.769492 0 55.538983 2.314124 82.151412 6.363842 57.853107 9.256497 112.813559 28.348023 163.724294 56.117514 26.612429-32.976271 67.109605-54.381921 112.813559-54.381921 79.837288 0 144.632768 64.79548 144.632768 144.632768C1014.818243-13.563842 993.991125 27.511864 961.014853 54.124294zM747.536887-135.055367c-48.59661-26.612429-101.242938-44.546893-156.20339-53.224859-30.083616-4.628249-61.324294-6.942373-91.986441-6.363842-264.967232 6.363842-476.709605 219.841808-481.916384 484.80904-2.314124 133.062147 47.439548 259.181921 140.00452 354.639548 93.143503 95.457627 217.527684 148.682486 350.589831 149.839548 1.157062 0 2.892655 0 4.049718 0 270.174011 0 491.751412-218.684746 494.644068-488.858757 0.578531-67.109605-11.570621-131.905085-36.447458-193.229379-6.942373-16.19887-14.463277-32.39774-23.141243-48.59661-21.984181 13.884746-48.018079 21.40565-76.366102 21.40565-79.837288 0-144.632768-64.79548-144.632768-144.632768C725.552707-87.037288 733.652142-113.071186 747.536887-135.055367zM973.742537-74.309605 892.169656-74.309605l0-91.40791-42.811299 0L849.358356-74.309605 766.628413-74.309605l0 39.918644 82.151412 0L848.779825 47.760452l42.811299 0 0-82.151412 82.151412 0L973.742537-74.309605zM589.019373 336.447458 337.936887 336.447458c-37.025989 0-66.531073-30.083616-66.531073-66.531073l0-129.012429C271.405814 103.877966 300.910899 73.79435 337.936887 73.79435l251.082486 0c37.025989 0 66.531073 30.083616 66.531073 66.531073L655.550447 269.916384C655.550447 306.363842 626.045362 336.447458 589.019373 336.447458zM361.07813 357.853107c53.80339 5.20678 97.771751 49.175141 102.978531 102.978531C470.999034 533.726554 410.253272 594.472316 337.358356 587.529944 283.554966 581.744633 240.165136 538.354802 234.379825 484.551412 227.437452 411.656497 288.183215 350.910734 361.07813 357.853107zM705.304119 484.551412c-5.20678 53.80339-49.175141 97.771751-102.978531 102.978531C529.430673 594.472316 468.68491 533.726554 476.205814 460.831638c5.20678-53.80339 49.175141-97.771751 102.978531-102.978531C651.500729 350.910734 712.246492 411.656497 705.304119 484.551412zM800.761746 317.355932l-107.60678-33.554802c-9.835028-2.892655-16.777401-12.149153-16.777401-22.562712l0-112.813559c0-9.835028 6.363842-19.091525 16.19887-21.984181l108.185311-33.554802L800.761746 317.355932z"  horiz-adv-x="1025" />

    
    <glyph glyph-name="warning" unicode="&#58941;" d="M511.99952 863.358195C247.26029375 863.358195 32.64228406 648.7392271900001 32.64228406 384c0-264.73922719 214.61800875-479.35723594 479.35723594-479.35723594 264.73922719 0 479.35723594 214.61800875 479.35723594 479.35723594C991.35771594 648.7392271900001 776.73970625 863.358195 511.99952 863.358195zM511.99952 109.72196063000001c-34.23342938 0-61.98453469 27.75110438-61.98453469 61.98453468s27.75110438 61.98453469 61.98453469 61.98453469 61.98453469-27.75110438 61.98453469-61.98453469S546.23295031 109.72196063000001 511.99952 109.72196063000001zM549.190625 322.22172562000003c0-16.28495906-13.20160969-33.71250281-29.48656781-33.71250281l-15.40811344 0c-16.28495906 0-29.48656781 17.42754375-29.48656781 33.71250281l-24.79342969 296.41023375c0 16.28495906 13.20160969 35.38944563 29.48656781 35.38944563l64.99593282 0c16.28495906 0 29.48656781-19.10544656 29.48656781-35.38944562L549.190625 322.22172562000003z"  horiz-adv-x="1024" />

    
    <glyph glyph-name="file-upload-3" unicode="&#58942;" d="M624.220874 647.404132c-5.580089 0-10.465352 1.954515-14.654768 5.860475-4.184299 3.90903-7.674796 8.654101-10.468422 14.238282-2.790556 5.584182-4.88424 11.304464-6.28003 17.168008-1.394766 5.860475-2.094708 10.748808-2.094708 14.654768L590.722946 803.170778l1.675152 0c4.468778 0 9.073656-0.699941 13.818727-2.094708 4.745071-1.394766 10.329253-4.045129 16.748453-7.954159 6.420223-3.910053 14.238282-9.629311 23.448038-17.169031 9.213849-7.534604 20.797675-17.447371 34.756595-29.727045 15.074324-13.399171 26.937512-24.847921 35.591613-34.337039 8.654101-9.493212 15.353686-17.448394 20.098757-23.867594 4.745071-6.420223 7.674796-11.864212 8.794293-16.328897 1.115404-4.469801 1.674129-8.374738 1.674129-11.724019l0-12.564154L624.220874 647.404132 624.220874 647.404132zM625.059985 593.8084699999999c-15.0733 0-28.193109 3.350304-39.361473 10.04989-11.164271 6.698562-20.37812 15.352663-27.637454 25.958208-7.254218 10.608615-12.559037 21.913079-15.908318 33.916461-3.350304 12.004405-5.025457 23.588231-5.025457 34.756595L537.127284 803.170778 216.381166 803.170778c-12.839423 0-25.12319-3.489474-36.84721-10.468422-11.724019-6.979972-22.053272-15.774265-30.986735-26.378787-8.934486-10.608615-16.188704-22.192442-21.772886-34.756595-5.584182-12.559037-8.374738-24.702612-8.374738-36.426631l0-571.145052c0-13.95892 3.629667-27.357068 10.889001-40.196491 7.254218-12.843516 16.328897-24.288173 27.216875-34.337039 10.884908-10.048867 22.608927-18.143219 35.172057-24.287149 12.56006-6.139837 24.143886-9.209756 34.752502-9.209756l296.458969 0c-12.839423 19.537985-22.88829 40.475853-30.147624 62.809511-7.258311 22.328541-10.887978 46.055942-10.887978 71.183226l0 12.56006c0 3.90903 0.279363 7.818059 0.839111 11.724019L275.840372 174.241672c-14.513552 0-26.937512 5.163603-37.265742 15.492856-10.329253 10.329253-15.493879 22.753213-15.493879 37.266765 0 14.518668 5.164626 26.798343 15.493879 36.84721 10.328229 10.048867 22.75219 15.0733 37.265742 15.0733l243.699348 0c21.217231 32.942273 49.130977 59.183937 83.747379 78.722946 34.612309 19.539009 72.858378 29.312606 114.730021 29.312606l15.0733 0c5.025457 0 9.769504-0.559748 14.238282-1.675152L747.328703 593.8084699999999 625.059985 593.8084699999999zM626.735138 399.516392c-10.048867-10.048867-22.332634-15.0733-36.84721-15.0733L275.840372 384.443092c-14.513552 0-26.937512 5.024433-37.265742 15.0733-10.329253 10.048867-15.493879 22.332634-15.493879 36.851303 0 14.513552 5.164626 26.937512 15.493879 37.266765 10.328229 10.32516 22.75219 15.488763 37.265742 15.488763l314.047556 0c14.514575 0 26.798343-5.163603 36.84721-15.488763 10.048867-10.329253 15.0733-22.753213 15.0733-37.266765C641.808438 421.849026 636.784004 409.565259 626.735138 399.516392zM891.37133 221.141842c-9.493212 22.328541-22.611997 41.871643-39.361473 58.620096-16.748453 16.748453-36.290531 29.867238-58.620096 39.361473-22.332634 9.489118-46.340421 14.234189-72.02336 14.234189-25.122167 0-48.850591-4.745071-71.183226-14.234189-22.332634-9.494235-41.871643-22.61302-58.620096-39.361473-16.748453-16.748453-30.011524-36.291554-39.781028-58.620096-9.769504-22.333658-14.654768-46.341445-14.654768-72.02336 0-25.682939 4.885264-49.690726 14.654768-72.019267 9.769504-22.332634 23.032576-41.875736 39.781028-58.624189 16.748453-16.748453 36.287461-29.868261 58.620096-39.361473 22.332634-9.489118 46.061059-14.234189 71.183226-14.234189 25.682939 0 49.690726 4.745071 72.02336 14.234189 22.329565 9.493212 41.871643 22.61302 58.620096 39.361473 16.749476 16.748453 29.868261 36.291554 39.361473 58.624189 9.490142 22.328541 14.234189 46.336328 14.234189 72.019267C905.605519 174.80039699999998 900.861472 198.80818399999998 891.37133 221.141842zM721.784934 258.052496l101.015671-99.556437-75.804477 0L746.996129 47.051874999999995c0-6.764054-2.742461-12.883425-7.179516-17.316387-4.437056-4.437056-10.556427-7.179516-17.316387-7.179516-13.521968 0-24.486694 10.964726-24.486694 24.495904L698.013531 158.49196600000005l-77.240175 0L721.784934 258.052496z"  horiz-adv-x="1024" />

    
    <glyph glyph-name="application-1" unicode="&#59003;" d="M420.000168 833.748191L86.522074 833.748191c-13.325493 0-23.754007-10.887978-23.754007-24.224728l0-333.720617c0-13.335726 10.428513-24.033369 23.754007-24.033369l333.477071 0c13.325493 0 23.720238 10.697643 23.721261 24.033369L443.720406 809.523463C443.721429 822.859189 433.326685 833.748191 420.000168 833.748191zM378.57264 516.458801L128.29241 516.458801c-2.000564 0-3.914146 1.600451-3.914146 3.560082L124.378264 765.308449c0 1.960655 1.913583 3.749394 3.914146 3.749394l250.28023 0c1.997494 0 3.53757-1.788739 3.53757-3.749394l0-245.289566 0.001023 0C382.110209 518.059252 380.570133 516.458801 378.57264 516.458801zM420.000168 316.228477L86.522074 316.228477c-13.325493 0-23.754007-10.864442-23.754007-24.199145l0-333.719594c0-13.33675 10.428513-24.058952 23.754007-24.058952l333.477071 0c13.325493 0 23.720238 10.722202 23.721261 24.058952L443.720406 292.02933199999995C443.721429 305.36403499999994 433.326685 316.228477 420.000168 316.228477zM378.57264-1.0588659999999663L128.29241-1.0588659999999663c-2.000564 0-3.914146 1.623987-3.914146 3.581572L124.378264 247.81636500000002c0 1.957585 1.913583 3.724835 3.914146 3.724835l250.28023 0c1.997494 0 3.53757-1.76725 3.53757-3.724835l0-245.293659 0.001023 0C382.110209 0.5651209999999764 380.570133-1.0588659999999663 378.57264-1.0588659999999663zM934.415171 316.228477L600.936053 316.228477c-13.32447 0-23.727401-10.864442-23.727401-24.199145l0-333.719594c0-13.33675 10.402931-24.058952 23.727401-24.058952L934.415171-65.74921400000005c13.325493 0 23.744797 10.722202 23.746844 24.058952L958.162014 292.02933199999995C958.162014 305.36403499999994 947.74271 316.228477 934.415171 316.228477zM896.550795 2.522705999999971c0-1.957585-1.564635-3.581572-3.564175-3.581572l-250.28023 0c-1.99954 0-3.889587 1.623987-3.889587 3.581572L638.816802 247.81636500000002c0 1.957585 1.890047 3.724835 3.889587 3.724835l250.28023 0c1.99954 0 3.564175-1.76725 3.564175-3.724835L896.550795 2.522705999999971zM934.415171 833.748191L600.936053 833.748191c-13.32447 0-23.727401-10.887978-23.727401-24.224728l0-333.720617c0-13.335726 10.402931-24.033369 23.727401-24.033369L934.415171 451.769476c13.325493 0 23.744797 10.697643 23.746844 24.033369L958.162014 809.523463C958.162014 822.859189 947.74271 833.748191 934.415171 833.748191zM896.550795 520.018883c0-1.960655-1.564635-3.560082-3.564175-3.560082l-250.28023 0c-1.99954 0-3.889587 1.600451-3.889587 3.560082L638.816802 765.308449c0 1.960655 1.890047 3.749394 3.889587 3.749394l250.28023 0c1.99954 0 3.564175-1.788739 3.564175-3.749394L896.550795 520.018883z"  horiz-adv-x="1024" />

    
    <glyph glyph-name="link" unicode="&#59160;" d="M779.95324 830.644503 243.954663 830.644503c-98.579179 0-178.665169-79.997985-178.665169-178.709171l0-535.9996c0-98.625228 80.08599-178.579211 178.665169-178.579211l535.998577 0c98.755188 0 178.75522 79.953983 178.75522 178.579211L958.70846 651.935332C958.70846 750.646518 878.708428 830.644503 779.95324 830.644503zM869.374852 160.602024c0-73.977875-60.021002-133.954875-133.998877-133.954875L288.623002 26.647149c-73.979922 0-133.912919 59.977-133.912919 133.954875L154.710083 607.268016c0 74.023924 59.932997 134.086881 133.912919 134.086881l446.752973 0c73.977875 0 133.998877-60.062957 133.998877-134.086881L869.374852 160.602024zM711.296557 682.948673c-18.319228 18.36323-48.067762 18.36323-66.474994 0L478.803435 516.801609c-18.319228-18.319228-18.319228-48.069809 0-66.433038l32.628118-32.584116-33.236985-33.236985-32.628118 32.670074c-18.321274 18.365276-48.069809 18.365276-66.477041 0L213.072305 251.069455c-18.319228-18.36323-18.319228-48.067762 0-66.430992l99.628068-99.584066c18.319228-18.36323 48.069809-18.36323 66.389036 0l166.191066 166.015058c18.319228 18.365276 18.319228 48.069809 0 66.433038l-34.110889 34.066887 33.236985 33.240055 34.024931-34.023908c18.319228-18.365276 48.067762-18.365276 66.389036 0l166.103062 166.016081c18.319228 18.36323 18.319228 48.069809 0 66.433038L711.296557 682.948673zM478.803435 251.069455l-99.714026-99.582019c-18.319228-18.36323-48.069809-18.36323-66.389036 0l-33.151028 33.151028c-18.407232 18.36323-18.407232 48.067762 0 66.430992l99.540064 99.716073c18.145266 18.146289 47.457872 18.146289 65.779146 0.391926l-15.965623-15.921621c-9.073656-9.115612-9.073656-23.947412 0-32.976042 9.071609-9.117658 23.903409-9.117658 32.976042 0l16.053628 16.095583 0.871857-0.873903C497.21169 299.13824 497.21169 269.434731 478.803435 251.069455zM744.535589 516.801609l-99.714026-99.584066c-18.321274-18.36323-48.069809-18.36323-66.389036 0l-0.785899 0.785899 16.051581 16.096607c9.159614 9.115612 9.159614 23.815405 0 32.976042-9.071609 9.115612-23.815405 9.115612-32.976042 0l-15.965623-16.009625c-17.71036 18.451234-17.622356 47.589878 0.523933 65.735144l99.540064 99.714026c18.407232 18.36323 48.155766 18.36323 66.474994 0l33.239032-33.280987C762.854816 564.870394 762.854816 535.164838 744.535589 516.801609z"  horiz-adv-x="1024" />

    
    <glyph glyph-name="fat-menu-unfold" unicode="&#59500;" d="M128 128l768 0 0-128-768 0 0 128ZM128 448l448 0 0-128-448 0 0 128ZM727.354 213.87300000000005l158.293 148.254c12.897 12.08 12.896 31.667 0 43.746L727.354 554.127C714.456 566.207 704 561.6759999999999 704 544.0029999999999l0-320.006C704 206.32500000000005 714.457 201.79399999999998 727.354 213.87300000000005zM128 768l768 0 0-128-768 0 0 128Z"  horiz-adv-x="1024" />

    
    <glyph glyph-name="fat-menu-fold" unicode="&#59501;" d="M128 128l768 0 0-128-768 0 0 128ZM296.646 213.87300000000005C309.543 201.79399999999998 320 206.32500000000005 320 223.99699999999996L320 544.0029999999999c0 17.673-10.456 22.204-23.354 10.124L138.354 405.873c-12.897-12.079-12.898-31.666 0-43.746L296.646 213.87300000000005zM128 768l768 0 0-128-768 0 0 128ZM448 448l448 0 0-128-448 0 0 128Z"  horiz-adv-x="1024" />

    
    <glyph glyph-name="xuanzhong1" unicode="&#58943;" d="M512.6210784 857.1800608c-262.50996693 0-475.3183616-212.8073024-475.3183616-475.3183616s212.80839467-475.32381867 475.3183616-475.32381867 475.32381867 212.81385173 475.32381867 475.32381867S775.13104533 857.1800608 512.6210784 857.1800608L512.6210784 857.1800608zM512.6210784-45.93050132999997c-236.26421013 0-427.78674347 191.5345408-427.78674347 427.7922016S276.35686933 809.64844267 512.6210784 809.64844267c236.258752 0 427.7922016-191.52799147 427.7922016-427.78674347S748.8787392-45.93050132999997 512.6210784-45.93050132999997L512.6210784-45.93050132999997zM251.1993632 381.8616992L251.1993632 381.8616992c0-144.3827744 117.04330667-261.42717227 261.4217152-261.42717227 144.3838656 0 261.42717227 117.04439893 261.42717227 261.42717227l0 0c0 144.37840747-117.04330667 261.4228064-261.42717227 261.4228064C368.24267093 643.2845056 251.1993632 526.24010773 251.1993632 381.8616992L251.1993632 381.8616992zM251.1993632 381.8616992"  horiz-adv-x="1024" />

    
    <glyph glyph-name="guifan" unicode="&#59150;" d="M702.763718 514.669174c10.530844-61.755506 64.289212-108.959597 129.002073-108.959597 72.241324 0 131.006729 58.765405 131.006729 131.006729s-58.765405 131.006729-131.006729 131.006729c-64.86124 0-118.711705-47.420009-129.067564-109.385293l-76.397994 0L626.300232 667.724059 407.955342 667.724059l0-109.385293-80.331583 0c-10.355859 61.965284-64.206324 109.385293-129.067564 109.385293-72.241324 0-131.006729-58.765405-131.006729-131.006729s58.765405-131.006729 131.006729-131.006729c64.712861 0 118.471229 47.203068 129.002073 108.959597l80.397075 0 0-40.137139c-126.597303-49.892317-207.427236-177.48325-207.427236-331.048765l-76.420507 0 0-240.179175 218.34489 0L342.452489 143.48327l-98.227162 0c0.465604 14.85022 1.683339 29.535687 3.650133 43.648103 15.151072 108.913549 74.29203 189.878558 160.079882 221.842551l0-25.311479 218.34489 0L626.300232 409.878526c97.213066-32.893154 159.232584-132.375913 163.736155-266.395256l-98.232279 0 0-240.179175 218.34489 0L910.148999 143.48327l-76.420507 0c0 15.565511-0.852414 31.280424-2.51631 46.696532-7.185656 65.801658-30.278607 128.99184-65.63179 178.780803-46.322002 53.67855-89.997734 86.971817-139.28016 105.956194l0 39.752376L702.763718 514.669174zM831.765791 624.054467c48.168046 0 87.338161-39.180348 87.338161-87.338161s-39.170115-87.338161-87.338161-87.338161-87.338161 39.180348-87.338161 87.338161S783.597745 624.054467 831.765791 624.054467zM198.556195 449.379169c-48.157813 0-87.338161 39.180348-87.338161 87.338161s39.180348 87.338161 87.338161 87.338161 87.338161-39.180348 87.338161-87.338161S246.712985 449.379169 198.556195 449.379169zM298.782897 99.814702l0-152.841014L167.776168-53.026312l0 152.841014L298.782897 99.814702zM581.266573 447.801231 455.718159 447.801231 455.718159 612.923966l125.548414 0L581.266573 447.801231zM866.479407 99.814702l0-152.841014L735.472678-53.026312l0 152.841014L866.479407 99.814702z"  horiz-adv-x="1024" />

    
    <glyph glyph-name="bars" unicode="&#59886;" d="M950.857155 128l0-73.142857q0-14.848-10.825143-25.746286t-25.746286-10.825143l-804.571429 0q-14.848 0-25.746286 10.825143t-10.825143 25.746286l0 73.142857q0 14.848 10.825143 25.746286t25.746286 10.825143l804.571429 0q14.848 0 25.746286-10.825143t10.825143-25.746286zM950.857155 420.571429l0-73.142857q0-14.848-10.825143-25.746286t-25.746286-10.825143l-804.571429 0q-14.848 0-25.746286 10.825143t-10.825143 25.746286l0 73.142857q0 14.848 10.825143 25.746286t25.746286 10.825143l804.571429 0q14.848 0 25.746286-10.825143t10.825143-25.746286zM950.857155 713.142857l0-73.142857q0-14.848-10.825143-25.746286t-25.746286-10.825143l-804.571429 0q-14.848 0-25.746286 10.825143t-10.825143 25.746286l0 73.142857q0 14.848 10.825143 25.746286t25.746286 10.825143l804.571429 0q14.848 0 25.746286-10.825143t10.825143-25.746286z"  horiz-adv-x="1024" />

    
    <glyph glyph-name="scaffold-store" unicode="&#58882;" d="M64.273862 215.60370899999998l0-111.931279 447.726138-167.896918 447.726138 167.896918L959.726138 215.60370899999998 512 47.70679099999995 64.273862 215.60370899999998zM64.273862 383.50165000000004l0-111.931279 447.726138-167.896918 447.726138 167.896918L959.726138 383.50165000000004 512 215.60370899999998 64.273862 383.50165000000004zM512 831.226764L64.273862 607.3642070000001l0-111.931279 447.726138-167.896918 447.726138 167.896918L959.726138 607.3642070000001 512 831.226764zM512 439.467289L176.205141 551.3985680000001l335.794859 167.896918L847.793836 551.3985680000001 512 439.467289z"  horiz-adv-x="1024" />

    
    <glyph glyph-name="angle-more" unicode="&#59058;" d="M991.607754 888.030491L31.527552-121.72610999999995l962.347848 2.373047L991.607754 888.030491 991.607754 888.030491zM991.607754 888.030491"  horiz-adv-x="1024" />

    
    <glyph glyph-name="scaffold" unicode="&#58959;" d="M410.460396 513.046075l0.527003 0 203.231681 0 0.500397 0 0.527003 0 25.210172 0L640.45665 774.681934 384.746758 774.681934l0-261.635859 25.210172 0L410.460396 513.046075 410.460396 513.046075zM238.624772 774.681934L238.624772 774.681934c-20.073174 0-36.271088 16.463973-36.271088 36.510542 0 19.810185 16.197914 36.036751 36.271088 36.036751L786.578636 847.229227c19.548218 0 35.747155-16.22759 35.747155-36.036751 0-20.046568-16.197914-36.510542-35.747155-36.510542L683.657568 774.681934l0-269.353634c1.820462-2.314719 3.609201-5.136997 4.6366-8.482185 2.818185-11.590989-4.109598-23.918759-15.700587-26.497491l-36.510542-9.775644 0-61.220317 25.210172 7.191796c11.828396 3.082198 23.657816-3.845585 27.000957-15.436574 2.818185-11.564383-4.109598-23.655769-15.700587-26.737968l-36.510542-9.79918 0-60.693314 25.210172 6.691399c11.828396 3.345188 23.657816-3.872191 27.000957-15.173584 2.818185-11.590989-4.109598-23.679305-15.700587-26.500561l-36.510542-10.036587 0-60.98291 25.210172 6.691399c11.828396 3.345188 23.657816-3.582595 27.000957-15.173584 2.818185-11.564383-4.109598-23.655769-15.700587-26.500561l-36.510542-9.773598 0-30.610158 25.710568 0c11.830443 0 21.86396-10.036587 21.86396-21.86396 0-6.164397-2.555196-10.800997-6.164397-15.170514l-0.527003-0.527003L527.761985-74.00013200000001c-8.482185-8.746198-22.36538-8.746198-30.347169 0L353.346607 69.54107499999998c-7.981788 1.554402-14.646582 7.218402-16.463973 15.436574-3.343141 11.830443 3.345188 23.685445 15.173584 26.764574l36.540218 9.773598 0 60.71992-25.212218-6.691399c-11.828396-2.581802-23.655769 4.109598-26.500561 15.936971-3.343141 10.800997 3.345188 23.155373 15.173584 26.240641l36.540218 9.770528 0 60.71992-25.212218-7.191796c-11.828396-2.581802-23.655769 4.372587-26.500561 15.936971-3.343141 11.827373 3.345188 23.655769 15.173584 26.500561l36.540218 10.036587L388.598482 394.188037l-25.212218-6.691399c-11.828396-3.319605-23.655769 3.609201-26.500561 15.20019-3.343141 11.564383 3.345188 23.658839 15.173584 26.500561l36.540218 10.009981 0 30.372751-25.712615 0c-12.091386 0-21.890566 9.509585-21.890566 21.86396l0 0.503467L340.996324 774.681934 238.624772 774.681934 238.624772 774.681934zM432.061366 450.798359L432.061366 450.798359l69.990051 18.782785-69.990051 0L432.061366 450.798359 432.061366 450.798359zM592.32749 448.74663L592.32749 448.74663l-160.266124-42.704614 0-61.246923 160.266124 43.228547L592.32749 448.74663 592.32749 448.74663zM592.32749 342.741317L592.32749 342.741317l-160.266124-42.701544 0-61.220317 160.266124 43.228547L592.32749 342.741317 592.32749 342.741317zM592.32749 237.26505399999996L592.32749 237.26505399999996l-160.266124-43.201941 0-60.71992 160.266124 42.701544L592.32749 237.26505399999996 592.32749 237.26505399999996zM592.32749 131.28839400000004L592.32749 131.28839400000004l-69.702502-18.782785 69.702502 0L592.32749 131.28839400000004 592.32749 131.28839400000004zM609.581456 69.04067799999996L609.581456 69.04067799999996 415.093926 69.04067799999996l96.994078-96.994078L609.581456 69.04067799999996 609.581456 69.04067799999996z"  horiz-adv-x="1024" />

    
    <glyph glyph-name="notification" unicode="&#59655;" d="M846.8 183.2c-9.5 9.5-14.9 22.4-14.9 35.9L831.9 429.5l0 0C831.1 605.5 688.1 748 511.9 748S192.7 605.5 191.9 429.5l0-213.7c0-11.4-4.5-22.3-12.6-30.4L118 123.9c-10.2-10.2-15.9-24-15.9-38.4l0-9.5c0-17.7 14.3-32 32-32L890 44c17.7 0 32 14.3 32 32l0 9.5c0 14.4-5.7 28.3-15.9 38.5L846.8 183.2zM192.3 107.9l50.6 50.6c8 8 12.6 18.9 12.6 30.3l0.4 240.5C256.6 570.2 371 684 511.9 684s255.3-113.9 256-254.6l0 0 0.4-237.4c0-13.4 5.4-26.3 14.8-35.8l48.4-48.4L192.3 107.8zM511-148c-74.7 0-137.5 51.4-155.1 120.7-5.1 19.9 9.9 39.3 30.5 39.3l1.1 0c14.5 0 26.9-10 30.6-24 4.2-16.4 12.8-31.4 25.2-43.8C461.4-74 485.5-84 511-84s49.6 10 67.8 28.2c12.4 12.4 20.9 27.4 25.2 43.8 3.6 14 16.1 24 30.6 24l1.1 0c20.6 0 35.5-19.4 30.5-39.3C648.5-96.6 585.7-148 511-148z"  horiz-adv-x="1024" />

    
    <glyph glyph-name="picture1" unicode="&#59917;" d="M896 684 128 684c-35.3 0-64-28.7-64-64l0-640c0-35.3 28.7-64 64-64l768 0c35.3 0 64 28.7 64 64L960 620C960 655.3 931.3 684 896 684zM896 588l0-563.3-252.7 247-125.6-88.5-169.2 203L128 39.6 128 588c0 17.7 14.3 32 32 32l704 0C881.7 620 896 605.7 896 588zM850.2-20 165.9-20l189.5 297.8 150.8-181 130.4 91.9L850.2-20zM672 364c53 0 96 43 96 96s-43 96-96 96-96-43-96-96S619 364 672 364zM672 492c17.7 0 32-14.3 32-32s-14.3-32-32-32-32 14.3-32 32S654.3 492 672 492z"  horiz-adv-x="1024" />

    
    <glyph glyph-name="save" unicode="&#59002;" d="M959.937-7.937c0-30.913-25.081-55.996-55.996-55.996L119.996-63.933C89.081-63.933 64-38.85 64-7.937l0 783.94C64 806.918 89.081 832 119.996 832l541.293 0c30.915 0 73.49-17.495 95.659-39.662l163.323-163.323c22.169-22.168 39.665-64.744 39.665-95.658L959.936-7.937zM885.273 10.73 885.273 533.356c0 11.079-9.916 34.998-17.494 42.583L703.874 739.843c-8.168 8.167-30.916 17.496-42.585 17.496l0-242.65c0-30.914-25.081-55.996-55.996-55.996L269.318 458.693c-30.915 0-55.996 25.082-55.996 55.996l0 242.65-74.662 0L138.66 10.73l74.662 0L213.322 253.374c0 30.917 25.081 55.996 55.996 55.996l485.3 0c30.913 0 55.996-25.079 55.996-55.996L810.614 10.73 885.273 10.73zM735.951 10.73 735.951 234.71 287.984 234.71 287.984 10.73 735.951 10.73zM586.629 738.672c0 9.918-8.748 18.667-18.666 18.667L455.971 757.339c-9.917 0-18.665-8.748-18.665-18.667l0-186.652c0-9.919 8.748-18.665 18.665-18.665l111.992 0c9.918 0 18.666 8.746 18.666 18.665L586.629 738.672z"  horiz-adv-x="1024" />

    
    <glyph glyph-name="file" unicode="&#58999;" d="M896.152 559.892l0-576.229c0-26.511-21.508-48.019-48.018-48.019L175.866-64.356c-26.511 0-48.019 21.508-48.019 48.019L127.847 783.981c0 26.511 21.508 48.019 48.019 48.019l448.179 0c26.512 0 63.527-15.508 82.031-34.013l156.064-156.064C880.645 623.418 896.152 586.403 896.152 559.892zM832.127 511.873L624.045 511.873c-26.512 0-48.02 21.508-48.02 48.019L576.025 767.975 191.873 767.975l0-768.306 640.254 0L832.127 511.873zM335.93 447.847l352.14 0c9.004 0 16.006-7.003 16.006-16.006l0-32.013c0-9.003-7.002-16.007-16.006-16.007L335.93 383.821c-9.003 0-16.006 7.003-16.006 16.007l0 32.013C319.924 440.844 326.927 447.847 335.93 447.847zM704.076 303.78999999999996l0-32.013c0-9.004-7.002-16.007-16.006-16.007L335.93 255.76999999999998c-9.003 0-16.006 7.003-16.006 16.007L319.924 303.78999999999996c0 9.003 7.003 16.006 16.006 16.006l352.14 0C697.074 319.79600000000005 704.076 312.793 704.076 303.78999999999996zM704.076 175.73800000000006l0-32.013c0-9.003-7.002-16.006-16.006-16.006L335.93 127.71900000000005c-9.003 0-16.006 7.003-16.006 16.006l0 32.013c0 9.004 7.003 16.007 16.006 16.007l352.14 0C697.074 191.745 704.076 184.74199999999996 704.076 175.73800000000006zM640.051 575.898l188.076 0c-3.002 8.505-7.502 17.009-11.002 20.511L660.563 752.971c-3.502 3.501-12.006 8-20.512 11.003L640.051 575.898z"  horiz-adv-x="1024" />

    
    <glyph glyph-name="zoom-in" unicode="&#59007;" d="M1009.152-27.327999999999975c19.776-19.328 19.648-50.816-0.256-70.272-19.712-19.52-51.84-19.52-71.616-0.128l-254.848 265.536c-162.944-137.856-408.32-131.776-561.92 19.072-161.216 157.952-160.512 414.784 1.536 573.568 161.856 158.912 423.744 159.616 584.896 1.536 150.144-147.2 159.744-380.224 29.312-539.84 3.584-2.24 7.168-4.992 11.136-8.768L1009.152-27.327999999999975 1009.152-27.327999999999975zM752 471.872c0 189.952-153.92 344-343.936 344S64 661.8240000000001 64 471.872c0-190.016 154.048-343.936 344.064-343.936S752 281.856 752 471.872L752 471.872zM621.376 445.056L434.624 445.056l0-186.432c0-19.264-15.616-34.88-34.816-34.88-19.264 0-34.944 15.616-34.944 34.88L364.864 445.056 179.008 445.056C159.68 445.056 144 460.608 144 480c0 19.264 15.68 34.944 35.008 34.944l185.856 0L364.864 700.928c0 19.328 15.68 34.944 34.944 34.944 19.2 0 34.816-15.616 34.816-34.944l0-185.984 186.752 0c19.264 0 34.88-15.68 34.88-34.944C656.256 460.608 640.64 445.056 621.376 445.056L621.376 445.056z"  horiz-adv-x="1024" />

    
    <glyph glyph-name="success" unicode="&#59159;" d="M510.810407 830.351837C264.970302 830.351837 65.679373 631.060909 65.679373 385.221828c0-245.830895 199.290929-445.121823 445.131033-445.121823s445.131033 199.290929 445.131033 445.121823C955.94144 631.060909 756.650511 830.351837 510.810407 830.351837L510.810407 830.351837 510.810407 830.351837zM778.913561 509.682467L470.905558 195.012741c-1.056052-1.578961-2.223644-3.079128-3.597945-4.474918-12.07399-12.260232-31.644721-12.260232-43.722804 0l-152.999626 155.348114c-12.063757 12.265348-12.063757 32.129768 0 44.364417 12.06785 12.261255 31.644721 12.261255 43.712571 0l130.685411-132.659369 290.203498 296.489668c12.082176 12.259208 31.643698 12.259208 43.721781 0 12.063757-12.264325 12.063757-32.133861 0-44.399209L778.913561 509.681444 778.913561 509.682467zM778.913561 509.682467"  horiz-adv-x="1024" />

    
    <glyph glyph-name="window" unicode="&#59340;" d="M992 864L272 864l0-240C184.82 624 32 624 32 624l0-720 720 0 0 240 240 0L992 864zM632 24L152 24 152 384l120 0 0-240 360 0C632 90.33000000000004 632 24 632 24zM872 264L392 264 392 624l480 0L872 264z"  horiz-adv-x="1024" />

    
    <glyph glyph-name="remove" unicode="&#59004;" d="M512 896c-282.77 0-512-229.23-512-512 0-282.771 229.23-512 512-512 282.771 0 512 229.229 512 512 0 282.77-229.229 512-512 512zM768 320h-512v128h512v-128z"  horiz-adv-x="1024" />

    
    <glyph glyph-name="xuanzhong2" unicode="&#58979;" d="M512 793.6c225.28 0 409.6-184.32 409.6-409.6S737.28-25.6 512-25.6 102.4 158.72 102.4 384 286.72 793.6 512 793.6M512 896C225.28 896 0 670.72 0 384s225.28-512 512-512 512 225.28 512 512S798.72 896 512 896L512 896zM512 384m-307.2 0a3 3 0 1 0 614.4 0 3 3 0 1 0-614.4 0Z"  horiz-adv-x="1024" />

    
    <glyph glyph-name="zhuxiao" unicode="&#59740;" d="M635.50129 719.680249l0-98.956779c109.037369-47.650253 185.253214-156.442028 185.253214-283.036261 0-170.508395-138.246621-308.757063-308.756039-308.757063s-308.756039 138.248667-308.756039 308.757063c0 126.594233 76.216869 235.384985 185.253214 283.036261l0 98.956779C227.255329 667.584754 110.616842 516.269489 110.616842 337.687208c0-221.676775 179.704848-401.38367 401.382647-401.38367 221.676775 0 401.382647 179.706895 401.382647 401.38367C913.382135 516.269489 796.743648 667.584754 635.50129 719.680249zM450.248076 831.696462l123.501802 0 0-463.133036-123.501802 0 0 463.133036Z"  horiz-adv-x="1024" />

    
    <glyph glyph-name="down-right-arrow" unicode="&#59011;" d="M992 594l-240-240-510 510-210-210 510-510-240-240 690 0 0 690z"  horiz-adv-x="1024" />

    
    <glyph glyph-name="folder-open" unicode="&#59129;" d="M832-64l192 512-832 0-192-512zM128 512l-128-576 0 832 288 0 128-128 416 0 0-128z"  horiz-adv-x="1024" />

    
    <glyph glyph-name="tree" unicode="&#59413;" d="M725.33333333 848l1e-8-16-208 0c-61.76000001 0-112-50.24-112-112.00000001l0-271.99999999-128 0 0 16c0 26.4-21.6 48-48 48l-160 0c-26.4 0-48-21.6-48-48l0-160c0-26.4 21.6-48 48-48l160 0c26.4 0 48 21.6 48 48l0 16 128 0 0-271.99999999c0-61.76000001 50.24-112 112-112.00000001l208 0-1e-8-16c0-26.4 21.6-48 48.00000001-48l160 0c26.4 0 48 21.6 48 48l0 160c0 26.4-21.6 48-48 48.00000001l-160 0c-26.4 0-48-21.6-48.00000001-48.00000001l0-16-191.99999998 0-1e-8 256 192 0 0-16c0-26.4 21.6-48 48-48l160 0c26.4 0 48 21.6 48 48l0 160c0 26.4-21.6 48-48 48l-160 0c-26.4 0-48-21.6-48-48l0-16-192 0 1e-8 256 191.99999998 0 0-16c0-26.4 21.6-48 48.00000001-48.00000001l160 0c26.4 0 48 21.6 48 48.00000001l0 160c0 26.4-21.6 48-48 48l-160 0c-26.4 0-48-21.6-48.00000001-48zM917.33333334 64l0-128-128 0 0 128 128 0zM917.33333334 448l0-128-128-1e-8 0 128.00000002 128-1e-8zM213.33333334 320l-128 0 0 128 128 0 0-128zM917.33333334 832l0-128-128 0 0 128 128 0z"  horiz-adv-x="1024" />

    
    <glyph glyph-name="danger" unicode="&#59456;" d="M512.019044 803.232l429.088-855.232-858.208 0 429.088 855.232zM512.019044 896c-22.08 0-44.128-14.88-60.896-44.64l-437.088-871.104c-33.472-59.52-4.992-108.256 63.296-108.256l869.312 0c68.288 0 96.8 48.704 63.296 108.256l0 0-437.088 871.104c-16.736 29.76-38.816 44.64-60.896 44.64l0 0zM576.019044 64c0-35.36-28.64-64-64-64s-64 28.64-64 64c0 35.36 28.64 64 64 64s64-28.64 64-64zM512.019044 192c-35.36 0-64 28.64-64 64l0 192c0 35.36 28.64 64 64 64s64-28.64 64-64l0-192c0-35.36-28.64-64-64-64z"  horiz-adv-x="1025" />

    
    </font>
</defs>
</svg>
