<svg xmlns="http://www.w3.org/2000/svg" xmlns:xlink="http://www.w3.org/1999/xlink" width="98.99" height="51.19" viewBox="0 0 98.99 51.19">
  <defs>
    <clipPath id="ff157d5e-0114-4e4b-be62-012a1f8e34ec">
      <path d="M59.81,24.29A10.17,10.17,0,0,0,63,31.89,10.48,10.48,0,0,0,70.64,35a11,11,0,0,0,5.53-1.42,10.32,10.32,0,0,0,4-3.91,10.65,10.65,0,0,0,1.36-4.14v0c0-.43.06-.88.06-1.33s0-.74-.06-1.11a10.26,10.26,0,0,0-1.36-4.31,11,11,0,0,0-18.91,0,11,11,0,0,0-1.42,5.5v0Zm18.11-5.07a9.69,9.69,0,0,1,1.28,4.93,9.9,9.9,0,0,1-1.28,5,9.38,9.38,0,0,1-3.54,3.51A9.58,9.58,0,0,1,69.45,34a9.58,9.58,0,0,1-9.64-9.67v0a9.83,9.83,0,0,1,1.28-5,9.76,9.76,0,0,1,8.36-4.9,10,10,0,0,1,8.48,4.85Z" style="fill: none;clip-rule: evenodd"/>
    </clipPath>
  </defs>
  <title>init</title>
  <g id="ae38a82c-b9ad-4e88-8dc7-08809805a3bb" data-name="tucen-02">
    <g id="5bd1e668-551a-462e-8e37-877333a603c1" data-name="tucen-01">
      <g id="32bf0241-0dac-4bcc-a6ad-fd2a54c5ac19" data-name="bainzu">
        <path d="M70.75,39.74a.6.6,0,0,1-.45-.2.71.71,0,0,1-.23-.51.7.7,0,0,1,.23-.48.64.64,0,0,1,.45-.17.79.79,0,0,1,.51.17.69.69,0,0,1-.51,1.19ZM70.36,51V42h.85v9Zm12.19,0V45.78c0-2.15-.77-3.23-2.32-3.23a2.65,2.65,0,0,0-2.1.94,3.4,3.4,0,0,0-.85,2.38V51h-.85V42h.85v1.64h0a3.3,3.3,0,0,1,3.09-1.87,2.65,2.65,0,0,1,2.21,1,4.22,4.22,0,0,1,.79,2.78V51Zm6.32-11.28a.66.66,0,0,1-.48-.2.68.68,0,0,1-.2-.51.66.66,0,0,1,.2-.48.72.72,0,0,1,.48-.17.77.77,0,0,1,.48.17.58.58,0,0,1,.2.48.68.68,0,0,1-.2.51.62.62,0,0,1-.48.2ZM88.44,51V42h.85v9Zm9.69-.11a2.8,2.8,0,0,1-1.19.28c-1.36,0-2-.79-2-2.38v-6H93.29V42h1.64V39.69l.82-.28V42h2.38v.77H95.75V48.7A2.33,2.33,0,0,0,96,50a1.16,1.16,0,0,0,1,.43,2.16,2.16,0,0,0,1.08-.34Z" style="fill: #036eb7"/>
        <path d="M11.4,12.73l10.69,22.9H19.62L16,28.09H6.12L2.55,35.63H0l10.8-22.9Zm-.28,4.79L7.17,25.85H15Z" style="fill: #036eb7"/>
        <polygon points="26.36 35.63 29.54 12.73 30.02 12.73 39.34 31.49 48.59 12.73 48.95 12.73 52.24 35.63 50.03 35.63 47.73 19.22 39.6 35.63 39.01 35.63 30.81 19.11 28.63 35.63 26.36 35.63" style="fill: #036eb7"/>
        <path d="M69.34,12.16A11.77,11.77,0,0,1,78,15.62a11.51,11.51,0,0,1,3.51,8.53,12,12,0,0,1-12,12,11.67,11.67,0,0,1-8.59-3.49,11.52,11.52,0,0,1-3.51-8.45A12.21,12.21,0,0,1,59,18.14a11.34,11.34,0,0,1,4.34-4.39,11.57,11.57,0,0,1,6-1.59Zm.11,2.21a9.76,9.76,0,0,0-8.36,4.9,9.83,9.83,0,0,0-1.28,5A9.58,9.58,0,0,0,69.45,34a9.58,9.58,0,0,0,4.93-1.3,9.38,9.38,0,0,0,3.54-3.51,9.9,9.9,0,0,0,1.28-5,9.77,9.77,0,0,0-9.75-9.78Z" style="fill: #036eb7;fill-rule: evenodd"/>
        <path d="M85.55,31.32l2-1.16c1.36,2.52,2.95,3.8,4.73,3.8a4.45,4.45,0,0,0,2.18-.54A3.6,3.6,0,0,0,96,32a3.51,3.51,0,0,0,.54-1.9,3.81,3.81,0,0,0-.79-2.27,17.91,17.91,0,0,0-3.91-3.66A18.7,18.7,0,0,1,88.21,21,5.62,5.62,0,0,1,87,17.52a5.27,5.27,0,0,1,.71-2.72,5,5,0,0,1,2-1.93,5.58,5.58,0,0,1,2.81-.71,6.09,6.09,0,0,1,3.06.79,10.3,10.3,0,0,1,3,2.95l-1.87,1.42a8.36,8.36,0,0,0-2.21-2.27,3.8,3.8,0,0,0-2-.54,3.3,3.3,0,0,0-2.3.82,2.84,2.84,0,0,0-.88,2.1,3.79,3.79,0,0,0,.31,1.45,5.34,5.34,0,0,0,1.13,1.5q.47.43,3,2.3a17.79,17.79,0,0,1,4.11,3.91A6.29,6.29,0,0,1,99,30a5.89,5.89,0,0,1-1.9,4.34,6.44,6.44,0,0,1-4.62,1.84,6.56,6.56,0,0,1-3.77-1.13,10.17,10.17,0,0,1-3.15-3.74Z" style="fill: #036eb7"/>
        <path d="M36,10a24,24,0,0,1,6.38-4.79A28,28,0,0,1,56.66,1.36,27.63,27.63,0,0,1,76.59,9.58h0C71.06,3.74,62.62,0,53.12,0,43.4,0,34.78,3.91,29.28,10Z" style="fill: #036eb7;fill-rule: evenodd"/>
        <path d="M56.66,49.58a27.18,27.18,0,0,1-22.34-11.2H27.21c5.24,7.51,14.88,12.53,25.91,12.53,4,0,11.28-1,14.6-3.54a28.5,28.5,0,0,1-11.06,2.21Z" style="fill: #036eb7;fill-rule: evenodd"/>
        <path d="M64.18,41.84A18.82,18.82,0,0,1,55.33,44a22.45,22.45,0,0,1-9.69-2.18h0a19.49,19.49,0,0,0,22.08,0Z" style="fill: #ff6e00;fill-rule: evenodd"/>
        <g style="clip-path: url(#ff157d5e-0114-4e4b-be62-012a1f8e34ec)">
          <polygon points="81.38 34.98 59.61 34.98 59.95 13.38 81.72 13.38 81.38 34.98" style="fill: #ff6e00;fill-rule: evenodd"/>
          <path d="M65.68,24.92a.09.09,0,0,0,.09.09.09.09,0,1,0,0-.17.09.09,0,0,0-.09.09Z" style="fill-rule: evenodd"/>
          <path d="M65.71,24.92a.06.06,0,1,1,.06.06.06.06,0,0,1-.06-.06Zm-.06,0a.11.11,0,0,0,.11.14.14.14,0,1,0,0-.28.13.13,0,0,0-.11.14Z" style="fill: #010000;fill-rule: evenodd"/>
          <path d="M65.65,24.92c0-.06.06-.11.11-.11a.11.11,0,1,1-.11.11Zm-.06,0c0,.11.06.2.17.2a.2.2,0,0,0,0-.4.19.19,0,0,0-.17.2Z" style="fill: #020100;fill-rule: evenodd"/>
          <path d="M65.62,24.92c0-.11.06-.17.14-.17a.15.15,0,0,1,.17.17.18.18,0,0,1-.17.17.16.16,0,0,1-.14-.17Zm-.09,0a.23.23,0,0,0,.23.26.26.26,0,1,0,0-.51.25.25,0,0,0-.23.26Z" style="fill: #020100;fill-rule: evenodd"/>
          <path d="M65.57,24.92a.2.2,0,0,1,.2-.23.21.21,0,0,1,.23.23.24.24,0,0,1-.23.23.22.22,0,0,1-.2-.23Zm-.09,0a.29.29,0,0,0,.28.31.31.31,0,1,0,0-.62.31.31,0,0,0-.28.31Z" style="fill: #030100;fill-rule: evenodd"/>
          <path d="M65.51,24.92a.26.26,0,0,1,.26-.28.27.27,0,0,1,.28.28.28.28,0,0,1-.28.28.26.26,0,0,1-.26-.28Zm-.09,0a.35.35,0,0,0,.34.37.37.37,0,1,0,0-.74.37.37,0,0,0-.34.37Z" style="fill: #040200;fill-rule: evenodd"/>
          <path d="M65.45,24.92a.32.32,0,0,1,.31-.34.33.33,0,0,1,.34.34.34.34,0,0,1-.34.34.32.32,0,0,1-.31-.34Zm-.09,0a.41.41,0,0,0,.4.43.46.46,0,0,0,.43-.43.41.41,0,1,0-.82,0Z" style="fill: #050200;fill-rule: evenodd"/>
          <path d="M65.4,24.92a.38.38,0,0,1,.37-.4.39.39,0,0,1,.4.4.43.43,0,0,1-.4.4.38.38,0,0,1-.37-.4Zm-.09,0a.46.46,0,1,0,.48-.51.5.5,0,0,0-.48.51Z" style="fill: #050200;fill-rule: evenodd"/>
          <path d="M65.34,24.92a.44.44,0,1,1,.88,0,.49.49,0,0,1-.45.45.44.44,0,0,1-.43-.45Zm-.09,0a.51.51,0,1,0,1,0,.5.5,0,0,0-.48-.57.56.56,0,0,0-.54.57Z" style="fill: #060300;fill-rule: evenodd"/>
          <path d="M65.28,24.92a.53.53,0,0,1,.51-.54.49.49,0,0,1,.45.54.48.48,0,1,1-1,0Zm-.09,0a.57.57,0,1,0,.6-.62.62.62,0,0,0-.6.62Z" style="fill: #070300;fill-rule: evenodd"/>
          <path d="M65.23,24.92a.59.59,0,0,1,.57-.6.58.58,0,0,1,0,1.16.54.54,0,0,1-.54-.57Zm-.09,0a.63.63,0,1,0,1.25,0,.64.64,0,0,0-.6-.68.71.71,0,0,0-.65.68Z" style="fill: #080300;fill-rule: evenodd"/>
          <path d="M65.17,24.92a.65.65,0,0,1,.62-.65.64.64,0,1,1-.62.65Zm-.09,0a.68.68,0,1,0,1.36,0,.7.7,0,0,0-.65-.74.77.77,0,0,0-.71.74Z" style="fill: #080400;fill-rule: evenodd"/>
          <path d="M65.11,24.92a.72.72,0,0,1,.68-.71.71.71,0,1,1-.68.71Zm-.06,0a.74.74,0,0,0,.71.79.78.78,0,0,0,.74-.79.73.73,0,1,0-1.45,0Z" style="fill: #090400;fill-rule: evenodd"/>
          <path d="M65.08,24.92a.7.7,0,1,1,.68.77.69.69,0,0,1-.68-.77Zm-.09,0a.8.8,0,0,0,.77.85.84.84,0,0,0,.79-.85.78.78,0,1,0-1.56,0Z" style="fill: #0a0400;fill-rule: evenodd"/>
          <path d="M65,24.92a.75.75,0,1,1,.74.82.75.75,0,0,1-.74-.82Zm-.09,0a.84.84,0,0,0,.82.91.9.9,0,0,0,.85-.91.84.84,0,1,0-1.67,0Z" style="fill: #0b0500;fill-rule: evenodd"/>
          <path d="M65,24.92a.85.85,0,0,1,.82-.88.83.83,0,0,1,.79.88.85.85,0,0,1-.82.88.81.81,0,0,1-.79-.88Zm-.09,0a.9.9,0,0,0,.88,1,1,1,0,0,0,.91-1,.9.9,0,1,0-1.79,0Z" style="fill: #0c0500;fill-rule: evenodd"/>
          <path d="M64.91,24.92a.91.91,0,0,1,.88-.94.89.89,0,0,1,.85.94.93.93,0,0,1-.88.94.89.89,0,0,1-.85-.94Zm-.09,0a1,1,0,0,0,.94,1,1,1,0,0,0,1-1,1,1,0,1,0-1.9,0Z" style="fill: #0c0500;fill-rule: evenodd"/>
          <path d="M64.86,24.92a1,1,0,0,1,.94-1,1,1,0,0,1,.91,1,1,1,0,0,1-.94,1,1,1,0,0,1-.91-1Zm-.09,0a1,1,0,0,0,1,1.08,1.09,1.09,0,0,0,1-1.08,1,1,0,1,0-2,0Z" style="fill: #0d0600;fill-rule: evenodd"/>
          <path d="M64.8,24.92a1,1,0,0,1,1-1,1,1,0,0,1,1,1,1.06,1.06,0,0,1-1,1,1,1,0,0,1-1-1Zm-.09,0a1.09,1.09,0,0,0,1,1.13,1.1,1.1,0,0,0,1-1.13,1.06,1.06,0,0,0-1-1.13,1.11,1.11,0,0,0-1.08,1.13Z" style="fill: #0e0600;fill-rule: evenodd"/>
          <path d="M64.74,24.92a1.08,1.08,0,0,1,1-1.11,1,1,0,0,1,1,1.11,1,1,0,1,1-2,0Zm-.09,0a1.15,1.15,0,0,0,1.11,1.19,1.16,1.16,0,0,0,1.11-1.19,1.12,1.12,0,0,0-1.08-1.19,1.19,1.19,0,0,0-1.13,1.19Z" style="fill: #0f0600;fill-rule: evenodd"/>
          <path d="M64.69,24.92a1.16,1.16,0,0,1,1.11-1.16,1.08,1.08,0,0,1,1,1.16,1.08,1.08,0,1,1-2.15,0Zm-.09,0a1.21,1.21,0,0,0,1.16,1.25,1.22,1.22,0,0,0,1.16-1.25,1.17,1.17,0,0,0-1.13-1.25,1.23,1.23,0,0,0-1.19,1.25Z" style="fill: #0f0700;fill-rule: evenodd"/>
          <path d="M64.63,24.92a1.22,1.22,0,0,1,1.16-1.22,1.14,1.14,0,0,1,1.11,1.22,1.14,1.14,0,1,1-2.27,0Zm-.09,0a1.27,1.27,0,0,0,1.22,1.3A1.29,1.29,0,0,0,67,24.92a1.21,1.21,0,0,0-1.19-1.3,1.29,1.29,0,0,0-1.25,1.3Z" style="fill: #100700;fill-rule: evenodd"/>
          <path d="M64.57,24.92a1.28,1.28,0,0,1,1.22-1.28A1.2,1.2,0,0,1,67,24.92a1.24,1.24,0,0,1-1.19,1.28,1.22,1.22,0,0,1-1.19-1.28Zm-.06,0a1.27,1.27,0,0,0,1.25,1.36A1.33,1.33,0,0,0,67,24.92a1.29,1.29,0,0,0-1.25-1.36,1.31,1.31,0,0,0-1.28,1.36Z" style="fill: #110700;fill-rule: evenodd"/>
          <path d="M64.52,24.92a1.34,1.34,0,0,1,1.28-1.33A1.27,1.27,0,0,1,67,24.92a1.3,1.3,0,0,1-1.25,1.33,1.28,1.28,0,0,1-1.25-1.33Zm-.06,0a1.33,1.33,0,0,0,1.3,1.42,1.39,1.39,0,0,0,1.33-1.42,1.35,1.35,0,0,0-1.3-1.42,1.37,1.37,0,0,0-1.33,1.42Z" style="fill: #120800;fill-rule: evenodd"/>
          <path d="M64.49,24.92a1.36,1.36,0,0,1,1.3-1.39,1.33,1.33,0,0,1,1.28,1.39,1.36,1.36,0,0,1-1.3,1.39,1.3,1.3,0,0,1-1.28-1.39Zm-.09,0a1.38,1.38,0,0,0,1.33,1.47,1.47,1.47,0,0,0,1.42-1.47,1.41,1.41,0,0,0-1.36-1.47,1.43,1.43,0,0,0-1.39,1.47Z" style="fill: #120800;fill-rule: evenodd"/>
          <path d="M64.43,24.92a1.42,1.42,0,0,1,1.36-1.45,1.39,1.39,0,0,1,1.33,1.45,1.44,1.44,0,0,1-1.39,1.45,1.35,1.35,0,0,1-1.3-1.45Zm-.09,0a1.44,1.44,0,0,0,1.39,1.53,1.53,1.53,0,0,0,1.47-1.53,1.49,1.49,0,0,0-1.42-1.56,1.52,1.52,0,0,0-1.45,1.56Z" style="fill: #130800;fill-rule: evenodd"/>
          <path d="M64.37,24.92a1.49,1.49,0,0,1,1.42-1.53,1.46,1.46,0,0,1,1.39,1.53,1.5,1.5,0,0,1-1.45,1.5,1.41,1.41,0,0,1-1.36-1.5Zm-.09,0a1.49,1.49,0,0,0,1.45,1.59,1.59,1.59,0,0,0,1.53-1.59,1.55,1.55,0,0,0-1.47-1.62,1.58,1.58,0,0,0-1.5,1.62Z" style="fill: #140900;fill-rule: evenodd"/>
          <path d="M64.32,24.92a1.55,1.55,0,0,1,1.47-1.59,1.5,1.5,0,0,1,1.45,1.59,1.54,1.54,0,0,1-1.5,1.56,1.46,1.46,0,0,1-1.42-1.56Zm-.09,0a1.57,1.57,0,0,0,1.5,1.64,1.65,1.65,0,0,0,1.59-1.64,1.61,1.61,0,0,0-1.53-1.67,1.64,1.64,0,0,0-1.56,1.67Z" style="fill: #150900;fill-rule: evenodd"/>
          <path d="M64.26,24.92a1.61,1.61,0,0,1,1.53-1.64,1.57,1.57,0,0,1,1.5,1.64,1.6,1.6,0,0,1-1.56,1.62,1.52,1.52,0,0,1-1.47-1.62Zm-.09,0a1.63,1.63,0,0,0,1.56,1.7,1.65,1.65,0,0,0,1.62-1.7,1.62,1.62,0,0,0-1.56-1.73,1.7,1.7,0,0,0-1.62,1.73Z" style="fill: #160900;fill-rule: evenodd"/>
          <path d="M64.2,24.92a1.69,1.69,0,0,1,1.59-1.7,1.63,1.63,0,0,1,1.56,1.7,1.66,1.66,0,0,1-1.62,1.67,1.6,1.6,0,0,1-1.53-1.67Zm-.09,0a1.71,1.71,0,0,0,1.62,1.79,1.74,1.74,0,0,0,1.67-1.79,1.68,1.68,0,0,0-1.62-1.79,1.76,1.76,0,0,0-1.67,1.79Z" style="fill: #160a00;fill-rule: evenodd"/>
          <path d="M64.15,24.92a1.75,1.75,0,0,1,1.64-1.76,1.65,1.65,0,0,1,1.59,1.76,1.71,1.71,0,0,1-1.64,1.76,1.68,1.68,0,0,1-1.59-1.76Zm-.09,0a1.75,1.75,0,0,0,1.67,1.84,1.8,1.8,0,0,0,1.73-1.84,1.74,1.74,0,0,0-1.67-1.84,1.82,1.82,0,0,0-1.73,1.84Z" style="fill: #170a00;fill-rule: evenodd"/>
          <path d="M64.09,24.92a1.81,1.81,0,0,1,1.7-1.81,1.71,1.71,0,0,1,1.64,1.81,1.77,1.77,0,0,1-1.7,1.81,1.74,1.74,0,0,1-1.64-1.81Zm-.09,0a1.81,1.81,0,0,0,1.73,1.9,1.86,1.86,0,0,0,1.79-1.9A1.8,1.8,0,0,0,65.79,23,1.88,1.88,0,0,0,64,24.92Z" style="fill: #180a00;fill-rule: evenodd"/>
          <path d="M64,24.92A1.87,1.87,0,0,1,65.79,23a1.77,1.77,0,0,1,1.7,1.87,1.83,1.83,0,0,1-1.76,1.87A1.8,1.8,0,0,1,64,24.92Zm-.09,0a1.87,1.87,0,0,0,1.79,2,1.94,1.94,0,0,0,1.84-2,1.84,1.84,0,0,0-1.79-2,1.94,1.94,0,0,0-1.84,2Z" style="fill: #190b00;fill-rule: evenodd"/>
          <path d="M64,24.92A1.91,1.91,0,0,1,65.79,23a1.81,1.81,0,0,1,1.76,1.93,1.89,1.89,0,0,1-1.81,1.93A1.86,1.86,0,0,1,64,24.92Zm-.06,0a1.89,1.89,0,0,0,1.81,2,2,2,0,0,0,1.9-2,1.9,1.9,0,0,0-1.84-2,2,2,0,0,0-1.87,2Z" style="fill: #190b00;fill-rule: evenodd"/>
          <path d="M63.95,24.92a1.93,1.93,0,0,1,1.84-2,1.87,1.87,0,0,1,1.81,2,2,2,0,0,1-1.87,2,1.86,1.86,0,0,1-1.79-2Zm-.09,0A2,2,0,0,0,65.74,27a2,2,0,0,0,2-2.07,2,2,0,0,0-1.9-2.07,2,2,0,0,0-1.93,2.07Z" style="fill: #1a0b00;fill-rule: evenodd"/>
          <path d="M63.89,24.92a2,2,0,0,1,1.9-2,1.93,1.93,0,0,1,1.87,2,2,2,0,0,1-1.93,2,1.91,1.91,0,0,1-1.84-2Zm-.09,0A2,2,0,0,0,65.74,27a2.1,2.1,0,0,0,2-2.13,2,2,0,0,0-2-2.13,2.06,2.06,0,0,0-2,2.13Z" style="fill: #1b0c00;fill-rule: evenodd"/>
          <path d="M63.84,24.92a2,2,0,0,1,2-2.1,2,2,0,0,1,1.93,2.1,2.07,2.07,0,0,1-2,2.1,2,2,0,0,1-1.9-2.1Zm-.09,0a2.08,2.08,0,0,0,2,2.18,2.16,2.16,0,0,0,2.07-2.18,2.08,2.08,0,0,0-2-2.18,2.14,2.14,0,0,0-2,2.18Z" style="fill: #1c0c00;fill-rule: evenodd"/>
          <path d="M63.78,24.92a2.11,2.11,0,0,1,2-2.15,2.07,2.07,0,0,1,2,2.15,2.13,2.13,0,0,1-2,2.15,2,2,0,0,1-2-2.15Zm-.09,0a2.12,2.12,0,0,0,2,2.24,2.2,2.2,0,0,0,2.13-2.24,2.14,2.14,0,0,0-2.07-2.24,2.2,2.2,0,0,0-2.1,2.24Z" style="fill: #1c0c00;fill-rule: evenodd"/>
          <path d="M63.72,24.92a2.17,2.17,0,0,1,2.07-2.21,2.13,2.13,0,0,1,2,2.21,2.19,2.19,0,0,1-2.1,2.21,2.09,2.09,0,0,1-2-2.21Zm-.09,0a2.16,2.16,0,0,0,2.1,2.3,2.22,2.22,0,0,0,2.15-2.3,2.16,2.16,0,0,0-2.07-2.3,2.27,2.27,0,0,0-2.18,2.3Z" style="fill: #1d0d00;fill-rule: evenodd"/>
          <path d="M63.67,24.92a2.23,2.23,0,0,1,2.13-2.27,2.17,2.17,0,0,1,2.1,2.27,2.25,2.25,0,0,1-2.15,2.27,2.15,2.15,0,0,1-2.07-2.27Zm-.09,0a2.22,2.22,0,0,0,2.15,2.35,2.28,2.28,0,0,0,2.21-2.35,2.22,2.22,0,0,0-2.13-2.35,2.33,2.33,0,0,0-2.24,2.35Z" style="fill: #1e0d00;fill-rule: evenodd"/>
          <path d="M63.61,24.92a2.28,2.28,0,0,1,2.21-2.32,2.19,2.19,0,0,1,2.1,2.32,2.27,2.27,0,0,1-2.18,2.32,2.21,2.21,0,0,1-2.13-2.32Zm-.09,0a2.3,2.3,0,0,0,2.21,2.41A2.34,2.34,0,0,0,68,24.92a2.28,2.28,0,0,0-2.18-2.41,2.39,2.39,0,0,0-2.3,2.41Z" style="fill: #1f0d00;fill-rule: evenodd"/>
          <path d="M63.55,24.92a2.34,2.34,0,0,1,2.27-2.38A2.23,2.23,0,0,1,68,24.92a2.33,2.33,0,0,1-2.24,2.38,2.27,2.27,0,0,1-2.18-2.38Zm-.09,0a2.36,2.36,0,0,0,2.27,2.47,2.42,2.42,0,0,0,2.32-2.47,2.34,2.34,0,0,0-2.24-2.47,2.45,2.45,0,0,0-2.35,2.47Z" style="fill: #200e00;fill-rule: evenodd"/>
          <path d="M63.5,24.92a2.4,2.4,0,0,1,2.32-2.44A2.29,2.29,0,0,1,68,24.92a2.37,2.37,0,0,1-2.3,2.44,2.33,2.33,0,0,1-2.24-2.44Zm-.09,0a2.42,2.42,0,0,0,2.32,2.52,2.48,2.48,0,0,0,2.38-2.52,2.4,2.4,0,0,0-2.3-2.52,2.51,2.51,0,0,0-2.41,2.52Z" style="fill: #200e00;fill-rule: evenodd"/>
          <path d="M63.44,24.92a2.46,2.46,0,0,1,2.38-2.49,2.35,2.35,0,0,1,2.27,2.49,2.45,2.45,0,0,1-2.35,2.49,2.39,2.39,0,0,1-2.3-2.49Zm-.06,0a2.44,2.44,0,0,0,2.35,2.58,2.54,2.54,0,0,0,2.44-2.58,2.47,2.47,0,0,0-2.35-2.61,2.53,2.53,0,0,0-2.44,2.61Z" style="fill: #210e00;fill-rule: evenodd"/>
          <path d="M63.38,24.92a2.5,2.5,0,0,1,2.44-2.55,2.41,2.41,0,0,1,2.32,2.55,2.51,2.51,0,0,1-2.41,2.55,2.45,2.45,0,0,1-2.35-2.55Zm-.06,0a2.5,2.5,0,0,0,2.41,2.64,2.59,2.59,0,0,0,2.49-2.64,2.51,2.51,0,0,0-2.41-2.66,2.59,2.59,0,0,0-2.49,2.66Z" style="fill: #220f00;fill-rule: evenodd"/>
          <path d="M63.35,24.92a2.56,2.56,0,0,1,2.47-2.64,2.5,2.5,0,0,1,2.38,2.64,2.57,2.57,0,0,1-2.47,2.61,2.47,2.47,0,0,1-2.38-2.61Zm-.09,0a2.54,2.54,0,0,0,2.47,2.69,2.65,2.65,0,0,0,2.55-2.69,2.57,2.57,0,0,0-2.47-2.72,2.67,2.67,0,0,0-2.55,2.72Z" style="fill: #230f00;fill-rule: evenodd"/>
          <path d="M63.3,24.92a2.62,2.62,0,0,1,2.52-2.69,2.56,2.56,0,0,1,2.44,2.69,2.64,2.64,0,0,1-2.52,2.66,2.51,2.51,0,0,1-2.44-2.66Zm-.09,0a2.6,2.6,0,0,0,2.52,2.75,2.71,2.71,0,0,0,2.61-2.75,2.63,2.63,0,0,0-2.52-2.78,2.73,2.73,0,0,0-2.61,2.78Z" style="fill: #230f00;fill-rule: evenodd"/>
          <path d="M63.24,24.92a2.7,2.7,0,0,1,2.58-2.75,2.62,2.62,0,0,1,2.49,2.75,2.7,2.7,0,0,1-2.58,2.72,2.57,2.57,0,0,1-2.49-2.72Zm-.09,0a2.69,2.69,0,0,0,2.58,2.83,2.79,2.79,0,0,0,2.66-2.83,2.71,2.71,0,0,0-2.58-2.83,2.79,2.79,0,0,0-2.66,2.83Z" style="fill: #241000;fill-rule: evenodd"/>
          <path d="M63.18,24.92a2.74,2.74,0,0,1,2.64-2.81,2.66,2.66,0,0,1,2.55,2.81,2.74,2.74,0,0,1-2.64,2.78,2.63,2.63,0,0,1-2.55-2.78Zm-.09,0a2.75,2.75,0,0,0,2.64,2.89,2.85,2.85,0,0,0,2.72-2.89A2.77,2.77,0,0,0,65.82,22a2.85,2.85,0,0,0-2.72,2.89Z" style="fill: #251000;fill-rule: evenodd"/>
          <path d="M63.13,24.92a2.81,2.81,0,0,1,2.69-2.86,2.74,2.74,0,0,1,2.61,2.86,2.82,2.82,0,0,1-2.69,2.86,2.72,2.72,0,0,1-2.61-2.86Zm-.09,0a2.81,2.81,0,0,0,2.69,2.95,2.87,2.87,0,0,0,2.75-2.95A2.79,2.79,0,0,0,65.82,22,2.92,2.92,0,0,0,63,24.92Z" style="fill: #261000;fill-rule: evenodd"/>
          <path d="M63.07,24.92A2.87,2.87,0,0,1,65.82,22a2.76,2.76,0,0,1,2.64,2.92,2.84,2.84,0,0,1-2.72,2.92,2.76,2.76,0,0,1-2.66-2.92Zm-.09,0a2.87,2.87,0,0,0,2.75,3,3,3,0,0,0,2.81-3,2.83,2.83,0,0,0-2.72-3,3,3,0,0,0-2.83,3Z" style="fill: #261100;fill-rule: evenodd"/>
          <path d="M63,24.92a2.93,2.93,0,0,1,2.81-3,2.8,2.8,0,0,1,2.69,3,2.9,2.9,0,0,1-2.78,3,2.82,2.82,0,0,1-2.72-3Zm-.09,0A2.91,2.91,0,0,0,65.74,28a3,3,0,0,0,2.86-3.06,2.89,2.89,0,0,0-2.78-3.06,3,3,0,0,0-2.89,3.06Z" style="fill: #271100;fill-rule: evenodd"/>
          <path d="M63,24.92a3,3,0,0,1,2.86-3,2.86,2.86,0,0,1,2.75,3,3,3,0,0,1-2.83,3,2.88,2.88,0,0,1-2.78-3Zm-.09,0A3,3,0,0,0,65.74,28a3.05,3.05,0,0,0,2.92-3.12,3,3,0,0,0-2.83-3.12,3.08,3.08,0,0,0-2.95,3.12Z" style="fill: #281100;fill-rule: evenodd"/>
          <path d="M62.9,24.92a3,3,0,0,1,2.92-3.09,2.92,2.92,0,0,1,2.81,3.09A3,3,0,0,1,65.74,28a2.94,2.94,0,0,1-2.83-3.09Zm-.09,0a3,3,0,0,0,2.92,3.17,3.12,3.12,0,0,0,3-3.17,3,3,0,0,0-2.89-3.17,3.14,3.14,0,0,0-3,3.17Z" style="fill: #291200;fill-rule: evenodd"/>
          <path d="M62.84,24.92a3.11,3.11,0,0,1,3-3.15,3,3,0,0,1,2.86,3.15,3.1,3.1,0,0,1-2.95,3.15,3,3,0,0,1-2.89-3.15Zm-.06,0a3.05,3.05,0,0,0,2.95,3.23,3.18,3.18,0,0,0,3-3.23,3.07,3.07,0,0,0-2.95-3.23,3.18,3.18,0,0,0-3,3.23Z" style="fill: #2a1200;fill-rule: evenodd"/>
          <path d="M62.82,24.92a3.11,3.11,0,0,1,3-3.2,3,3,0,0,1,2.92,3.2,3.16,3.16,0,0,1-3,3.2,3,3,0,0,1-2.92-3.2Zm-.09,0a3.11,3.11,0,0,0,3,3.29,3.24,3.24,0,0,0,3.09-3.29,3.13,3.13,0,0,0-3-3.29,3.24,3.24,0,0,0-3.09,3.29Z" style="fill: #2a1200;fill-rule: evenodd"/>
          <path d="M62.76,24.92a3.19,3.19,0,0,1,3.06-3.26,3.08,3.08,0,0,1,3,3.26,3.23,3.23,0,0,1-3.06,3.26,3.1,3.1,0,0,1-3-3.26Zm-.09,0a3.17,3.17,0,0,0,3,3.34,3.3,3.3,0,0,0,3.17-3.34,3.17,3.17,0,0,0-3.06-3.34,3.3,3.3,0,0,0-3.15,3.34Z" style="fill: #2b1300;fill-rule: evenodd"/>
          <path d="M62.7,24.92a3.25,3.25,0,0,1,3.12-3.32,3.14,3.14,0,0,1,3,3.32,3.27,3.27,0,0,1-3.15,3.32,3.14,3.14,0,0,1-3-3.32Zm-.09,0a3.23,3.23,0,0,0,3.09,3.4,3.36,3.36,0,0,0,3.23-3.4,3.23,3.23,0,0,0-3.12-3.4,3.34,3.34,0,0,0-3.2,3.4Z" style="fill: #2c1300;fill-rule: evenodd"/>
          <path d="M62.65,24.92a3.31,3.31,0,0,1,3.17-3.37,3.2,3.2,0,0,1,3.09,3.37,3.33,3.33,0,0,1-3.2,3.37,3.18,3.18,0,0,1-3.06-3.37Zm-.09,0a3.29,3.29,0,0,0,3.15,3.46A3.42,3.42,0,0,0,69,24.92a3.28,3.28,0,0,0-3.17-3.46,3.4,3.4,0,0,0-3.26,3.46Z" style="fill: #2d1300;fill-rule: evenodd"/>
          <path d="M62.59,24.92a3.37,3.37,0,0,1,3.23-3.43A3.26,3.26,0,0,1,69,24.92a3.39,3.39,0,0,1-3.26,3.43,3.24,3.24,0,0,1-3.12-3.43Zm-.09,0a3.33,3.33,0,0,0,3.2,3.51A3.44,3.44,0,0,0,69,24.92a3.3,3.3,0,0,0-3.2-3.51,3.46,3.46,0,0,0-3.32,3.51Z" style="fill: #2d1400;fill-rule: evenodd"/>
          <path d="M62.53,24.92a3.43,3.43,0,0,1,3.29-3.49A3.32,3.32,0,0,1,69,24.92a3.43,3.43,0,0,1-3.32,3.49,3.3,3.3,0,0,1-3.17-3.49Zm-.09,0a3.39,3.39,0,0,0,3.26,3.57,3.5,3.5,0,0,0,3.37-3.57,3.37,3.37,0,0,0-3.26-3.57,3.52,3.52,0,0,0-3.37,3.57Z" style="fill: #2e1400;fill-rule: evenodd"/>
          <path d="M62.48,24.92a3.49,3.49,0,0,1,3.34-3.54,3.36,3.36,0,0,1,3.23,3.54,3.47,3.47,0,0,1-3.34,3.54,3.36,3.36,0,0,1-3.23-3.54Zm-.09,0a3.45,3.45,0,0,0,3.32,3.63,3.56,3.56,0,0,0,3.43-3.63,3.43,3.43,0,0,0-3.32-3.63,3.54,3.54,0,0,0-3.43,3.63Z" style="fill: #2f1400;fill-rule: evenodd"/>
          <path d="M62.42,24.92a3.55,3.55,0,0,1,3.4-3.6,3.42,3.42,0,0,1,3.29,3.6,3.53,3.53,0,0,1-3.4,3.6,3.42,3.42,0,0,1-3.29-3.6Zm-.09,0a3.51,3.51,0,0,0,3.37,3.69,3.62,3.62,0,0,0,3.49-3.69,3.52,3.52,0,0,0-3.37-3.71,3.65,3.65,0,0,0-3.49,3.71Z" style="fill: #301500;fill-rule: evenodd"/>
          <path d="M62.36,24.92a3.62,3.62,0,0,1,3.46-3.69,3.47,3.47,0,0,1,3.34,3.69,3.59,3.59,0,0,1-3.46,3.66,3.48,3.48,0,0,1-3.34-3.66Zm-.09,0a3.55,3.55,0,0,0,3.43,3.74,3.68,3.68,0,0,0,3.54-3.74,3.58,3.58,0,0,0-3.43-3.77,3.73,3.73,0,0,0-3.54,3.77Z" style="fill: #301500;fill-rule: evenodd"/>
          <path d="M62.31,24.92a3.68,3.68,0,0,1,3.51-3.74,3.53,3.53,0,0,1,3.4,3.74,3.63,3.63,0,0,1-3.51,3.71,3.54,3.54,0,0,1-3.4-3.71Zm-.06,0a3.57,3.57,0,0,0,3.46,3.8,3.74,3.74,0,0,0,3.6-3.8,3.64,3.64,0,0,0-3.49-3.83,3.75,3.75,0,0,0-3.57,3.83Z" style="fill: #311500;fill-rule: evenodd"/>
          <path d="M62.25,24.92a3.76,3.76,0,0,1,3.57-3.8,3.59,3.59,0,0,1,3.46,3.8,3.69,3.69,0,0,1-3.57,3.77,3.59,3.59,0,0,1-3.46-3.77Zm-.06,0a3.63,3.63,0,0,0,3.51,3.86,3.79,3.79,0,0,0,3.66-3.86A3.68,3.68,0,0,0,65.82,21a3.79,3.79,0,0,0-3.63,3.88Z" style="fill: #321600;fill-rule: evenodd"/>
          <path d="M62.22,24.92a3.78,3.78,0,0,1,3.6-3.86,3.65,3.65,0,0,1,3.51,3.86,3.75,3.75,0,0,1-3.63,3.83,3.61,3.61,0,0,1-3.49-3.83Zm-.09,0a3.74,3.74,0,0,0,3.57,3.94,3.87,3.87,0,0,0,3.71-3.94A3.74,3.74,0,0,0,65.82,21a3.85,3.85,0,0,0-3.69,3.94Z" style="fill: #331600;fill-rule: evenodd"/>
          <path d="M62.16,24.92A3.84,3.84,0,0,1,65.82,21a3.71,3.71,0,0,1,3.57,3.91,3.84,3.84,0,0,1-3.69,3.91,3.71,3.71,0,0,1-3.54-3.91Zm-.09,0a3.78,3.78,0,0,0,3.63,4,3.93,3.93,0,0,0,3.77-4,3.8,3.8,0,0,0-3.66-4,3.91,3.91,0,0,0-3.74,4Z" style="fill: #341600;fill-rule: evenodd"/>
          <path d="M62.11,24.92a3.9,3.9,0,0,1,3.71-4,3.77,3.77,0,0,1,3.63,4,3.9,3.9,0,0,1-3.74,4,3.77,3.77,0,0,1-3.6-4Zm-.09,0A3.84,3.84,0,0,0,65.71,29a4,4,0,0,0,3.83-4.05,3.85,3.85,0,0,0-3.71-4.05A4,4,0,0,0,62,24.92Z" style="fill: #341700;fill-rule: evenodd"/>
          <path d="M62.05,24.92a4,4,0,0,1,3.77-4,3.83,3.83,0,0,1,3.69,4,4,4,0,0,1-3.8,4,3.83,3.83,0,0,1-3.66-4Zm-.09,0A3.9,3.9,0,0,0,65.71,29a4.07,4.07,0,0,0,3.88-4.11,3.91,3.91,0,0,0-3.77-4.11A4,4,0,0,0,62,24.92Z" style="fill: #351700;fill-rule: evenodd"/>
          <path d="M62,24.92a4,4,0,0,1,3.83-4.08,3.89,3.89,0,0,1,3.74,4.08A4,4,0,0,1,65.71,29,3.87,3.87,0,0,1,62,24.92Zm-.09,0a4,4,0,0,0,3.8,4.17,4.09,4.09,0,0,0,3.91-4.17,3.92,3.92,0,0,0-3.77-4.17,4.09,4.09,0,0,0-3.94,4.17Z" style="fill: #361700;fill-rule: evenodd"/>
          <path d="M61.94,24.92a4.06,4.06,0,0,1,3.88-4.14,3.9,3.9,0,0,1,3.77,4.14,4.06,4.06,0,0,1-3.88,4.14,3.93,3.93,0,0,1-3.77-4.14Zm-.09,0a4,4,0,0,0,3.86,4.22,4.15,4.15,0,0,0,4-4.22,4,4,0,0,0-3.83-4.22,4.16,4.16,0,0,0-4,4.22Z" style="fill: #371800;fill-rule: evenodd"/>
          <path d="M61.88,24.92a4.13,4.13,0,0,1,4-4.2,4,4,0,0,1,3.8,4.2,4.1,4.1,0,0,1-3.94,4.2,4,4,0,0,1-3.83-4.2Zm-.09,0a4.08,4.08,0,0,0,3.91,4.28,4.21,4.21,0,0,0,4-4.28,4,4,0,0,0-3.88-4.28,4.22,4.22,0,0,0-4.05,4.28Z" style="fill: #371800;fill-rule: evenodd"/>
          <path d="M61.82,24.92a4.2,4.2,0,0,1,4-4.25,4,4,0,0,1,3.86,4.25,4.16,4.16,0,0,1-4,4.25,4,4,0,0,1-3.88-4.25Zm-.09,0a4.14,4.14,0,0,0,4,4.34,4.27,4.27,0,0,0,4.08-4.34,4.1,4.1,0,0,0-3.94-4.34,4.28,4.28,0,0,0-4.11,4.34Z" style="fill: #381800;fill-rule: evenodd"/>
          <path d="M61.77,24.92a4.27,4.27,0,0,1,4.08-4.31,4.09,4.09,0,0,1,3.91,4.31,4.22,4.22,0,0,1-4.05,4.31,4.09,4.09,0,0,1-3.94-4.31Zm-.09,0a4.19,4.19,0,0,0,4,4.39,4.31,4.31,0,0,0,4.14-4.39,4.16,4.16,0,0,0-4-4.39,4.34,4.34,0,0,0-4.17,4.39Z" style="fill: #391900;fill-rule: evenodd"/>
          <path d="M61.71,24.92a4.33,4.33,0,0,1,4.14-4.37,4.15,4.15,0,0,1,4,4.37,4.28,4.28,0,0,1-4.11,4.37,4.16,4.16,0,0,1-4-4.37Zm-.06,0a4.19,4.19,0,0,0,4.05,4.45,4.37,4.37,0,0,0,4.2-4.45,4.22,4.22,0,0,0-4.05-4.45,4.36,4.36,0,0,0-4.2,4.45Z" style="fill: #3a1900;fill-rule: evenodd"/>
          <path d="M61.68,24.92a4.34,4.34,0,0,1,4.17-4.42,4.19,4.19,0,0,1,4,4.42,4.34,4.34,0,0,1-4.17,4.42,4.18,4.18,0,0,1-4-4.42Zm-.09,0a4.25,4.25,0,0,0,4.11,4.51A4.43,4.43,0,0,0,70,24.92a4.28,4.28,0,0,0-4.11-4.51,4.42,4.42,0,0,0-4.25,4.51Z" style="fill: #3a1900;fill-rule: evenodd"/>
          <path d="M61.63,24.92a4.4,4.4,0,0,1,4.22-4.48,4.25,4.25,0,0,1,4.08,4.48,4.4,4.4,0,0,1-4.22,4.48,4.24,4.24,0,0,1-4.08-4.48Zm-.09,0a4.31,4.31,0,0,0,4.17,4.56A4.51,4.51,0,0,0,70,24.92a4.34,4.34,0,0,0-4.17-4.56,4.48,4.48,0,0,0-4.31,4.56Z" style="fill: #3b1a00;fill-rule: evenodd"/>
          <path d="M61.57,24.92a4.45,4.45,0,0,1,4.28-4.54A4.3,4.3,0,0,1,70,24.92a4.48,4.48,0,0,1-4.28,4.54,4.3,4.3,0,0,1-4.14-4.54Zm-.09,0a4.39,4.39,0,0,0,4.22,4.62,4.58,4.58,0,0,0,4.37-4.62,4.4,4.4,0,0,0-4.22-4.62,4.54,4.54,0,0,0-4.37,4.62Z" style="fill: #3c1a00;fill-rule: evenodd"/>
          <path d="M61.51,24.92a4.51,4.51,0,0,1,4.34-4.59A4.36,4.36,0,0,1,70,24.92a4.53,4.53,0,0,1-4.34,4.59,4.36,4.36,0,0,1-4.2-4.59Zm-.09,0a4.45,4.45,0,0,0,4.28,4.68,4.64,4.64,0,0,0,4.42-4.68,4.46,4.46,0,0,0-4.28-4.68,4.6,4.6,0,0,0-4.42,4.68Z" style="fill: #3d1a00;fill-rule: evenodd"/>
          <path d="M61.46,24.92a4.57,4.57,0,0,1,4.39-4.65,4.42,4.42,0,0,1,4.25,4.65,4.59,4.59,0,0,1-4.39,4.65,4.42,4.42,0,0,1-4.25-4.65Zm-.09,0a4.51,4.51,0,0,0,4.34,4.73,4.65,4.65,0,0,0,4.45-4.73,4.49,4.49,0,0,0-4.31-4.76,4.67,4.67,0,0,0-4.48,4.76Z" style="fill: #3e1b00;fill-rule: evenodd"/>
          <path d="M61.4,24.92a4.61,4.61,0,0,1,4.45-4.71,4.48,4.48,0,0,1,4.31,4.71,4.65,4.65,0,0,1-4.45,4.71,4.48,4.48,0,0,1-4.31-4.71Zm-.09,0a4.57,4.57,0,0,0,4.39,4.79,4.7,4.7,0,0,0,4.51-4.79,4.54,4.54,0,0,0-4.37-4.82,4.74,4.74,0,0,0-4.54,4.82Z" style="fill: #3e1b00;fill-rule: evenodd"/>
          <path d="M61.34,24.92a4.73,4.73,0,0,1,4.51-4.79,4.52,4.52,0,0,1,4.34,4.79,4.67,4.67,0,0,1-4.48,4.76,4.52,4.52,0,0,1-4.37-4.76Zm-.09,0a4.61,4.61,0,0,0,4.45,4.85,4.76,4.76,0,0,0,4.56-4.85A4.6,4.6,0,0,0,65.85,20a4.81,4.81,0,0,0-4.59,4.88Z" style="fill: #3f1b00;fill-rule: evenodd"/>
          <path d="M61.29,24.92a4.79,4.79,0,0,1,4.56-4.85,4.58,4.58,0,0,1,4.39,4.85,4.73,4.73,0,0,1-4.54,4.82,4.58,4.58,0,0,1-4.42-4.82Zm-.09,0a4.67,4.67,0,0,0,4.51,4.9,4.8,4.8,0,0,0,4.62-4.9A4.66,4.66,0,0,0,65.85,20a4.87,4.87,0,0,0-4.65,4.93Z" style="fill: #401c00;fill-rule: evenodd"/>
          <path d="M61.23,24.92A4.85,4.85,0,0,1,65.85,20a4.64,4.64,0,0,1,4.45,4.9,4.79,4.79,0,0,1-4.59,4.88,4.64,4.64,0,0,1-4.48-4.88Zm-.09,0a4.76,4.76,0,0,0,4.56,5,4.88,4.88,0,0,0,4.68-5,4.72,4.72,0,0,0-4.54-5,4.93,4.93,0,0,0-4.71,5Z" style="fill: #411c00;fill-rule: evenodd"/>
          <path d="M61.17,24.92a4.9,4.9,0,0,1,4.68-5,4.7,4.7,0,0,1,4.51,5,4.87,4.87,0,0,1-4.65,5,4.74,4.74,0,0,1-4.54-5Zm-.06,0a4.78,4.78,0,0,0,4.59,5,4.94,4.94,0,0,0,4.73-5,4.79,4.79,0,0,0-4.59-5,4.94,4.94,0,0,0-4.73,5Z" style="fill: #411c00;fill-rule: evenodd"/>
          <path d="M61.11,24.92a5,5,0,0,1,4.73-5,4.75,4.75,0,0,1,4.56,5,4.91,4.91,0,0,1-4.71,5,4.79,4.79,0,0,1-4.59-5Zm-.06,0A4.84,4.84,0,0,0,65.71,30a5,5,0,0,0,4.79-5.1,4.85,4.85,0,0,0-4.65-5.1,5,5,0,0,0-4.79,5.1Z" style="fill: #421d00;fill-rule: evenodd"/>
          <path d="M61.09,24.92a5,5,0,0,1,4.76-5.07,4.82,4.82,0,0,1,4.62,5.07A5,5,0,0,1,65.71,30a4.79,4.79,0,0,1-4.62-5.07Zm-.09,0a4.88,4.88,0,0,0,4.71,5.16,5.08,5.08,0,0,0,4.85-5.16,4.91,4.91,0,0,0-4.71-5.16A5,5,0,0,0,61,24.92Z" style="fill: #431d00;fill-rule: evenodd"/>
          <path d="M61,24.92a5,5,0,0,1,4.82-5.13,4.87,4.87,0,0,1,4.68,5.13A5.05,5.05,0,0,1,65.71,30,4.85,4.85,0,0,1,61,24.92Zm-.09,0a4.93,4.93,0,0,0,4.73,5.22,5.15,5.15,0,0,0,4.93-5.22,5,5,0,0,0-4.76-5.22,5.11,5.11,0,0,0-4.9,5.22Z" style="fill: #441d00;fill-rule: evenodd"/>
          <path d="M61,24.92a5.08,5.08,0,0,1,4.88-5.19,4.93,4.93,0,0,1,4.73,5.19,5.12,5.12,0,0,1-4.88,5.19A4.91,4.91,0,0,1,61,24.92Zm-.09,0a5,5,0,0,0,4.79,5.27,5.19,5.19,0,0,0,5-5.27,5,5,0,0,0-4.82-5.27,5.17,5.17,0,0,0-5,5.27Z" style="fill: #441e00;fill-rule: evenodd"/>
          <path d="M60.92,24.92a5.14,5.14,0,0,1,4.93-5.24,5,5,0,0,1,4.79,5.24,5.18,5.18,0,0,1-5,5.24,5,5,0,0,1-4.76-5.24Zm-.09,0a5,5,0,0,0,4.85,5.33,5.25,5.25,0,0,0,5-5.33,5.08,5.08,0,0,0-4.88-5.33,5.25,5.25,0,0,0-5,5.33Z" style="fill: #451e00;fill-rule: evenodd"/>
          <path d="M60.86,24.92a5.22,5.22,0,0,1,5-5.3,5,5,0,0,1,4.85,5.3,5.24,5.24,0,0,1-5,5.3,5,5,0,0,1-4.82-5.3Zm-.09,0a5.12,5.12,0,0,0,4.9,5.39,5.27,5.27,0,0,0,5.07-5.39,5.1,5.1,0,0,0-4.9-5.39,5.31,5.31,0,0,0-5.07,5.39Z" style="fill: #461e00;fill-rule: evenodd"/>
          <path d="M60.8,24.92a5.26,5.26,0,0,1,5-5.36,5.07,5.07,0,0,1,4.88,5.36,5.26,5.26,0,0,1-5,5.36,5.09,5.09,0,0,1-4.88-5.36Zm-.09,0a5.18,5.18,0,0,0,5,5.44,5.33,5.33,0,0,0,5.13-5.44,5.14,5.14,0,0,0-5-5.44,5.37,5.37,0,0,0-5.13,5.44Z" style="fill: #471f00;fill-rule: evenodd"/>
          <path d="M60.75,24.92a5.32,5.32,0,0,1,5.1-5.41,5.11,5.11,0,0,1,4.93,5.41,5.32,5.32,0,0,1-5.1,5.41,5.16,5.16,0,0,1-4.93-5.41Zm-.09,0a5.24,5.24,0,0,0,5,5.5,5.39,5.39,0,0,0,5.19-5.5,5.2,5.2,0,0,0-5-5.5,5.43,5.43,0,0,0-5.19,5.5Z" style="fill: #481f00;fill-rule: evenodd"/>
          <path d="M60.69,24.92a5.38,5.38,0,0,1,5.16-5.47,5.17,5.17,0,0,1,5,5.47,5.36,5.36,0,0,1-5.16,5.47,5.21,5.21,0,0,1-5-5.47Zm-.09,0a5.3,5.3,0,0,0,5.07,5.56,5.45,5.45,0,0,0,5.24-5.56,5.26,5.26,0,0,0-5.07-5.56,5.49,5.49,0,0,0-5.24,5.56Z" style="fill: #481f00;fill-rule: evenodd"/>
          <path d="M60.63,24.92a5.44,5.44,0,0,1,5.22-5.53,5.23,5.23,0,0,1,5,5.53,5.42,5.42,0,0,1-5.22,5.53,5.25,5.25,0,0,1-5-5.53Zm-.09,0a5.36,5.36,0,0,0,5.13,5.61A5.53,5.53,0,0,0,71,24.92a5.3,5.3,0,0,0-5.13-5.61,5.53,5.53,0,0,0-5.3,5.61Z" style="fill: #492000;fill-rule: evenodd"/>
          <path d="M60.58,24.92a5.5,5.5,0,0,1,5.27-5.58A5.29,5.29,0,0,1,71,24.92a5.5,5.5,0,0,1-5.27,5.58,5.31,5.31,0,0,1-5.1-5.58Zm-.06,0a5.38,5.38,0,0,0,5.16,5.67A5.57,5.57,0,0,0,71,24.92a5.36,5.36,0,0,0-5.19-5.67,5.55,5.55,0,0,0-5.33,5.67Z" style="fill: #4a2000;fill-rule: evenodd"/>
          <path d="M60.55,24.92a5.52,5.52,0,0,1,5.3-5.64A5.35,5.35,0,0,1,71,24.92a5.56,5.56,0,0,1-5.33,5.64,5.33,5.33,0,0,1-5.13-5.64Zm-.09,0a5.42,5.42,0,0,0,5.22,5.73,5.63,5.63,0,0,0,5.41-5.73,5.42,5.42,0,0,0-5.24-5.73,5.61,5.61,0,0,0-5.39,5.73Z" style="fill: #4b2000;fill-rule: evenodd"/>
          <path d="M60.49,24.92a5.58,5.58,0,0,1,5.36-5.7,5.41,5.41,0,0,1,5.22,5.7,5.62,5.62,0,0,1-5.39,5.7,5.39,5.39,0,0,1-5.19-5.7Zm-.09,0a5.48,5.48,0,0,0,5.27,5.78,5.69,5.69,0,0,0,5.47-5.78,5.5,5.5,0,0,0-5.3-5.78,5.65,5.65,0,0,0-5.44,5.78Z" style="fill: #4b2100;fill-rule: evenodd"/>
          <path d="M60.43,24.92a5.64,5.64,0,0,1,5.41-5.75,5.47,5.47,0,0,1,5.27,5.75,5.68,5.68,0,0,1-5.44,5.75,5.45,5.45,0,0,1-5.24-5.75Zm-.09,0a5.52,5.52,0,0,0,5.33,5.84,5.75,5.75,0,0,0,5.53-5.84A5.59,5.59,0,0,0,65.85,19a5.78,5.78,0,0,0-5.5,5.87Z" style="fill: #4c2100;fill-rule: evenodd"/>
          <path d="M60.38,24.92a5.73,5.73,0,0,1,5.47-5.84,5.56,5.56,0,0,1,5.33,5.84,5.74,5.74,0,0,1-5.5,5.81,5.51,5.51,0,0,1-5.3-5.81Zm-.09,0a5.58,5.58,0,0,0,5.39,5.9,5.82,5.82,0,0,0,5.58-5.9A5.65,5.65,0,0,0,65.85,19a5.84,5.84,0,0,0-5.56,5.92Z" style="fill: #4d2100;fill-rule: evenodd"/>
          <path d="M60.32,24.92A5.79,5.79,0,0,1,65.85,19a5.6,5.6,0,0,1,5.39,5.9,5.79,5.79,0,0,1-5.56,5.87,5.57,5.57,0,0,1-5.36-5.87Zm-.09,0a5.64,5.64,0,0,0,5.44,6,5.83,5.83,0,0,0,5.61-6,5.67,5.67,0,0,0-5.44-6,5.9,5.9,0,0,0-5.61,6Z" style="fill: #4e2200;fill-rule: evenodd"/>
          <path d="M60.26,24.92a5.85,5.85,0,0,1,5.58-6,5.66,5.66,0,0,1,5.44,6,5.85,5.85,0,0,1-5.61,5.92,5.61,5.61,0,0,1-5.41-5.92Zm-.09,0a5.75,5.75,0,0,0,5.5,6,5.92,5.92,0,0,0,5.67-6,5.72,5.72,0,0,0-5.47-6,5.94,5.94,0,0,0-5.7,6Z" style="fill: #4e2200;fill-rule: evenodd"/>
          <path d="M60.21,24.92a5.91,5.91,0,0,1,5.64-6,5.68,5.68,0,0,1,5.47,6,5.85,5.85,0,0,1-5.64,6,5.67,5.67,0,0,1-5.47-6Zm-.09,0A5.79,5.79,0,0,0,65.68,31a6,6,0,0,0,5.73-6.09,5.77,5.77,0,0,0-5.53-6.09,6,6,0,0,0-5.75,6.09Z" style="fill: #4f2200;fill-rule: evenodd"/>
          <path d="M60.15,24.92a6,6,0,0,1,5.73-6.07,5.74,5.74,0,0,1,5.5,6.07A6,6,0,0,1,65.68,31a5.76,5.76,0,0,1-5.53-6.07Zm-.09,0a5.85,5.85,0,0,0,5.61,6.15,6,6,0,0,0,5.78-6.15,5.81,5.81,0,0,0-5.58-6.15,6.06,6.06,0,0,0-5.81,6.15Z" style="fill: #502300;fill-rule: evenodd"/>
          <path d="M60.09,24.92a6,6,0,0,1,5.78-6.12,5.8,5.8,0,0,1,5.56,6.12A6,6,0,0,1,65.68,31a5.84,5.84,0,0,1-5.58-6.12Zm-.09,0a5.91,5.91,0,0,0,5.67,6.21,6.1,6.1,0,0,0,5.84-6.21,5.87,5.87,0,0,0-5.64-6.21A6.13,6.13,0,0,0,60,24.92Z" style="fill: #512300;fill-rule: evenodd"/>
          <path d="M60,24.92a6.09,6.09,0,0,1,5.84-6.18,5.86,5.86,0,0,1,5.61,6.18,6.09,6.09,0,0,1-5.81,6.18A5.88,5.88,0,0,1,60,24.92Zm-.06,0a5.93,5.93,0,0,0,5.7,6.26,6.16,6.16,0,0,0,5.9-6.26,5.93,5.93,0,0,0-5.7-6.26A6.14,6.14,0,0,0,60,24.92Z" style="fill: #522300;fill-rule: evenodd"/>
          <path d="M60,24.92a6.09,6.09,0,0,1,5.87-6.24,5.92,5.92,0,0,1,5.67,6.24,6.15,6.15,0,0,1-5.87,6.24A5.9,5.9,0,0,1,60,24.92Zm-.09,0a6,6,0,0,0,5.75,6.32,6.22,6.22,0,0,0,6-6.32,6,6,0,0,0-5.75-6.32,6.22,6.22,0,0,0-6,6.32Z" style="fill: #522400;fill-rule: evenodd"/>
          <path d="M60,24.92a6.16,6.16,0,0,1,5.92-6.29,6,6,0,0,1,5.73,6.29,6.19,6.19,0,0,1-5.92,6.29A6,6,0,0,1,60,24.92Zm-.09,0a6,6,0,0,0,5.81,6.38,6.28,6.28,0,0,0,6-6.38,6,6,0,0,0-5.81-6.38,6.28,6.28,0,0,0-6,6.38Z" style="fill: #532400;fill-rule: evenodd"/>
          <path d="M59.9,24.92a6.23,6.23,0,0,1,6-6.35,6,6,0,0,1,5.78,6.35,6.23,6.23,0,0,1-6,6.35,6,6,0,0,1-5.78-6.35Zm-.09,0a6.11,6.11,0,0,0,5.87,6.43,6.34,6.34,0,0,0,6.07-6.43,6.11,6.11,0,0,0-5.87-6.43,6.31,6.31,0,0,0-6.07,6.43Z" style="fill: #542400;fill-rule: evenodd"/>
          <path d="M59.84,24.92a6.29,6.29,0,0,1,6-6.41,6.08,6.08,0,0,1,5.84,6.41,6.29,6.29,0,0,1-6,6.41,6.06,6.06,0,0,1-5.84-6.41Zm-.09,0a6.17,6.17,0,0,0,5.92,6.49,6.4,6.4,0,0,0,6.12-6.49,6.15,6.15,0,0,0-5.92-6.49,6.37,6.37,0,0,0-6.12,6.49Z" style="fill: #552500;fill-rule: evenodd"/>
          <path d="M59.78,24.92a6.36,6.36,0,0,1,6.09-6.46,6.14,6.14,0,0,1,5.9,6.46,6.36,6.36,0,0,1-6.09,6.46,6.12,6.12,0,0,1-5.9-6.46Zm-.09,0a6.21,6.21,0,0,0,6,6.55,6.45,6.45,0,0,0,6.18-6.55,6.23,6.23,0,0,0-6-6.55,6.43,6.43,0,0,0-6.18,6.55Z" style="fill: #552500;fill-rule: evenodd"/>
          <path d="M59.73,24.92a6.42,6.42,0,0,1,6.15-6.52,6.2,6.2,0,0,1,6,6.52,6.42,6.42,0,0,1-6.15,6.52,6.18,6.18,0,0,1-6-6.52Zm-.09,0a6.26,6.26,0,0,0,6,6.6,6.48,6.48,0,0,0,6.21-6.6,6.25,6.25,0,0,0-6-6.6,6.49,6.49,0,0,0-6.24,6.6Z" style="fill: #562500;fill-rule: evenodd"/>
          <path d="M59.67,24.92a6.48,6.48,0,0,1,6.21-6.58,6.22,6.22,0,0,1,6,6.58,6.43,6.43,0,0,1-6.18,6.58,6.24,6.24,0,0,1-6-6.58Zm-.09,0a6.32,6.32,0,0,0,6.09,6.66,6.54,6.54,0,0,0,6.26-6.66,6.31,6.31,0,0,0-6.07-6.66,6.55,6.55,0,0,0-6.29,6.66Z" style="fill: #572500;fill-rule: evenodd"/>
          <path d="M59.61,24.92a6.54,6.54,0,0,1,6.26-6.63,6.28,6.28,0,0,1,6,6.63,6.51,6.51,0,0,1-6.24,6.63,6.3,6.3,0,0,1-6.07-6.63Zm-.09,0a6.38,6.38,0,0,0,6.15,6.72A6.6,6.6,0,0,0,72,24.92a6.37,6.37,0,0,0-6.12-6.72,6.61,6.61,0,0,0-6.35,6.72Z" style="fill: #582600;fill-rule: evenodd"/>
          <path d="M59.56,24.92a6.58,6.58,0,0,1,6.32-6.69A6.32,6.32,0,0,1,72,24.92a6.57,6.57,0,0,1-6.29,6.69,6.36,6.36,0,0,1-6.12-6.69Zm-.09,0a6.44,6.44,0,0,0,6.21,6.77,6.67,6.67,0,0,0,6.38-6.77,6.43,6.43,0,0,0-6.18-6.77,6.67,6.67,0,0,0-6.41,6.77Z" style="fill: #582600;fill-rule: evenodd"/>
          <path d="M59.5,24.92a6.64,6.64,0,0,1,6.38-6.75A6.38,6.38,0,0,1,72,24.92a6.62,6.62,0,0,1-6.35,6.75,6.42,6.42,0,0,1-6.18-6.75Zm-.06,0a6.46,6.46,0,0,0,6.24,6.83,6.73,6.73,0,0,0,6.43-6.83,6.47,6.47,0,0,0-6.24-6.83,6.69,6.69,0,0,0-6.43,6.83Z" style="fill: #592600;fill-rule: evenodd"/>
          <path d="M59.44,24.92a6.7,6.7,0,0,1,6.43-6.8,6.44,6.44,0,0,1,6.21,6.8,6.68,6.68,0,0,1-6.41,6.8,6.47,6.47,0,0,1-6.24-6.8Zm-.06,0a6.53,6.53,0,0,0,6.29,6.89,6.79,6.79,0,0,0,6.49-6.89A6.58,6.58,0,0,0,65.88,18a6.77,6.77,0,0,0-6.49,6.92Z" style="fill: #5a2700;fill-rule: evenodd"/>
          <path d="M59.41,24.92a6.72,6.72,0,0,1,6.46-6.86,6.5,6.5,0,0,1,6.26,6.86,6.74,6.74,0,0,1-6.46,6.86,6.49,6.49,0,0,1-6.26-6.86Zm-.09,0a6.59,6.59,0,0,0,6.35,6.94,6.83,6.83,0,0,0,6.55-6.94,6.6,6.6,0,0,0-6.35-7,6.84,6.84,0,0,0-6.55,7Z" style="fill: #5b2700;fill-rule: evenodd"/>
          <path d="M59.36,24.92A6.82,6.82,0,0,1,65.88,18a6.59,6.59,0,0,1,6.32,6.94,6.8,6.8,0,0,1-6.52,6.92,6.55,6.55,0,0,1-6.32-6.92Zm-.09,0a6.64,6.64,0,0,0,6.41,7,6.89,6.89,0,0,0,6.6-7,6.66,6.66,0,0,0-6.41-7,6.9,6.9,0,0,0-6.6,7Z" style="fill: #5c2700;fill-rule: evenodd"/>
          <path d="M59.3,24.92a6.88,6.88,0,0,1,6.58-7,6.65,6.65,0,0,1,6.38,7,6.86,6.86,0,0,1-6.58,7,6.61,6.61,0,0,1-6.38-7Zm-.09,0A6.69,6.69,0,0,0,65.65,32a6.94,6.94,0,0,0,6.69-7.06,6.72,6.72,0,0,0-6.46-7.09,7,7,0,0,0-6.66,7.09Z" style="fill: #5c2800;fill-rule: evenodd"/>
          <path d="M59.24,24.92a6.94,6.94,0,0,1,6.63-7.06,6.71,6.71,0,0,1,6.43,7.06,6.92,6.92,0,0,1-6.63,7,6.67,6.67,0,0,1-6.43-7Zm-.09,0a6.78,6.78,0,0,0,6.49,7.14,7.06,7.06,0,0,0,6.75-7.14,6.78,6.78,0,0,0-6.52-7.14,7,7,0,0,0-6.72,7.14Z" style="fill: #5d2800;fill-rule: evenodd"/>
          <path d="M59.19,24.92a7,7,0,0,1,6.69-7.11,6.77,6.77,0,0,1,6.49,7.11A7,7,0,0,1,65.65,32a6.77,6.77,0,0,1-6.46-7.11Zm-.09,0a6.84,6.84,0,0,0,6.55,7.2,7.08,7.08,0,0,0,6.77-7.2,6.8,6.8,0,0,0-6.55-7.2,7.08,7.08,0,0,0-6.77,7.2Z" style="fill: #5e2800;fill-rule: evenodd"/>
          <path d="M59.13,24.92a7,7,0,0,1,6.75-7.17,6.81,6.81,0,0,1,6.55,7.17c-.09,3.94-3.09,7.17-6.77,7.17a6.81,6.81,0,0,1-6.52-7.17Zm-.09,0a6.88,6.88,0,0,0,6.6,7.26,7.14,7.14,0,0,0,6.83-7.26,6.86,6.86,0,0,0-6.6-7.26A7.14,7.14,0,0,0,59,24.92Z" style="fill: #5f2900;fill-rule: evenodd"/>
          <path d="M59.07,24.92a7.11,7.11,0,0,1,6.8-7.23,6.82,6.82,0,0,1,6.58,7.23,7.09,7.09,0,0,1-6.8,7.23,6.85,6.85,0,0,1-6.58-7.23Zm-.09,0a6.94,6.94,0,0,0,6.66,7.31,7.2,7.2,0,0,0,6.89-7.31,6.94,6.94,0,0,0-6.66-7.31A7.18,7.18,0,0,0,59,24.92Z" style="fill: #5f2900;fill-rule: evenodd"/>
          <path d="M59,24.92a7.17,7.17,0,0,1,6.86-7.29,6.89,6.89,0,0,1,6.63,7.29,7.15,7.15,0,0,1-6.86,7.29A6.91,6.91,0,0,1,59,24.92Zm-.09,0a7,7,0,0,0,6.72,7.37,7.26,7.26,0,0,0,6.94-7.37,7,7,0,0,0-6.72-7.37c-3.77,0-6.86,3.29-6.94,7.37Z" style="fill: #602900;fill-rule: evenodd"/>
          <path d="M59,24.92a7.23,7.23,0,0,1,6.92-7.34,7,7,0,0,1,6.69,7.34,7.21,7.21,0,0,1-6.92,7.34A7,7,0,0,1,59,24.92Zm-.09,0a7.06,7.06,0,0,0,6.77,7.43,7.3,7.3,0,0,0,7-7.43,7,7,0,0,0-6.77-7.43c-3.8,0-6.92,3.32-7,7.43Z" style="fill: #612a00;fill-rule: evenodd"/>
          <path d="M58.9,24.92c.09-4.08,3.2-7.4,7-7.4a7,7,0,0,1,6.75,7.4,7.27,7.27,0,0,1-7,7.4,7,7,0,0,1-6.75-7.4Zm-.06,0a7.06,7.06,0,0,0,6.8,7.48,7.36,7.36,0,0,0,7.06-7.48,7.1,7.1,0,0,0-6.83-7.48,7.34,7.34,0,0,0-7,7.48Z" style="fill: #622a00;fill-rule: evenodd"/>
          <path d="M58.88,24.92c.06-4.11,3.2-7.46,7-7.46a7.07,7.07,0,0,1,6.8,7.46,7.33,7.33,0,0,1-7,7.46,7.05,7.05,0,0,1-6.77-7.46Zm-.09,0a7.12,7.12,0,0,0,6.86,7.54,7.42,7.42,0,0,0,7.11-7.54,7.15,7.15,0,0,0-6.89-7.54,7.4,7.4,0,0,0-7.09,7.54Z" style="fill: #622a00;fill-rule: evenodd"/>
          <path d="M58.82,24.92a7.37,7.37,0,0,1,7.06-7.51,7.13,7.13,0,0,1,6.86,7.51,7.39,7.39,0,0,1-7.09,7.51,7.11,7.11,0,0,1-6.83-7.51Zm-.09,0a7.2,7.2,0,0,0,6.92,7.6,7.48,7.48,0,0,0,7.17-7.6,7.21,7.21,0,0,0-6.94-7.6,7.46,7.46,0,0,0-7.14,7.6Z" style="fill: #632b00;fill-rule: evenodd"/>
          <path d="M58.76,24.92a7.43,7.43,0,0,1,7.11-7.57,7.18,7.18,0,0,1,6.92,7.57,7.45,7.45,0,0,1-7.14,7.57,7.15,7.15,0,0,1-6.89-7.57Zm-.09,0a7.26,7.26,0,0,0,7,7.65c3.91,0,7.14-3.43,7.23-7.65a7.27,7.27,0,0,0-7-7.65c-3.91,0-7.14,3.43-7.2,7.65Z" style="fill: #642b00;fill-rule: evenodd"/>
          <path d="M58.71,24.92a7.49,7.49,0,0,1,7.17-7.63,7.24,7.24,0,0,1,7,7.63c-.09,4.22-3.29,7.63-7.2,7.63s-7-3.43-6.94-7.63Zm-.09,0a7.32,7.32,0,0,0,7,7.71c4,0,7.2-3.46,7.29-7.71a7.33,7.33,0,0,0-7.06-7.71c-3.94,0-7.2,3.46-7.26,7.71Z" style="fill: #652b00;fill-rule: evenodd"/>
          <path d="M58.65,24.92a7.55,7.55,0,0,1,7.23-7.68,7.3,7.3,0,0,1,7,7.68c-.09,4.25-3.32,7.68-7.26,7.68s-7.06-3.43-7-7.68Zm-.09,0a7.38,7.38,0,0,0,7.09,7.77c4,0,7.26-3.49,7.34-7.77a7.39,7.39,0,0,0-7.11-7.77,7.62,7.62,0,0,0-7.31,7.77Z" style="fill: #662c00;fill-rule: evenodd"/>
          <path d="M58.59,24.92c.06-4.28,3.34-7.74,7.29-7.74A7.36,7.36,0,0,1,73,24.92c-.09,4.28-3.34,7.74-7.31,7.74s-7.11-3.46-7.06-7.74Zm-.09,0c-.06,4.31,3.15,7.82,7.14,7.82A7.66,7.66,0,0,0,73,24.92a7.39,7.39,0,0,0-7.14-7.82,7.68,7.68,0,0,0-7.37,7.82Z" style="fill: #662c00;fill-rule: evenodd"/>
          <path d="M58.54,24.92c.06-4.31,3.37-7.8,7.34-7.8A7.38,7.38,0,0,1,73,24.92a7.65,7.65,0,0,1-7.34,7.8c-4,0-7.17-3.49-7.11-7.8Zm-.09,0a7.49,7.49,0,0,0,7.2,7.88,7.72,7.72,0,0,0,7.43-7.88A7.45,7.45,0,0,0,65.88,17c-4,0-7.34,3.51-7.43,7.88Z" style="fill: #672c00;fill-rule: evenodd"/>
          <path d="M58.48,24.92c.09-4.34,3.37-7.85,7.4-7.85A7.44,7.44,0,0,1,73,24.92a7.71,7.71,0,0,1-7.4,7.85,7.46,7.46,0,0,1-7.17-7.85Zm-.09,0c-.06,4.39,3.17,7.94,7.26,7.94a7.78,7.78,0,0,0,7.48-7.94,7.55,7.55,0,0,0-7.23-8c-4.08,0-7.43,3.57-7.51,8Z" style="fill: #682d00;fill-rule: evenodd"/>
          <path d="M58.42,24.92c.09-4.37,3.4-7.94,7.48-7.91a7.48,7.48,0,0,1,7.2,7.91c-.06,4.37-3.4,7.91-7.46,7.91a7.52,7.52,0,0,1-7.23-7.91Zm-.09,0c-.06,4.42,3.2,8,7.31,8a7.85,7.85,0,0,0,7.54-8c.06-4.42-3.2-8-7.29-8s-7.48,3.6-7.57,8Z" style="fill: #692d00;fill-rule: evenodd"/>
          <path d="M58.37,24.92c.09-4.42,3.43-8,7.54-8a7.58,7.58,0,0,1,7.26,8c-.06,4.39-3.43,8-7.51,8a7.58,7.58,0,0,1-7.29-8Zm-.06,0A7.61,7.61,0,0,0,65.65,33a7.91,7.91,0,0,0,7.6-8.05c.06-4.45-3.23-8.08-7.34-8.08s-7.54,3.63-7.6,8.08Z" style="fill: #692d00;fill-rule: evenodd"/>
          <path d="M58.31,24.92c.09-4.45,3.46-8.05,7.6-8.05s7.37,3.6,7.31,8.05a7.88,7.88,0,0,1-7.57,8,7.64,7.64,0,0,1-7.34-8Zm-.06,0A7.67,7.67,0,0,0,65.65,33a8,8,0,0,0,7.65-8.11c.06-4.48-3.26-8.14-7.4-8.14s-7.6,3.66-7.65,8.14Z" style="fill: #6a2e00;fill-rule: evenodd"/>
          <path d="M58.28,24.92c.06-4.48,3.46-8.11,7.63-8.11s7.43,3.63,7.37,8.11A7.94,7.94,0,0,1,65.65,33a7.64,7.64,0,0,1-7.37-8.08Zm-.09,0a7.77,7.77,0,0,0,7.46,8.19c4.2,0,7.63-3.69,7.71-8.19s-3.29-8.19-7.46-8.19-7.65,3.66-7.71,8.19Z" style="fill: #6b2e00;fill-rule: evenodd"/>
          <path d="M58.22,24.92c.06-4.51,3.49-8.16,7.68-8.16s7.48,3.66,7.43,8.16-3.51,8.16-7.68,8.14a7.7,7.7,0,0,1-7.43-8.14Zm-.09,0c-.09,4.54,3.29,8.25,7.51,8.25s7.68-3.71,7.77-8.25-3.29-8.25-7.51-8.25-7.71,3.69-7.77,8.25Z" style="fill: #6c2e00;fill-rule: evenodd"/>
          <path d="M58.17,24.92c.06-4.54,3.51-8.22,7.74-8.22s7.54,3.69,7.48,8.22-3.54,8.22-7.74,8.22a7.8,7.8,0,0,1-7.48-8.22Zm-.09,0c-.09,4.56,3.32,8.31,7.57,8.31s7.74-3.71,7.82-8.31-3.32-8.31-7.57-8.31-7.77,3.71-7.82,8.31Z" style="fill: #6c2f00;fill-rule: evenodd"/>
          <path d="M58.11,24.92c.06-4.56,3.54-8.28,7.8-8.28s7.6,3.71,7.54,8.28-3.57,8.28-7.8,8.28S58,29.48,58.11,24.92Zm-.09,0c-.06,4.62,3.34,8.36,7.63,8.36s7.8-3.74,7.88-8.36-3.34-8.36-7.63-8.36S58.08,20.3,58,24.92Z" style="fill: #6d2f00;fill-rule: evenodd"/>
          <path d="M58.05,24.92c.06-4.59,3.57-8.33,7.85-8.33s7.65,3.74,7.6,8.33-3.6,8.33-7.85,8.33-7.68-3.74-7.6-8.33Zm-.09,0c-.06,4.65,3.37,8.42,7.68,8.42s7.85-3.77,7.91-8.42-3.34-8.42-7.65-8.42S58.05,20.27,58,24.92Z" style="fill: #6e2f00;fill-rule: evenodd"/>
          <path d="M58,24.92c.09-4.65,3.6-8.39,7.91-8.39s7.71,3.77,7.65,8.39-3.63,8.39-7.91,8.39S57.94,29.54,58,24.92Zm-.09,0c-.06,4.68,3.4,8.48,7.74,8.48s7.91-3.8,8-8.48-3.37-8.48-7.71-8.48-7.91,3.8-8,8.48Z" style="fill: #6f3000;fill-rule: evenodd"/>
          <path d="M57.94,24.92c.09-4.68,3.63-8.45,8-8.45s7.77,3.77,7.68,8.45S70,33.36,65.65,33.36s-7.77-3.8-7.71-8.45Zm-.09,0c-.06,4.71,3.43,8.53,7.8,8.53s8-3.83,8-8.53-3.4-8.53-7.77-8.53-8,3.83-8.05,8.53Z" style="fill: #703000;fill-rule: evenodd"/>
          <path d="M57.88,24.92c.09-4.71,3.66-8.5,8-8.5s7.82,3.8,7.74,8.5-3.66,8.5-8,8.5-7.82-3.83-7.77-8.5Zm-.09,0c-.06,4.73,3.46,8.59,7.85,8.59s8-3.86,8.08-8.59-3.43-8.59-7.82-8.59-8,3.83-8.11,8.59Z" style="fill: #703000;fill-rule: evenodd"/>
          <path d="M57.83,24.92c.09-4.73,3.69-8.56,8.08-8.56s7.88,3.83,7.8,8.56S70,33.48,65.65,33.48s-7.88-3.83-7.82-8.56Zm-.09,0c-.06,4.76,3.46,8.65,7.91,8.65s8.08-3.88,8.14-8.65-3.46-8.65-7.88-8.65-8.08,3.86-8.16,8.65Z" style="fill: #713100;fill-rule: evenodd"/>
          <path d="M57.77,24.92c.09-4.76,3.71-8.62,8.14-8.62s7.94,3.86,7.85,8.62S70,33.53,65.65,33.53s-7.94-3.86-7.88-8.62Zm-.06,0c-.09,4.79,3.46,8.7,7.94,8.7s8.11-3.88,8.19-8.7-3.49-8.7-7.94-8.7-8.14,3.88-8.19,8.7Z" style="fill: #723100;fill-rule: evenodd"/>
          <path d="M57.74,24.92c.06-4.79,3.71-8.67,8.16-8.67s8,3.88,7.91,8.67-3.74,8.67-8.16,8.67-8-3.88-7.91-8.67Zm-.09,0c-.09,4.85,3.49,8.76,8,8.76s8.16-3.91,8.25-8.76-3.51-8.76-8-8.76-8.19,3.91-8.25,8.76Z" style="fill: #733100;fill-rule: evenodd"/>
          <path d="M57.69,24.92c.06-4.82,3.74-8.73,8.22-8.73s8.05,3.91,8,8.73-3.77,8.73-8.22,8.73-8.05-3.91-8-8.73Zm-.09,0c-.09,4.88,3.51,8.82,8.05,8.82s8.22-3.94,8.31-8.82-3.54-8.82-8.05-8.82S57.66,20,57.6,24.92Z" style="fill: #733200;fill-rule: evenodd"/>
          <path d="M57.63,24.92c.06-4.85,3.77-8.79,8.28-8.79s8.08,3.94,8,8.79-3.8,8.79-8.28,8.79-8.11-3.94-8-8.79Zm-.09,0c-.09,4.9,3.54,8.87,8.11,8.87s8.28-4,8.36-8.87S70.44,16,65.91,16s-8.31,4-8.36,8.87Z" style="fill: #743200;fill-rule: evenodd"/>
          <path d="M57.57,24.92c.06-4.9,3.8-8.84,8.33-8.84S74,20,74,24.92s-3.83,8.84-8.33,8.84-8.16-4-8.08-8.84Zm-.09,0c-.09,4.93,3.57,8.93,8.14,8.93s8.36-4,8.45-8.93S70.5,16,65.91,16s-8.33,4-8.42,8.93Z" style="fill: #753200;fill-rule: evenodd"/>
          <path d="M57.51,24.92C57.6,20,61.34,16,65.91,16s8.19,4,8.14,8.9-3.86,8.9-8.39,8.9-8.22-4-8.14-8.9Zm-.09,0c-.09,5,3.6,9,8.19,9s8.42-4,8.5-9-3.6-9-8.22-9-8.39,4-8.48,9Z" style="fill: #763300;fill-rule: evenodd"/>
          <path d="M57.46,24.92c.09-5,3.86-9,8.45-9s8.25,4,8.19,9-3.88,9-8.48,9-8.25-4-8.16-9Zm-.09,0c-.09,5,3.63,9,8.25,9s8.48-4.05,8.53-9-3.6-9-8.25-9.07-8.45,4.05-8.53,9.07Z" style="fill: #763300;fill-rule: evenodd"/>
          <path d="M57.4,24.92c.09-5,3.88-9,8.5-9s8.31,4.05,8.22,9-3.88,9-8.5,9-8.31-4-8.22-9Zm-.09,0c-.06,5,3.66,9.1,8.31,9.1s8.53-4.05,8.59-9.1-3.63-9.13-8.31-9.13-8.5,4.08-8.59,9.13Z" style="fill: #730;fill-rule: evenodd"/>
          <path d="M57.34,24.92c.09-5,3.91-9.1,8.56-9.1s8.36,4.08,8.28,9.1S70.27,34,65.62,34s-8.33-4.05-8.28-9.07Zm-.09,0c-.06,5.07,3.69,9.16,8.36,9.16s8.59-4.08,8.65-9.16-3.66-9.18-8.36-9.18-8.56,4.11-8.65,9.18Z" style="fill: #783400;fill-rule: evenodd"/>
          <path d="M57.29,24.92c.09-5,3.94-9.16,8.62-9.16s8.42,4.11,8.33,9.16S70.33,34,65.62,34,57.23,30,57.29,24.92Zm-.09,0c-.06,5.1,3.71,9.21,8.42,9.21s8.62-4.11,8.7-9.21-3.69-9.24-8.42-9.24-8.62,4.14-8.7,9.24Z" style="fill: #793400;fill-rule: evenodd"/>
          <path d="M57.23,24.92c.09-5.07,4-9.21,8.67-9.21s8.48,4.14,8.39,9.21-3.94,9.18-8.67,9.18S57.17,30,57.23,24.92Zm-.06,0c-.09,5.13,3.71,9.27,8.45,9.3s8.67-4.17,8.76-9.3-3.71-9.3-8.48-9.3-8.67,4.17-8.73,9.3Z" style="fill: #7a3400;fill-rule: evenodd"/>
          <path d="M57.17,24.92c.09-5.13,4-9.27,8.73-9.27s8.53,4.17,8.45,9.27-4,9.27-8.73,9.27-8.5-4.17-8.45-9.27Zm-.06,0c-.09,5.16,3.71,9.35,8.5,9.35s8.73-4.2,8.82-9.35-3.74-9.35-8.53-9.35-8.73,4.2-8.79,9.35Z" style="fill: #7a3500;fill-rule: evenodd"/>
          <path d="M57.15,24.92c.06-5.16,4-9.33,8.76-9.33s8.59,4.17,8.5,9.33-4,9.33-8.79,9.33-8.56-4.2-8.48-9.33Zm-.09,0c-.09,5.19,3.74,9.41,8.56,9.41s8.79-4.22,8.87-9.41-3.77-9.41-8.59-9.41-8.79,4.22-8.84,9.41Z" style="fill: #7b3500;fill-rule: evenodd"/>
          <path d="M57.09,24.92c.06-5.19,4-9.38,8.82-9.38s8.65,4.2,8.56,9.38-4,9.38-8.84,9.38S57,30.08,57.09,24.92Zm-.09,0c-.09,5.22,3.77,9.47,8.62,9.47s8.84-4.25,8.93-9.47-3.8-9.47-8.65-9.47-8.82,4.22-8.9,9.47Z" style="fill: #7c3500;fill-rule: evenodd"/>
          <path d="M57,24.92c.09-5.22,4.05-9.44,8.87-9.44s8.7,4.22,8.62,9.44-4.05,9.44-8.9,9.44S56.95,30.13,57,24.92Zm-.09,0c-.09,5.24,3.8,9.52,8.67,9.52s8.9-4.28,9-9.52-3.83-9.52-8.7-9.52-8.87,4.25-9,9.52Z" style="fill: #7d3600;fill-rule: evenodd"/>
          <path d="M57,24.92c.09-5.24,4.08-9.5,8.93-9.5s8.76,4.25,8.67,9.5-4.08,9.5-9,9.5-8.73-4.25-8.65-9.5Zm-.09,0c-.09,5.27,3.83,9.58,8.73,9.58s9-4.28,9-9.58-3.86-9.58-8.76-9.58-8.93,4.28-9,9.58Z" style="fill: #7d3600;fill-rule: evenodd"/>
          <path d="M56.92,24.92c.09-5.27,4.11-9.55,9-9.55s8.79,4.28,8.73,9.55-4.11,9.55-9,9.55-8.79-4.28-8.7-9.55Zm-.09,0c-.09,5.33,3.86,9.64,8.79,9.64s9-4.31,9.07-9.64-3.83-9.64-8.79-9.64-9,4.31-9.07,9.64Z" style="fill: #7e3600;fill-rule: evenodd"/>
          <path d="M56.86,24.92c.09-5.3,4.14-9.61,9-9.61s8.84,4.31,8.79,9.61-4.14,9.61-9.07,9.61-8.84-4.31-8.76-9.61Zm-.09,0c-.09,5.36,3.88,9.69,8.84,9.69s9-4.34,9.13-9.69-3.86-9.69-8.84-9.69-9,4.34-9.13,9.69Z" style="fill: #7f3700;fill-rule: evenodd"/>
          <path d="M56.81,24.92c.09-5.36,4.17-9.67,9.1-9.67s8.9,4.34,8.82,9.67-4.14,9.67-9.1,9.67-8.9-4.34-8.82-9.67Zm-.09,0c-.09,5.39,3.91,9.75,8.9,9.75s9.1-4.37,9.18-9.75-3.88-9.75-8.9-9.75-9.1,4.37-9.18,9.75Z" style="fill: #803700;fill-rule: evenodd"/>
          <path d="M56.75,24.92c.09-5.39,4.2-9.72,9.16-9.72s9,4.37,8.87,9.72-4.17,9.72-9.16,9.72-9-4.37-8.87-9.72Zm-.09,0c-.09,5.41,3.94,9.81,9,9.81s9.16-4.39,9.24-9.81S71,15.11,65.93,15.11s-9.18,4.39-9.27,9.81Z" style="fill: #813800;fill-rule: evenodd"/>
          <path d="M56.69,24.92c.09-5.41,4.22-9.78,9.24-9.78s9,4.37,8.9,9.78-4.2,9.78-9.21,9.78-9-4.39-8.93-9.78Zm-.09,0c-.06,5.44,4,9.86,9,9.86s9.21-4.42,9.3-9.86-3.94-9.86-9-9.86-9.24,4.42-9.33,9.86Z" style="fill: #833800;fill-rule: evenodd"/>
          <path d="M56.64,24.92c.09-5.44,4.25-9.84,9.3-9.84s9,4.39,9,9.84-4.22,9.84-9.27,9.84-9-4.39-9-9.84Zm-.06,0c-.09,5.47,4,9.92,9,9.92s9.27-4.45,9.35-9.92S71,15,65.93,15s-9.27,4.42-9.35,9.92Z" style="fill: #843900;fill-rule: evenodd"/>
          <path d="M56.61,24.92c.06-5.47,4.25-9.89,9.33-9.89s9.1,4.42,9,9.89-4.25,9.89-9.33,9.89-9.1-4.42-9-9.89Zm-.09,0c-.09,5.5,4,10,9.1,10s9.33-4.45,9.41-10-4-10-9.1-10-9.33,4.45-9.41,10Z" style="fill: #863a00;fill-rule: evenodd"/>
          <path d="M56.55,24.92c.09-5.5,4.28-9.95,9.38-9.95s9.16,4.45,9.07,9.95-4.28,9.95-9.38,9.95-9.16-4.45-9.07-9.95Zm-.09,0c-.09,5.56,4,10,9.16,10s9.38-4.48,9.47-10-4-10-9.16-10-9.38,4.48-9.47,10Z" style="fill: #873a00;fill-rule: evenodd"/>
          <path d="M56.49,24.92c.09-5.53,4.31-10,9.44-10s9.21,4.48,9.13,10-4.31,10-9.44,10-9.21-4.48-9.13-10Zm-.09,0C56.32,30.5,60.43,35,65.62,35s9.44-4.51,9.52-10.09S71.09,14.83,65.93,14.8s-9.44,4.54-9.52,10.12Z" style="fill: #883b00;fill-rule: evenodd"/>
          <path d="M56.44,24.92c.09-5.56,4.34-10.09,9.5-10.06s9.27,4.51,9.18,10.06S70.78,35,65.62,35s-9.27-4.51-9.18-10.06Zm-.09,0c-.09,5.61,4.05,10.15,9.27,10.15s9.5-4.54,9.58-10.15-4.08-10.18-9.27-10.18-9.5,4.56-9.58,10.18Z" style="fill: #8a3b00;fill-rule: evenodd"/>
          <path d="M56.38,24.92c.09-5.61,4.37-10.15,9.55-10.15s9.33,4.56,9.24,10.15S70.81,35,65.62,35,56.3,30.5,56.38,24.92Zm-.09,0c-.09,5.64,4.08,10.2,9.33,10.2s9.52-4.56,9.61-10.2-4.08-10.23-9.3-10.23-9.55,4.59-9.64,10.23Z" style="fill: #8b3c00;fill-rule: evenodd"/>
          <path d="M56.32,24.92c.09-5.64,4.39-10.2,9.61-10.2s9.38,4.56,9.3,10.2-4.39,10.18-9.61,10.18-9.38-4.56-9.3-10.18Zm-.09,0c-.09,5.67,4.11,10.26,9.38,10.26s9.58-4.59,9.67-10.26-4.11-10.29-9.35-10.29-9.61,4.62-9.69,10.29Z" style="fill: #8d3d00;fill-rule: evenodd"/>
          <path d="M56.27,24.92c.09-5.67,4.42-10.26,9.67-10.26s9.41,4.59,9.33,10.26-4.39,10.23-9.64,10.23-9.44-4.59-9.35-10.23Zm-.09,0c-.09,5.7,4.14,10.32,9.44,10.35s9.64-4.65,9.72-10.35-4.14-10.35-9.41-10.35-9.67,4.62-9.75,10.35Z" style="fill: #8e3d00;fill-rule: evenodd"/>
          <path d="M56.21,24.92c.09-5.7,4.45-10.32,9.72-10.32s9.47,4.62,9.38,10.32-4.42,10.32-9.69,10.29-9.5-4.59-9.41-10.29Zm-.09,0c-.09,5.73,4.17,10.4,9.5,10.4s9.69-4.68,9.78-10.4-4.14-10.4-9.47-10.4-9.72,4.65-9.81,10.4Z" style="fill: #903e00;fill-rule: evenodd"/>
          <path d="M56.15,24.92c.09-5.73,4.48-10.37,9.78-10.37s9.52,4.65,9.44,10.37-4.45,10.37-9.75,10.37-9.55-4.65-9.47-10.37Zm-.09,0c-.09,5.75,4.2,10.46,9.55,10.46s9.75-4.68,9.84-10.46-4.17-10.46-9.52-10.46-9.75,4.68-9.86,10.46Z" style="fill: #913f00;fill-rule: evenodd"/>
          <path d="M56.1,24.92c.09-5.75,4.51-10.43,9.84-10.43s9.58,4.68,9.5,10.43S71,35.35,65.62,35.35,56,30.67,56.1,24.92Zm-.06,0c-.11,5.81,4.2,10.52,9.58,10.52s9.81-4.71,9.89-10.52S71.32,14.4,65.93,14.4,56.13,19.11,56,24.92Z" style="fill: #923f00;fill-rule: evenodd"/>
          <path d="M56,24.92c.11-5.78,4.54-10.49,9.89-10.49s9.64,4.71,9.55,10.49S71,35.4,65.62,35.4,56,30.7,56,24.92Zm-.06,0c-.11,5.84,4.22,10.57,9.64,10.57s9.86-4.73,9.95-10.57-4.22-10.57-9.64-10.57S56.07,19.08,56,24.92Z" style="fill: #944000;fill-rule: evenodd"/>
          <path d="M56,24.92c.09-5.84,4.54-10.54,9.92-10.54s9.69,4.73,9.61,10.54S71,35.46,65.62,35.46,55.9,30.73,56,24.92Zm-.09,0c-.09,5.87,4.25,10.63,9.69,10.63s9.92-4.76,10-10.63-4.25-10.63-9.69-10.63S56,19,55.93,24.92Z" style="fill: #954000;fill-rule: evenodd"/>
          <path d="M56,24.92c.09-5.87,4.56-10.6,10-10.6s9.75,4.76,9.67,10.6-4.56,10.6-10,10.6S55.87,30.76,56,24.92Zm-.09,0c-.09,5.9,4.28,10.69,9.75,10.69s10-4.79,10.06-10.69S71.4,14.23,65.93,14.23,56,19,55.87,24.92Z" style="fill: #974100;fill-rule: evenodd"/>
          <path d="M55.9,24.92c.09-5.9,4.59-10.66,10-10.66S75.74,19,75.66,24.92s-4.59,10.66-10,10.66-9.81-4.79-9.72-10.66Zm-.09,0c-.09,5.92,4.28,10.74,9.81,10.74s10-4.82,10.12-10.74-4.31-10.74-9.81-10.74S55.9,19,55.81,24.92Z" style="fill: #984200;fill-rule: evenodd"/>
          <path d="M55.84,24.92C55.93,19,60.43,14.2,65.93,14.2S75.8,19,75.71,24.92,71.09,35.63,65.62,35.63s-9.86-4.79-9.78-10.71Zm-.09,0c-.09,6,4.31,10.8,9.84,10.8s10.09-4.85,10.2-10.8-4.34-10.8-9.86-10.8-10.09,4.82-10.18,10.8Z" style="fill: #9a4200;fill-rule: evenodd"/>
          <path d="M55.79,24.92c.09-6,4.62-10.77,10.15-10.77S75.86,19,75.77,24.92,71.12,35.69,65.62,35.69s-9.92-4.82-9.84-10.77Zm-.09,0c-.09,6,4.34,10.86,9.89,10.86s10.15-4.85,10.23-10.86-4.34-10.86-9.89-10.86S55.79,18.91,55.7,24.92Z" style="fill: #9b4300;fill-rule: evenodd"/>
          <path d="M55.73,24.92c.09-6,4.65-10.83,10.2-10.83s10,4.85,9.86,10.83-4.65,10.83-10.2,10.83-9.95-4.85-9.86-10.83Zm-.09,0c-.09,6,4.37,10.91,9.95,10.91S75.8,31,75.88,24.92,71.52,14,65.93,14s-10.2,4.88-10.29,10.91Z" style="fill: #9c4300;fill-rule: evenodd"/>
          <path d="M55.67,24.92c.09-6,4.68-10.89,10.26-10.89s10,4.88,9.92,10.89S71.18,35.8,65.59,35.8s-10-4.88-9.92-10.89Zm-.09,0c-.09,6.07,4.39,11,10,11s10.26-4.9,10.35-11-4.39-11-10-11-10.23,4.9-10.35,11Z" style="fill: #9e4400;fill-rule: evenodd"/>
          <path d="M55.62,24.92C55.7,18.88,60.32,14,65.93,14s10.09,4.9,10,10.94S71.21,35.86,65.59,35.86s-10.06-4.9-10-10.94Zm-.09,0c-.09,6.09,4.42,11,10.06,11S75.91,31,76,24.92s-4.42-11-10.06-11-10.29,4.93-10.4,11Z" style="fill: #9f4500;fill-rule: evenodd"/>
          <path d="M55.56,24.92c.11-6.09,4.73-11,10.37-11s10.12,4.93,10,11-4.73,11-10.37,11-10.12-4.93-10-11Zm-.09,0C55.39,31,59.92,36,65.59,36S76,31,76.05,24.92,71.63,13.83,65.93,13.83s-10.35,5-10.46,11.08Z" style="fill: #a14500;fill-rule: evenodd"/>
          <path d="M55.5,24.92c.11-6.12,4.76-11.06,10.43-11.06S76.11,18.79,76,24.92,71.26,36,65.59,36,55.42,31,55.5,24.92Zm-.06,0c-.11,6.15,4.45,11.14,10.15,11.14s10.43-5,10.52-11.14S71.66,13.78,65.93,13.78s-10.4,5-10.49,11.14Z" style="fill: #a24600;fill-rule: evenodd"/>
          <path d="M55.47,24.92c.09-6.15,4.76-11.14,10.46-11.11s10.23,5,10.15,11.11S71.29,36,65.59,36,55.36,31,55.47,24.92Zm-.09,0c-.11,6.18,4.48,11.2,10.2,11.2s10.49-5,10.57-11.2-4.48-11.2-10.23-11.23-10.46,5-10.54,11.23Z" style="fill: #a44700;fill-rule: evenodd"/>
          <path d="M55.42,24.92c.09-6.18,4.79-11.2,10.52-11.2s10.29,5,10.2,11.2S71.32,36.09,65.59,36.09s-10.29-5-10.18-11.17Zm-.09,0c-.11,6.21,4.51,11.25,10.26,11.25s10.52-5,10.63-11.25S71.72,13.63,65.93,13.63s-10.52,5-10.6,11.28Z" style="fill: #a54700;fill-rule: evenodd"/>
          <path d="M55.36,24.92c.09-6.21,4.82-11.25,10.57-11.25s10.35,5,10.26,11.25-4.85,11.23-10.6,11.23-10.35-5-10.23-11.23Zm-.09,0c-.09,6.24,4.54,11.31,10.32,11.31s10.57-5,10.69-11.31S71.74,13.58,65.93,13.58,55.36,18.65,55.28,24.92Z" style="fill: #a64800;fill-rule: evenodd"/>
          <path d="M55.3,24.92c.09-6.24,4.85-11.31,10.63-11.31s10.4,5.07,10.32,11.31S71.38,36.2,65.59,36.2s-10.4-5-10.29-11.28Zm-.09,0c-.09,6.29,4.56,11.37,10.37,11.37s10.63-5.07,10.74-11.37-4.56-11.4-10.4-11.4-10.63,5.1-10.71,11.4Z" style="fill: #a84800;fill-rule: evenodd"/>
          <path d="M55.25,24.92c.09-6.26,4.88-11.37,10.69-11.37s10.46,5.1,10.37,11.37S71.4,36.28,65.59,36.26,55.16,31.18,55.25,24.92Zm-.09,0c-.09,6.32,4.56,11.42,10.43,11.45s10.69-5.13,10.77-11.45S71.8,13.46,65.93,13.46,55.25,18.6,55.16,24.92Z" style="fill: #a94900;fill-rule: evenodd"/>
          <path d="M55.19,24.92c.09-6.32,4.9-11.42,10.74-11.42s10.52,5.13,10.43,11.42S71.43,36.34,65.59,36.34s-10.49-5.13-10.4-11.42Zm-.09,0C55,31.27,59.7,36.43,65.59,36.43s10.74-5.16,10.83-11.51S71.83,13.41,65.93,13.41,55.22,18.57,55.11,24.92Z" style="fill: #ab4a00;fill-rule: evenodd"/>
          <path d="M55.13,24.92c.09-6.35,4.93-11.48,10.8-11.48s10.57,5.13,10.46,11.48S71.46,36.4,65.59,36.4,55,31.24,55.13,24.92Zm-.09,0C55,31.29,59.67,36.48,65.59,36.48s10.8-5.19,10.89-11.57S71.86,13.35,65.93,13.35,55.16,18.54,55,24.92Z" style="fill: #ac4a00;fill-rule: evenodd"/>
          <path d="M55.08,24.92c.11-6.38,5-11.54,10.86-11.54s10.63,5.16,10.52,11.54-5,11.54-10.86,11.54S55,31.27,55.08,24.92Zm-.09,0c-.09,6.41,4.65,11.62,10.6,11.62s10.86-5.22,10.94-11.62-4.65-11.62-10.6-11.62S55.11,18.48,55,24.92Z" style="fill: #ae4b00;fill-rule: evenodd"/>
          <path d="M55,24.92c.11-6.41,5-11.59,10.91-11.59s10.69,5.19,10.57,11.59-5,11.59-10.91,11.59S54.94,31.32,55,24.92Zm-.09,0c-.09,6.43,4.68,11.68,10.66,11.68s10.91-5.24,11-11.68S71.91,13.24,66,13.24,55,18.45,54.94,24.92Z" style="fill: #af4b00;fill-rule: evenodd"/>
          <path d="M55,24.92c.11-6.43,5-11.65,11-11.65s10.71,5.22,10.6,11.65-5,11.65-11,11.65S54.88,31.35,55,24.92Zm-.06,0c-.11,6.46,4.68,11.74,10.69,11.74s11-5.24,11.06-11.74S71.94,13.18,66,13.18,55,18.43,54.91,24.92Z" style="fill: #b04c00;fill-rule: evenodd"/>
          <path d="M54.91,24.92C55,18.45,60,13.21,66,13.21s10.77,5.24,10.66,11.71-5,11.71-11,11.71S54.82,31.38,54.91,24.92Zm-.06,0c-.11,6.52,4.71,11.79,10.74,11.79s11-5.27,11.11-11.79S72,13.12,66,13.12s-11,5.27-11.11,11.79Z" style="fill: #b24d00;fill-rule: evenodd"/>
          <path d="M54.88,24.92c.09-6.49,5-11.76,11.08-11.76s10.8,5.27,10.71,11.76S71.6,36.68,65.59,36.68,54.77,31.41,54.88,24.92Zm-.09,0c-.11,6.55,4.73,11.85,10.8,11.85s11.06-5.3,11.17-11.85S72,13.07,66,13.07s-11.08,5.3-11.17,11.85Z" style="fill: #b34d00;fill-rule: evenodd"/>
          <path d="M54.82,24.92C54.91,18.37,59.9,13.1,66,13.1s10.86,5.3,10.77,11.82-5.1,11.82-11.14,11.82-10.89-5.3-10.77-11.82Zm-.09,0c-.11,6.58,4.76,11.91,10.86,11.91s11.11-5.33,11.23-11.91S72.06,13,66,13,54.82,18.34,54.74,24.92Z" style="fill: #b54e00;fill-rule: evenodd"/>
          <path d="M54.77,24.92C54.85,18.34,59.87,13,66,13s10.91,5.33,10.83,11.88-5.13,11.88-11.2,11.88S54.65,31.46,54.77,24.92Zm-.09,0c-.11,6.6,4.79,12,10.91,12s11.17-5.36,11.28-12S72.09,13,66,13s-11.2,5.36-11.28,12Z" style="fill: #b64f00;fill-rule: evenodd"/>
          <path d="M54.71,24.92C54.79,18.31,59.84,13,66,13s11,5.33,10.89,11.93S71.69,36.85,65.59,36.85s-11-5.36-10.89-11.93Zm-.09,0c-.11,6.63,4.82,12,11,12s11.23-5.39,11.34-12-4.82-12-11-12-11.23,5.39-11.34,12Z" style="fill: #b84f00;fill-rule: evenodd"/>
          <path d="M54.65,24.92c.11-6.63,5.16-12,11.31-12s11,5.36,10.94,12-5.16,12-11.31,12-11.06-5.36-10.94-12Zm-.09,0C54.48,31.58,59.41,37,65.59,37S76.88,31.58,77,24.92,72.14,12.84,66,12.84s-11.28,5.39-11.4,12.08Z" style="fill: #b95000;fill-rule: evenodd"/>
          <path d="M54.6,24.92c.11-6.66,5.19-12,11.37-12s11.08,5.39,11,12S71.77,37,65.59,37s-11.11-5.39-11-12Zm-.09,0C54.43,31.61,59.36,37,65.59,37S76.93,31.63,77,24.92,72.17,12.78,66,12.78,54.62,18.2,54.51,24.92Z" style="fill: #ba5000;fill-rule: evenodd"/>
          <path d="M54.54,24.92c.11-6.69,5.22-12.1,11.42-12.1s11.14,5.41,11,12.1S71.8,37,65.59,37s-11.14-5.41-11.06-12.1Zm-.09,0c-.09,6.72,4.88,12.19,11.14,12.19S77,31.66,77.07,24.92,72.2,12.73,66,12.73s-11.4,5.44-11.51,12.19Z" style="fill: #bc5100;fill-rule: evenodd"/>
          <path d="M54.48,24.92C54.6,18.2,59.73,12.76,66,12.76S77.16,18.2,77,24.92,71.83,37.08,65.59,37.08,54.4,31.63,54.48,24.92Zm-.09,0c-.09,6.77,4.9,12.25,11.2,12.25S77,31.69,77.13,24.92,72.23,12.67,66,12.64,54.51,18.14,54.4,24.92Z" style="fill: #bd5200;fill-rule: evenodd"/>
          <path d="M54.43,24.92C54.54,18.17,59.7,12.67,66,12.7S77.22,18.17,77.1,24.92,71.86,37.13,65.59,37.13,54.34,31.66,54.43,24.92Zm-.09,0c-.09,6.8,4.93,12.3,11.25,12.3s11.48-5.5,11.59-12.3S72.26,12.59,66,12.59,54.45,18.11,54.34,24.92Z" style="fill: #bf5200;fill-rule: evenodd"/>
          <path d="M54.37,24.92c.11-6.8,5.3-12.3,11.59-12.3s11.31,5.53,11.2,12.3S71.89,37.19,65.59,37.19s-11.31-5.5-11.23-12.27Zm-.06,0c-.11,6.83,4.93,12.36,11.28,12.36s11.54-5.53,11.65-12.36S72.28,12.53,66,12.53,54.4,18.09,54.31,24.92Z" style="fill: #c05300;fill-rule: evenodd"/>
          <path d="M54.34,24.92c.09-6.83,5.3-12.36,11.62-12.36s11.37,5.53,11.25,12.36-5.3,12.33-11.62,12.33S54.23,31.72,54.34,24.92Zm-.09,0c-.11,6.86,5,12.42,11.34,12.42S77.19,31.78,77.3,24.92,72.31,12.47,66,12.47,54.34,18.06,54.26,24.92Z" style="fill: #c25400;fill-rule: evenodd"/>
          <path d="M54.28,24.92C54.37,18.06,59.61,12.5,66,12.5s11.42,5.56,11.31,12.42S71.94,37.3,65.59,37.3,54.17,31.75,54.28,24.92Zm-.09,0c-.11,6.89,5,12.47,11.4,12.5s11.65-5.61,11.76-12.5-5-12.5-11.4-12.5S54.28,18,54.2,24.92Z" style="fill: #c35400;fill-rule: evenodd"/>
          <path d="M54.23,24.92C54.31,18,59.58,12.44,66,12.44S77.44,18,77.33,24.92,72,37.39,65.59,37.36,54.11,31.8,54.23,24.92Zm-.09,0c-.11,6.92,5,12.56,11.45,12.56S77.3,31.83,77.41,24.92,72.4,12.36,66,12.36,54.26,18,54.14,24.92Z" style="fill: #c45500;fill-rule: evenodd"/>
          <path d="M54.17,24.92C54.28,18,59.56,12.39,66,12.39S77.47,18,77.39,24.92,72,37.45,65.59,37.45,54.06,31.83,54.17,24.92Zm-.09,0c-.11,6.94,5,12.61,11.51,12.61s11.76-5.64,11.88-12.61S72.43,12.3,66,12.3,54.2,17.94,54.09,24.92Z" style="fill: #c65500;fill-rule: evenodd"/>
          <path d="M54.11,24.92C54.23,18,59.53,12.33,66,12.33S77.53,18,77.44,24.92,72,37.5,65.59,37.5,54,31.86,54.11,24.92Zm-.09,0c-.11,7,5.07,12.67,11.54,12.67S77.41,31.92,77.5,24.92,72.45,12.25,66,12.25,54.14,17.91,54,24.92Z" style="fill: #c75600;fill-rule: evenodd"/>
          <path d="M54.06,24.92c.11-7,5.44-12.64,11.91-12.64S77.58,17.94,77.5,24.92,72.06,37.56,65.59,37.56,53.94,31.89,54.06,24.92Zm-.09,0c-.11,7,5.1,12.73,11.59,12.73s11.91-5.7,12-12.73S72.48,12.19,66,12.19s-11.88,5.7-12,12.73Z" style="fill: #c95700;fill-rule: evenodd"/>
          <path d="M54,24.92c.11-7,5.47-12.7,12-12.7s11.68,5.7,11.57,12.7-5.44,12.7-12,12.7S53.89,31.92,54,24.92Zm-.09,0C53.8,32,59,37.7,65.57,37.7s12-5.73,12-12.78S72.51,12.13,66,12.13,54,17.86,53.91,24.92Z" style="fill: #ca5700;fill-rule: evenodd"/>
          <path d="M53.94,24.92c.11-7.06,5.5-12.76,12-12.76S77.7,17.89,77.58,24.92s-5.47,12.76-12,12.76S53.83,31.95,53.94,24.92Zm-.09,0C53.77,32,59,37.76,65.57,37.76s12-5.75,12.1-12.84S72.54,12.08,66,12.08s-12,5.75-12.1,12.84Z" style="fill: #cc5800;fill-rule: evenodd"/>
          <path d="M53.89,24.92C54,17.83,59.41,12.1,66,12.1s11.79,5.73,11.68,12.81-5.5,12.81-12.08,12.81S53.8,32,53.89,24.92Zm-.09,0C53.72,32,59,37.81,65.57,37.81s12-5.78,12.16-12.9S72.57,12,66,12s-12,5.78-12.16,12.9Z" style="fill: #cd5800;fill-rule: evenodd"/>
          <path d="M53.83,24.92C53.94,17.8,59.39,12,66,12S77.81,17.8,77.7,24.92,72.17,37.79,65.57,37.79,53.74,32,53.83,24.92Zm-.06,0c-.11,7.14,5.16,13,11.79,13s12.1-5.81,12.22-13S72.6,12,66,12s-12.1,5.78-12.19,13Z" style="fill: #ce5900;fill-rule: evenodd"/>
          <path d="M53.77,24.92C53.89,17.77,59.36,12,66,12s11.91,5.78,11.79,12.93S72.2,37.84,65.57,37.84,53.69,32.06,53.77,24.92Zm-.06,0c-.11,7.17,5.19,13,11.85,13s12.16-5.81,12.27-13-5.22-13-11.88-13-12.16,5.81-12.25,13Z" style="fill: #d05a00;fill-rule: evenodd"/>
          <path d="M53.74,24.92c.09-7.17,5.58-13,12.22-13s12,5.81,11.85,13-5.58,13-12.25,13-11.93-5.81-11.82-13Zm-.09,0C53.55,32.12,58.88,38,65.57,38S77.78,32.14,77.9,24.92,72.65,11.85,66,11.85s-12.19,5.84-12.3,13.07Z" style="fill: #d15a00;fill-rule: evenodd"/>
          <path d="M53.69,24.92c.11-7.2,5.61-13,12.27-13s12,5.84,11.91,13-5.61,13-12.3,13-12-5.84-11.88-13Zm-.09,0C53.49,32.17,58.85,38,65.57,38S77.84,32.17,78,24.92,72.68,11.79,66,11.79,53.72,17.66,53.6,24.92Z" style="fill: #d35b00;fill-rule: evenodd"/>
          <path d="M53.63,24.92c.11-7.23,5.64-13.1,12.33-13.1s12.08,5.87,12,13.1S72.28,38,65.57,38s-12-5.87-11.93-13.1Zm-.09,0c-.11,7.29,5.27,13.18,12,13.18S77.9,32.2,78,24.92,72.74,11.74,66,11.74s-12.3,5.9-12.42,13.18Z" style="fill: #d45c00;fill-rule: evenodd"/>
          <path d="M53.57,24.92c.11-7.29,5.67-13.15,12.39-13.15s12.13,5.9,12,13.15S72.31,38.07,65.57,38.07s-12.1-5.9-12-13.15Zm-.09,0c-.11,7.31,5.3,13.24,12.08,13.24S78,32.23,78.07,24.92,72.77,11.68,66,11.68,53.6,17.6,53.49,24.92Z" style="fill: #d65c00;fill-rule: evenodd"/>
          <path d="M53.52,24.92c.11-7.31,5.7-13.21,12.44-13.21S78.12,17.6,78,24.92s-5.7,13.21-12.47,13.21-12.16-5.92-12-13.21Zm-.09,0c-.11,7.34,5.33,13.29,12.13,13.29s12.42-6,12.53-13.29S72.79,11.62,66,11.62s-12.42,6-12.53,13.29Z" style="fill: #d75d00;fill-rule: evenodd"/>
          <path d="M53.46,24.92c.11-7.34,5.73-13.29,12.5-13.27s12.22,5.92,12.1,13.27-5.7,13.27-12.5,13.27-12.22-6-12.1-13.27Zm-.09,0c-.11,7.37,5.36,13.35,12.19,13.35s12.47-6,12.59-13.35S72.82,11.57,66,11.54s-12.47,6-12.59,13.38Z" style="fill: #d85d00;fill-rule: evenodd"/>
          <path d="M53.4,24.92c.11-7.37,5.75-13.35,12.56-13.35s12.27,6,12.16,13.35S72.4,38.24,65.57,38.24s-12.27-6-12.16-13.32Zm-.09,0c-.11,7.4,5.39,13.41,12.25,13.41s12.53-6,12.64-13.41S72.85,11.48,66,11.48s-12.53,6-12.64,13.44Z" style="fill: #da5e00;fill-rule: evenodd"/>
          <path d="M53.35,24.92c.11-7.4,5.78-13.41,12.61-13.41s12.33,6,12.22,13.41S72.43,38.3,65.57,38.3s-12.33-6-12.22-13.38Zm-.09,0c-.11,7.43,5.41,13.46,12.3,13.46s12.59-6,12.7-13.46S72.88,11.42,66,11.42s-12.59,6-12.7,13.49Z" style="fill: #db5f00;fill-rule: evenodd"/>
          <path d="M53.29,24.92C53.4,17.49,59.1,11.45,66,11.45s12.39,6,12.27,13.46S72.45,38.35,65.57,38.35s-12.39-6-12.27-13.44Zm-.09,0c-.11,7.48,5.41,13.52,12.36,13.52s12.64-6,12.76-13.52S72.91,11.37,66,11.37,53.35,17.43,53.21,24.92Z" style="fill: #dd5f00;fill-rule: evenodd"/>
          <path d="M53.23,24.92C53.35,17.46,59,11.4,66,11.4s12.42,6.07,12.3,13.52S72.48,38.44,65.57,38.41s-12.44-6-12.33-13.49Zm-.06,0c-.11,7.51,5.41,13.58,12.39,13.61s12.7-6.09,12.81-13.61S72.94,11.31,66,11.31,53.29,17.4,53.18,24.92Z" style="fill: #de6000;fill-rule: evenodd"/>
          <path d="M53.21,24.92C53.32,17.4,59,11.34,66,11.34s12.47,6.09,12.36,13.58S72.51,38.49,65.57,38.49,53.09,32.4,53.21,24.92Zm-.09,0C53,32.46,58.56,38.58,65.57,38.58s12.76-6.12,12.87-13.66S73,11.25,66,11.25,53.23,17.38,53.12,24.92Z" style="fill: #e06000;fill-rule: evenodd"/>
          <path d="M53.15,24.92C53.26,17.38,59,11.28,66,11.28S78.52,17.4,78.41,24.92,72.54,38.55,65.57,38.55,53,32.43,53.15,24.92Zm-.09,0c-.11,7.57,5.47,13.72,12.5,13.72s12.81-6.15,12.93-13.72S73,11.2,66,11.2,53.18,17.35,53.06,24.92Z" style="fill: #e16100;fill-rule: evenodd"/>
          <path d="M53.09,24.92C53.21,17.35,59,11.23,66,11.23s12.59,6.12,12.47,13.69-5.9,13.69-12.9,13.69S53,32.46,53.09,24.92Zm-.09,0c-.11,7.6,5.5,13.78,12.56,13.78s12.87-6.18,13-13.78S73,11.14,66,11.14,53.12,17.29,53,24.92Z" style="fill: #e26200;fill-rule: evenodd"/>
          <path d="M53,24.92c.11-7.6,5.9-13.75,13-13.75s12.64,6.15,12.53,13.75-5.92,13.75-13,13.75S52.92,32.51,53,24.92Zm-.09,0c-.11,7.63,5.53,13.83,12.61,13.83s12.9-6.21,13-13.83S73,11.08,66,11.08,53.06,17.26,53,24.92Z" style="fill: #e46200;fill-rule: evenodd"/>
          <path d="M53,24.92c.11-7.63,5.92-13.8,13-13.8s12.7,6.18,12.59,13.8-6,13.8-13,13.8S52.87,32.54,53,24.92Zm-.09,0c-.11,7.65,5.56,13.89,12.67,13.89s13-6.21,13.07-13.89S73.11,11,66,11s-13,6.21-13.1,13.89Z" style="fill: #e56300;fill-rule: evenodd"/>
          <path d="M52.92,24.92c.11-7.65,6-13.86,13.07-13.86s12.76,6.21,12.64,13.86-6,13.86-13.07,13.86S52.81,32.57,52.92,24.92Zm-.09,0c-.11,7.68,5.58,13.95,12.73,13.95s13-6.24,13.12-13.95S73.13,11,66,11,53,17.21,52.84,24.92Z" style="fill: #e76400;fill-rule: evenodd"/>
          <path d="M52.87,24.92C53,17.23,58.85,11,66,11S78.8,17.23,78.66,24.92s-6,13.92-13.1,13.92S52.75,32.6,52.87,24.92Zm-.09,0c-.11,7.74,5.61,14,12.78,14s13.07-6.26,13.18-14-5.58-14-12.76-14-13.1,6.26-13.21,14Z" style="fill: #e86400;fill-rule: evenodd"/>
          <path d="M52.81,24.92c.11-7.71,6-14,13.18-14s12.84,6.26,12.73,14-6,14-13.15,14-12.87-6.26-12.76-14Zm-.09,0C52.61,32.68,58.37,39,65.57,39S78.69,32.68,78.8,24.92,73.19,10.86,66,10.86,52.87,17.15,52.72,24.92Z" style="fill: #ea6500;fill-rule: evenodd"/>
          <path d="M52.75,24.92c.11-7.77,6-14,13.24-14s12.9,6.29,12.78,14-6,14-13.21,14-12.93-6.29-12.81-14Zm-.09,0C52.55,32.71,58.34,39,65.57,39s13.18-6.32,13.29-14.12S73.22,10.8,66,10.8,52.81,17.12,52.67,24.92Z" style="fill: #eb6500;fill-rule: evenodd"/>
          <path d="M52.7,24.92c.14-7.8,6.07-14.09,13.29-14.09s13,6.29,12.84,14.09S72.77,39,65.57,39s-13-6.32-12.87-14.09Zm-.06,0c-.14,7.82,5.67,14.17,12.93,14.17S78.8,32.74,78.92,24.92,73.25,10.74,66,10.74,52.75,17.09,52.64,24.92Z" style="fill: #ec6600;fill-rule: evenodd"/>
          <path d="M52.67,24.92c.11-7.82,6.07-14.14,13.32-14.14s13,6.32,12.9,14.14S72.79,39.06,65.57,39.06s-13-6.35-12.9-14.14Zm-.09,0c-.14,7.85,5.67,14.23,13,14.23S78.86,32.77,79,24.92s-5.7-14.23-13-14.23S52.7,17,52.58,24.92Z" style="fill: #ee6700;fill-rule: evenodd"/>
          <path d="M52.61,24.92c.11-7.85,6.09-14.2,13.38-14.2s13.07,6.35,13,14.2-6.12,14.2-13.38,14.2-13.1-6.35-13-14.2Zm-.09,0c-.11,7.88,5.7,14.29,13,14.29S78.92,32.83,79,24.92,73.3,10.63,66,10.63,52.64,17,52.53,24.92Z" style="fill: #ef6700;fill-rule: evenodd"/>
          <path d="M52.55,24.92C52.67,17,58.68,10.66,66,10.66S79.11,17,79,24.92,72.85,39.17,65.57,39.17s-13.15-6.38-13-14.26Zm-.09,0c-.11,7.91,5.73,14.34,13.1,14.34s13.38-6.41,13.52-14.34S73.33,10.57,66,10.57,52.58,17,52.47,24.92Z" style="fill: #f16800;fill-rule: evenodd"/>
          <path d="M52.5,24.92C52.61,17,58.65,10.6,66,10.6S79.17,17,79.06,24.92,72.88,39.23,65.57,39.23,52.38,32.83,52.5,24.92Zm-.09,0c-.11,8,5.75,14.4,13.15,14.4S79,32.88,79.14,24.92,73.36,10.52,66,10.49,52.53,17,52.41,24.92Z" style="fill: #f26800;fill-rule: evenodd"/>
          <path d="M52.44,24.92C52.55,17,58.62,10.52,66,10.54S79.23,17,79.11,24.92,72.91,39.29,65.57,39.29,52.33,32.85,52.44,24.92Zm-.09,0c-.11,8,5.78,14.46,13.21,14.46S79.06,32.91,79.2,24.92,73.39,10.43,66,10.43,52.47,16.92,52.36,24.92Z" style="fill: #f46900;fill-rule: evenodd"/>
          <path d="M52.38,24.92c.11-8,6.21-14.46,13.61-14.46S79.29,17,79.17,24.92,72.94,39.34,65.57,39.34,52.27,32.88,52.38,24.92Zm-.09,0c-.11,8,5.81,14.51,13.24,14.51s13.58-6.49,13.69-14.51S73.42,10.37,66,10.37,52.41,16.89,52.3,24.92Z" style="fill: #f56a00;fill-rule: evenodd"/>
          <path d="M52.33,24.92c.11-8,6.24-14.51,13.66-14.51S79.34,16.92,79.2,24.92,73,39.4,65.57,39.4,52.21,32.91,52.33,24.92Zm-.09,0C52.13,33,58.08,39.49,65.54,39.49S79.17,33,79.29,24.92,73.47,10.32,66,10.32s-13.61,6.55-13.75,14.6Z" style="fill: #f66a00;fill-rule: evenodd"/>
          <path d="M52.27,24.92c.11-8.05,6.26-14.57,13.72-14.57S79.4,16.87,79.26,24.92,73,39.49,65.54,39.46,52.16,32.94,52.27,24.92Zm-.09,0C52.07,33,58.05,39.54,65.54,39.57S79.23,33,79.34,24.92,73.5,10.26,66,10.26s-13.66,6.55-13.8,14.66Z" style="fill: #f86b00;fill-rule: evenodd"/>
          <path d="M52.21,24.92c.14-8.08,6.29-14.63,13.78-14.63s13.46,6.55,13.32,14.63S73,39.54,65.54,39.51,52.1,33,52.21,24.92Zm-.09,0C52,33,58,39.63,65.54,39.63S79.29,33,79.4,24.92,73.53,10.2,66,10.2,52.27,16.78,52.13,24.92Z" style="fill: #f96c00;fill-rule: evenodd"/>
          <path d="M52.16,24.92C52.3,16.81,58.48,10.23,66,10.23s13.52,6.58,13.38,14.68S73,39.6,65.54,39.6,52,33,52.16,24.92Zm-.06,0C52,33.05,58,39.69,65.54,39.69s13.8-6.6,13.92-14.77S73.56,10.15,66,10.15,52.21,16.75,52.1,24.92Z" style="fill: #fb6c00;fill-rule: evenodd"/>
          <path d="M52.1,24.92c.14-8.14,6.35-14.74,13.89-14.74s13.55,6.6,13.44,14.74S73.08,39.66,65.54,39.66,52,33.05,52.1,24.92Zm-.06,0C51.9,33.11,58,39.74,65.54,39.74s13.86-6.63,14-14.83S73.59,10.09,66,10.09,52.16,16.72,52,24.92Z" style="fill: #fc6d00;fill-rule: evenodd"/>
          <path d="M52.07,24.92c.11-8.16,6.35-14.8,13.92-14.8s13.61,6.63,13.49,14.8-6.35,14.8-13.95,14.8-13.61-6.63-13.46-14.8Zm-.09,0c-.14,8.22,6,14.88,13.55,14.88s13.89-6.66,14-14.88S73.62,10,66,10,52.1,16.7,52,24.92Z" style="fill: #fe6d00;fill-rule: evenodd"/>
          <path d="M52,24.92c.11-8.22,6.38-14.85,14-14.85s13.66,6.66,13.55,14.85-6.38,14.85-14,14.85S51.87,33.11,52,24.92Zm-.06,0c-.14,8.22,6,14.91,13.58,14.91S79.46,33.14,79.6,24.92,73.64,10,66,10,52.07,16.67,52,24.92Z" style="fill: #ff6e00;fill-rule: evenodd"/>
        </g>
      </g>
    </g>
  </g>
</svg>
